<svg width="43" height="29" viewBox="0 0 43 29" fill="none" xmlns="http://www.w3.org/2000/svg">
<path d="M12.6184 12.0799C13.7457 12.0799 14.6596 11.0572 14.6596 9.79568C14.6596 8.53412 13.7457 7.51143 12.6184 7.51143C11.4911 7.51143 10.5772 8.53412 10.5772 9.79568C10.5772 11.0572 11.4911 12.0799 12.6184 12.0799Z" fill="white"/>
<path d="M12.6184 17.7905C9.86277 17.7905 6.69888 19.2639 6.49475 20.0862V21.2169H18.7421V20.0748C18.538 19.2639 15.3741 17.7905 12.6184 17.7905Z" fill="white"/>
<path d="M12.6184 14.3642C14.874 14.3642 16.7009 12.3198 16.7009 9.79568C16.7009 7.27158 14.874 5.22718 12.6184 5.22718C10.3629 5.22718 8.53597 7.27158 8.53597 9.79568C8.53597 12.3198 10.3629 14.3642 12.6184 14.3642ZM12.6184 7.51143C13.7411 7.51143 14.6596 8.53934 14.6596 9.79568C14.6596 11.052 13.7411 12.0799 12.6184 12.0799C11.4957 12.0799 10.5772 11.052 10.5772 9.79568C10.5772 8.53934 11.4957 7.51143 12.6184 7.51143ZM12.6184 15.5063C9.89338 15.5063 4.45353 17.0367 4.45353 20.0748V23.5012H20.7833V20.0748C20.7833 17.0367 15.3434 15.5063 12.6184 15.5063ZM18.7421 21.2169H6.49475V20.0862C6.69888 19.2639 9.86277 17.7905 12.6184 17.7905C15.3741 17.7905 18.538 19.2639 18.7421 20.0748V21.2169Z" fill="white"/>
<path d="M29.9934 12.0799C31.1207 12.0799 32.0346 11.0572 32.0346 9.79568C32.0346 8.53412 31.1207 7.51143 29.9934 7.51143C28.8661 7.51143 27.9522 8.53412 27.9522 9.79568C27.9522 11.0572 28.8661 12.0799 29.9934 12.0799Z" fill="white"/>
<path d="M29.9934 17.7905C27.2378 17.7905 24.0739 19.2639 23.8698 20.0862V21.2169H36.1171V20.0748C35.913 19.2639 32.7491 17.7905 29.9934 17.7905Z" fill="white"/>
<path d="M29.9934 14.3642C32.249 14.3642 34.0759 12.3198 34.0759 9.79568C34.0759 7.27158 32.249 5.22718 29.9934 5.22718C27.7379 5.22718 25.911 7.27158 25.911 9.79568C25.911 12.3198 27.7379 14.3642 29.9934 14.3642ZM29.9934 7.51143C31.1161 7.51143 32.0346 8.53934 32.0346 9.79568C32.0346 11.052 31.1161 12.0799 29.9934 12.0799C28.8707 12.0799 27.9522 11.052 27.9522 9.79568C27.9522 8.53934 28.8707 7.51143 29.9934 7.51143ZM29.9934 15.5063C27.2684 15.5063 21.8285 17.0367 21.8285 20.0748V23.5012H38.1583V20.0748C38.1583 17.0367 32.7184 15.5063 29.9934 15.5063ZM36.1171 21.2169H23.8698V20.0862C24.0739 19.2639 27.2378 17.7905 29.9934 17.7905C32.7491 17.7905 35.913 19.2639 36.1171 20.0748V21.2169Z" fill="white"/>
<path d="M21.2975 12.0799C22.4467 12.0799 23.3783 11.0572 23.3783 9.79568C23.3783 8.53412 22.4467 7.51143 21.2975 7.51143C20.1483 7.51143 19.2167 8.53412 19.2167 9.79568C19.2167 11.0572 20.1483 12.0799 21.2975 12.0799Z" fill="#405DB5"/>
<path d="M21.2975 17.7905C18.4884 17.7905 15.2631 19.2639 15.055 20.0862V21.2169H27.54V20.0748C27.3319 19.2639 24.1066 17.7905 21.2975 17.7905Z" fill="#405DB5"/>
<path d="M21.2975 14.3642C23.5968 14.3642 25.4592 12.3198 25.4592 9.79568C25.4592 7.27158 23.5968 5.22718 21.2975 5.22718C18.9982 5.22718 17.1358 7.27158 17.1358 9.79568C17.1358 12.3198 18.9982 14.3642 21.2975 14.3642ZM21.2975 7.51143C22.442 7.51143 23.3783 8.53934 23.3783 9.79568C23.3783 11.052 22.442 12.0799 21.2975 12.0799C20.153 12.0799 19.2167 11.052 19.2167 9.79568C19.2167 8.53934 20.153 7.51143 21.2975 7.51143ZM21.2975 15.5063C18.5196 15.5063 12.9742 17.0367 12.9742 20.0748V23.5012H29.6208V20.0748C29.6208 17.0367 24.0754 15.5063 21.2975 15.5063ZM27.54 21.2169H15.055V20.0862C15.2631 19.2639 18.4884 17.7905 21.2975 17.7905C24.1066 17.7905 27.3319 19.2639 27.54 20.0748V21.2169Z" fill="#405DB5"/>
<path d="M21.3024 13.9176C22.2375 13.9176 22.9954 13.0694 22.9954 12.023C22.9954 10.9767 22.2375 10.1285 21.3024 10.1285C20.3674 10.1285 19.6095 10.9767 19.6095 12.023C19.6095 13.0694 20.3674 13.9176 21.3024 13.9176Z" fill="white"/>
<path d="M21.3024 18.654C19.0169 18.654 16.3928 19.8759 16.2235 20.558V21.4958H26.3814V20.5485C26.2121 19.8759 23.588 18.654 21.3024 18.654Z" fill="white"/>
<path d="M21.3024 15.8121C23.1732 15.8121 24.6884 14.1165 24.6884 12.023C24.6884 9.92955 23.1732 8.23393 21.3024 8.23393C19.4317 8.23393 17.9165 9.92955 17.9165 12.023C17.9165 14.1165 19.4317 15.8121 21.3024 15.8121ZM21.3024 10.1285C22.2336 10.1285 22.9954 10.981 22.9954 12.023C22.9954 13.065 22.2336 13.9176 21.3024 13.9176C20.3713 13.9176 19.6095 13.065 19.6095 12.023C19.6095 10.981 20.3713 10.1285 21.3024 10.1285ZM21.3024 16.7594C19.0423 16.7594 14.5305 18.0288 14.5305 20.5485V23.3903H28.0744V20.5485C28.0744 18.0288 23.5626 16.7594 21.3024 16.7594ZM26.3814 21.4958H16.2235V20.558C16.3928 19.8759 19.0169 18.654 21.3024 18.654C23.588 18.654 26.2121 19.8759 26.3814 20.5485V21.4958Z" fill="white"/>
</svg>
