<svg width="26" height="27" viewBox="0 0 26 27" fill="none" xmlns="http://www.w3.org/2000/svg">
<rect x="6.9375" y="7.39258" width="18.065" height="18.065" rx="1" fill="white" stroke="white" stroke-width="2"/>
<path d="M7.40241 10.971L11.6785 16.1625L15.8985 11.2739C19.1806 7.47168 16.4794 1.57178 11.4566 1.57178C6.78331 1.88696 4.42449 7.35565 7.40241 10.971Z" fill="#405DB5" stroke="#405DB5"/>
<path d="M11.6713 8.91756C10.8008 8.91756 10.0885 8.18652 10.0885 7.29303C10.0885 6.39954 10.8008 5.66851 11.6713 5.66851C12.5419 5.66851 13.2542 6.39954 13.2542 7.29303C13.2542 8.18652 12.5419 8.91756 11.6713 8.91756ZM16.42 7.45549C16.42 4.50697 14.3227 2.41945 11.6713 2.41945C9.02003 2.41945 6.92272 4.50697 6.92272 7.45549C6.92272 9.35618 8.46602 11.8742 11.6713 14.8796C14.8767 11.8742 16.42 9.35618 16.42 7.45549ZM11.6713 0.794922C14.9954 0.794922 18.0028 3.41041 18.0028 7.45549C18.0028 10.1522 15.8897 13.3444 11.6713 17.0402C7.45298 13.3444 5.33984 10.1522 5.33984 7.45549C5.33984 3.41041 8.3473 0.794922 11.6713 0.794922Z" fill="white"/>
<path d="M11.7539 15.7058L13.0122 17.4449C19.3952 21.1524 16.4939 7.4514 22.9091 15.0918" stroke="#405DB5" stroke-dasharray="1 1"/>
</svg>
