<svg width="31" height="31" viewBox="0 0 31 31" fill="none" xmlns="http://www.w3.org/2000/svg">
<path d="M20.3174 11.7448C20.7079 11.3542 20.7079 10.7211 20.3174 10.3306C19.9269 9.94003 19.2937 9.94003 18.9032 10.3306L20.3174 11.7448ZM10.9482 18.2855C10.5577 18.676 10.5577 19.3092 10.9482 19.6997C11.3388 20.0902 11.9719 20.0902 12.3624 19.6997L10.9482 18.2855ZM18.9032 19.6997C19.2937 20.0902 19.9269 20.0902 20.3174 19.6997C20.7079 19.3092 20.7079 18.676 20.3174 18.2855L18.9032 19.6997ZM12.3624 10.3306C11.9719 9.94003 11.3388 9.94003 10.9482 10.3306C10.5577 10.7211 10.5577 11.3542 10.9482 11.7448L12.3624 10.3306ZM25.8828 15.0151C25.8828 20.6761 21.2937 25.2651 15.6328 25.2651V27.2651C22.3983 27.2651 27.8828 21.7806 27.8828 15.0151H25.8828ZM15.6328 25.2651C9.97189 25.2651 5.38281 20.6761 5.38281 15.0151H3.38281C3.38281 21.7806 8.86732 27.2651 15.6328 27.2651V25.2651ZM5.38281 15.0151C5.38281 9.35422 9.97189 4.76514 15.6328 4.76514V2.76514C8.86732 2.76514 3.38281 8.24965 3.38281 15.0151H5.38281ZM15.6328 4.76514C21.2937 4.76514 25.8828 9.35422 25.8828 15.0151H27.8828C27.8828 8.24965 22.3983 2.76514 15.6328 2.76514V4.76514ZM18.9032 10.3306L14.9257 14.308L16.3399 15.7222L20.3174 11.7448L18.9032 10.3306ZM14.9257 14.308L10.9482 18.2855L12.3624 19.6997L16.3399 15.7222L14.9257 14.308ZM20.3174 18.2855L16.3399 14.308L14.9257 15.7222L18.9032 19.6997L20.3174 18.2855ZM16.3399 14.308L12.3624 10.3306L10.9482 11.7448L14.9257 15.7222L16.3399 14.308Z" fill="#1270B1"/>
</svg>
