<svg width="241" height="204" viewBox="0 0 241 204" fill="none" xmlns="http://www.w3.org/2000/svg">
<path d="M193.94 21.9453L218.685 155.028L200.643 181.367L113.223 197.622C112.323 197.789 111.393 197.591 110.638 197.072C109.882 196.552 109.364 195.753 109.196 194.851L80.9528 42.9537C80.785 42.0516 80.9818 41.1199 81.4999 40.3636C82.018 39.6073 82.8149 39.0884 83.7152 38.921L189.913 19.1751C190.813 19.0077 191.743 19.2055 192.498 19.725C193.254 20.2445 193.772 21.0432 193.94 21.9453Z" fill="#407BFF"/>
<path opacity="0.6" d="M195.011 27.6859L218.688 155.029L200.646 181.368L113.227 197.622C112.326 197.79 111.396 197.592 110.641 197.072C109.886 196.553 109.367 195.754 109.199 194.852L82.0234 48.6943L195.011 27.6859Z" fill="white"/>
<path opacity="0.6" d="M191.109 23.2417C191.15 23.4651 191.148 23.6944 191.101 23.9166C191.054 24.1388 190.963 24.3495 190.835 24.5368C190.707 24.724 190.543 24.8841 190.353 25.0078C190.163 25.1316 189.95 25.2166 189.728 25.2581C189.291 25.3112 188.85 25.1955 188.496 24.9344C188.141 24.6733 187.9 24.2866 187.82 23.8532C187.741 23.4304 187.834 22.9936 188.076 22.6391C188.319 22.2846 188.693 22.0414 189.115 21.9629C189.547 21.8816 189.994 21.9687 190.365 22.2064C190.735 22.444 191.001 22.8143 191.109 23.2417Z" fill="white"/>
<path opacity="0.6" d="M184.851 24.4058C184.935 24.8569 184.836 25.3227 184.577 25.7008C184.318 26.079 183.92 26.3384 183.47 26.4221C183.033 26.4753 182.593 26.3595 182.238 26.0985C181.884 25.8374 181.642 25.4507 181.562 25.0173C181.483 24.5944 181.576 24.1577 181.819 23.8032C182.061 23.4487 182.435 23.2054 182.857 23.127C183.289 23.0457 183.736 23.1328 184.107 23.3705C184.477 23.6081 184.743 23.9784 184.851 24.4058Z" fill="white"/>
<path opacity="0.6" d="M178.484 25.5889C178.565 26.022 178.478 26.4697 178.242 26.8408C178.005 27.2118 177.635 27.4782 177.209 27.5855C176.758 27.6692 176.293 27.5703 175.916 27.3106C175.538 27.0508 175.279 26.6515 175.195 26.2004C175.142 25.763 175.257 25.3218 175.517 24.9668C175.778 24.6118 176.163 24.3699 176.596 24.2903C177.018 24.2119 177.454 24.3046 177.808 24.5481C178.162 24.7916 178.405 25.166 178.484 25.5889Z" fill="white"/>
<path d="M152.581 46.2418L92.0032 57.5054C91.7218 57.5577 91.4311 57.4959 91.1951 57.3336C90.9591 57.1712 90.7971 56.9216 90.7446 56.6397C90.7009 56.4992 90.6895 56.3505 90.7113 56.205C90.7332 56.0595 90.7877 55.9208 90.8708 55.7995C90.9539 55.6782 91.0634 55.5773 91.1911 55.5046C91.3188 55.4318 91.4613 55.3891 91.6079 55.3795L152.186 44.1158C152.326 44.0721 152.475 44.0608 152.62 44.0828C152.765 44.1048 152.904 44.1595 153.025 44.2428C153.146 44.3262 153.247 44.436 153.319 44.5639C153.392 44.6919 153.435 44.8347 153.445 44.9815C153.47 45.1211 153.469 45.2645 153.439 45.4033C153.41 45.5422 153.354 45.6739 153.274 45.791C153.193 45.908 153.091 46.008 152.972 46.0854C152.853 46.1627 152.721 46.2159 152.581 46.2418Z" fill="#407BFF"/>
<path d="M136.583 55.2638L93.0852 63.3516C92.8039 63.4039 92.5132 63.3421 92.2771 63.1797C92.0411 63.0174 91.8791 62.7678 91.8267 62.4859C91.7829 62.3454 91.7715 62.1967 91.7933 62.0512C91.8152 61.9057 91.8697 61.767 91.9528 61.6457C92.036 61.5243 92.1455 61.4235 92.2731 61.3508C92.4008 61.278 92.5433 61.2352 92.6899 61.2257L136.187 53.1379C136.469 53.0856 136.759 53.1474 136.995 53.3098C137.231 53.4721 137.394 53.7217 137.446 54.0036C137.473 54.2819 137.401 54.5608 137.243 54.7913C137.086 55.0217 136.852 55.1891 136.583 55.2638Z" fill="#407BFF"/>
<path d="M200.157 136.259L122.71 150.659C122.429 150.711 122.138 150.65 121.902 150.487C121.666 150.325 121.504 150.075 121.452 149.793C121.425 149.515 121.496 149.236 121.654 149.006C121.812 148.775 122.046 148.608 122.315 148.533L199.761 134.133C200.043 134.081 200.333 134.143 200.569 134.305C200.806 134.467 200.968 134.717 201.02 134.999C201.064 135.139 201.075 135.288 201.053 135.433C201.031 135.579 200.977 135.718 200.894 135.839C200.811 135.96 200.701 136.061 200.573 136.134C200.446 136.207 200.303 136.249 200.157 136.259Z" fill="#407BFF"/>
<path d="M191.54 161.945L114.093 176.345C113.812 176.397 113.521 176.335 113.285 176.173C113.049 176.011 112.887 175.761 112.834 175.479C112.791 175.339 112.779 175.19 112.801 175.044C112.823 174.899 112.878 174.76 112.961 174.639C113.044 174.518 113.153 174.417 113.281 174.344C113.409 174.271 113.551 174.228 113.698 174.219L191.144 159.819C191.285 159.775 191.433 159.764 191.578 159.786C191.723 159.808 191.862 159.862 191.983 159.946C192.104 160.029 192.205 160.139 192.278 160.267C192.35 160.395 192.393 160.538 192.403 160.684C192.455 160.966 192.394 161.258 192.232 161.494C192.07 161.73 191.821 161.892 191.54 161.945Z" fill="#407BFF"/>
<path d="M201.248 142.106L110.859 158.913C110.577 158.965 110.287 158.904 110.051 158.741C109.815 158.579 109.653 158.329 109.6 158.047C109.556 157.907 109.545 157.758 109.567 157.613C109.589 157.467 109.643 157.329 109.726 157.207C109.809 157.086 109.919 156.985 110.047 156.912C110.174 156.84 110.317 156.797 110.463 156.787L200.853 139.98C200.993 139.937 201.142 139.925 201.287 139.947C201.432 139.969 201.571 140.024 201.692 140.107C201.813 140.191 201.914 140.301 201.987 140.429C202.059 140.557 202.102 140.699 202.112 140.846C202.164 141.128 202.103 141.419 201.941 141.656C201.779 141.892 201.53 142.054 201.248 142.106Z" fill="#407BFF"/>
<path d="M202.314 147.846L111.924 164.653C111.784 164.697 111.635 164.708 111.49 164.686C111.345 164.664 111.206 164.609 111.085 164.526C110.964 164.443 110.863 164.333 110.79 164.205C110.718 164.077 110.675 163.934 110.665 163.787C110.613 163.505 110.674 163.214 110.836 162.978C110.998 162.742 111.247 162.579 111.529 162.527L201.918 145.72C202.2 145.668 202.49 145.73 202.726 145.892C202.962 146.055 203.124 146.304 203.177 146.586C203.221 146.727 203.232 146.875 203.21 147.021C203.188 147.166 203.134 147.305 203.051 147.426C202.968 147.548 202.858 147.648 202.73 147.721C202.603 147.794 202.46 147.837 202.314 147.846Z" fill="#407BFF"/>
<path d="M203.403 153.692L113.014 170.499C112.873 170.543 112.725 170.554 112.58 170.532C112.434 170.51 112.296 170.456 112.175 170.372C112.054 170.289 111.953 170.179 111.88 170.051C111.808 169.923 111.765 169.78 111.755 169.634C111.703 169.352 111.764 169.06 111.926 168.824C112.088 168.588 112.337 168.426 112.618 168.373L203.008 151.567C203.289 151.514 203.58 151.576 203.816 151.738C204.052 151.901 204.214 152.15 204.267 152.432C204.31 152.573 204.322 152.721 204.3 152.867C204.278 153.013 204.224 153.151 204.14 153.272C204.057 153.394 203.948 153.495 203.82 153.567C203.693 153.64 203.55 153.683 203.403 153.692Z" fill="#407BFF"/>
<path opacity="0.5" d="M218.704 155.135L200.642 181.367L196.531 159.257L218.704 155.135Z" fill="#407BFF"/>
<path opacity="0.4" d="M195.029 27.7917L188.77 28.9556L212.445 156.288L218.705 155.124L195.029 27.7917Z" fill="black"/>
<path d="M204.2 94.8196C203.908 94.874 203.607 94.8701 203.316 94.8082C203.025 94.7462 202.749 94.6275 202.503 94.4587C202.258 94.2898 202.048 94.0743 201.886 93.8243C201.724 93.5743 201.612 93.2947 201.557 93.0016L199.126 79.9271C199.016 79.3351 199.146 78.7237 199.486 78.2274C199.825 77.7311 200.348 77.3905 200.939 77.2807C201.238 77.2102 201.548 77.2013 201.85 77.2545C202.153 77.3076 202.441 77.4218 202.698 77.5899C202.955 77.7581 203.175 77.9768 203.346 78.2327C203.516 78.4887 203.632 78.7766 203.688 79.0789L206.119 92.1534C206.176 92.4556 206.171 92.7662 206.104 93.0662C206.037 93.3662 205.91 93.6495 205.73 93.8988C205.551 94.1481 205.323 94.3583 205.06 94.5165C204.797 94.6748 204.504 94.7779 204.2 94.8196Z" fill="#407BFF"/>
<path d="M194.231 104.37L116.784 118.77C116.503 118.822 116.212 118.76 115.976 118.598C115.74 118.436 115.578 118.186 115.526 117.904C115.499 117.626 115.57 117.347 115.728 117.117C115.886 116.886 116.12 116.719 116.389 116.644L193.836 102.244C194.117 102.192 194.408 102.253 194.644 102.416C194.88 102.578 195.042 102.828 195.094 103.11C195.138 103.25 195.149 103.399 195.128 103.544C195.106 103.69 195.051 103.829 194.968 103.95C194.885 104.071 194.775 104.172 194.648 104.245C194.52 104.318 194.378 104.36 194.231 104.37Z" fill="#407BFF"/>
<path d="M185.618 130.056L108.171 144.456C107.89 144.508 107.599 144.447 107.363 144.284C107.127 144.122 106.965 143.872 106.913 143.59C106.869 143.45 106.857 143.301 106.879 143.156C106.901 143.01 106.956 142.872 107.039 142.75C107.122 142.629 107.231 142.528 107.359 142.455C107.487 142.383 107.629 142.34 107.776 142.33L185.222 127.93C185.363 127.886 185.511 127.875 185.656 127.897C185.802 127.919 185.94 127.974 186.061 128.057C186.182 128.14 186.283 128.25 186.356 128.378C186.428 128.506 186.471 128.649 186.481 128.796C186.533 129.078 186.472 129.369 186.31 129.605C186.148 129.842 185.899 130.004 185.618 130.056Z" fill="#407BFF"/>
<path d="M195.315 110.217L104.925 127.024C104.644 127.076 104.353 127.014 104.117 126.852C103.881 126.69 103.719 126.44 103.667 126.158C103.623 126.018 103.611 125.869 103.633 125.724C103.655 125.578 103.71 125.439 103.793 125.318C103.876 125.197 103.985 125.096 104.113 125.023C104.241 124.95 104.383 124.908 104.53 124.898L194.92 108.091C195.06 108.048 195.208 108.036 195.353 108.058C195.499 108.08 195.637 108.135 195.758 108.218C195.879 108.302 195.98 108.411 196.053 108.539C196.126 108.667 196.168 108.81 196.178 108.957C196.23 109.239 196.169 109.53 196.007 109.766C195.845 110.003 195.596 110.165 195.315 110.217Z" fill="#407BFF"/>
<path d="M196.384 115.957L105.994 132.764C105.854 132.808 105.706 132.819 105.56 132.797C105.415 132.775 105.277 132.72 105.155 132.637C105.034 132.554 104.933 132.444 104.861 132.316C104.788 132.188 104.745 132.045 104.736 131.898C104.683 131.616 104.745 131.325 104.907 131.089C105.068 130.852 105.317 130.69 105.599 130.638L195.989 113.831C196.27 113.779 196.561 113.841 196.797 114.003C197.033 114.165 197.195 114.415 197.247 114.697C197.291 114.837 197.302 114.986 197.28 115.132C197.259 115.277 197.204 115.416 197.121 115.537C197.038 115.658 196.928 115.759 196.801 115.832C196.673 115.905 196.53 115.948 196.384 115.957Z" fill="#407BFF"/>
<path d="M197.47 121.803L107.08 138.61C106.94 138.654 106.791 138.665 106.646 138.643C106.501 138.621 106.362 138.566 106.241 138.483C106.12 138.4 106.019 138.29 105.947 138.162C105.874 138.034 105.831 137.891 105.822 137.744C105.769 137.462 105.831 137.171 105.992 136.935C106.154 136.699 106.403 136.536 106.685 136.484L197.075 119.677C197.356 119.625 197.647 119.687 197.883 119.849C198.119 120.012 198.281 120.261 198.333 120.543C198.377 120.684 198.388 120.832 198.366 120.978C198.345 121.123 198.29 121.262 198.207 121.383C198.124 121.505 198.014 121.605 197.887 121.678C197.759 121.751 197.616 121.794 197.47 121.803Z" fill="#407BFF"/>
<path d="M184.763 53.4544L94.0547 70.3203L100.36 104.229L191.068 87.363L184.763 53.4544Z" fill="#407BFF"/>
<path opacity="0.2" d="M99.3515 98.8077L101.898 98.3343L100.751 92.1691L103.51 91.6562L101.257 79.5384L105.288 78.7888L106.672 86.2296L112.082 85.2236L113.94 95.2154L120.518 93.9924L119.213 86.9768L124.518 85.9905L127.473 81.8121L125.931 73.5209L128.053 73.1264L130.247 84.9253L135.764 83.8996L136.554 88.1514L142.177 87.1059L138.185 65.6341L139.479 63.7437L140.586 69.6963L144.193 69.0256L144.668 71.5767L148.821 74.4335L149.987 80.705L154.973 79.7779L154.064 74.8883L167.007 72.4817L166.316 68.7613L169.286 68.209L168.081 61.7249L169.141 61.5276L171.039 71.7321L172.736 71.4164L175.738 66.8994L179.239 66.2484L178.607 62.8469L180.41 62.5116L181.062 66.0193L183.396 65.5854L186.005 79.6165L188.445 79.1628L187.141 72.1472L188.221 72.0563L184.763 53.4544L94.0547 70.3203L99.3515 98.8077Z" fill="black"/>
<path d="M192.06 92.6778L167.659 97.2148C167.378 97.2671 167.087 97.2053 166.851 97.0429C166.615 96.8806 166.453 96.631 166.401 96.3491C166.374 96.0708 166.445 95.7919 166.603 95.5614C166.761 95.331 166.995 95.1636 167.264 95.0889L191.665 90.5518C191.946 90.4995 192.237 90.5613 192.473 90.7237C192.709 90.886 192.871 91.1356 192.924 91.4175C192.967 91.5581 192.979 91.7067 192.957 91.8522C192.935 91.9978 192.881 92.1364 192.797 92.2578C192.714 92.3791 192.605 92.4799 192.477 92.5526C192.349 92.6254 192.207 92.6682 192.06 92.6778Z" fill="#407BFF"/>
<path opacity="0.2" d="M124.03 31.4251L144.486 141.442L130.933 161.227L103.879 166.258L80.9528 42.9537C80.785 42.0516 80.9818 41.1199 81.4999 40.3636C82.018 39.6073 82.8149 39.0884 83.7152 38.921L124.03 31.4251Z" fill="black"/>
<path opacity="0.4" d="M204.2 94.8196C203.908 94.874 203.607 94.8701 203.316 94.8082C203.025 94.7462 202.749 94.6275 202.503 94.4587C202.258 94.2898 202.048 94.0743 201.886 93.8243C201.724 93.5743 201.612 93.2947 201.557 93.0016L199.126 79.9271C199.016 79.3351 199.146 78.7237 199.486 78.2274C199.825 77.7311 200.348 77.3905 200.939 77.2807C201.238 77.2102 201.548 77.2013 201.85 77.2545C202.153 77.3076 202.441 77.4218 202.698 77.5899C202.955 77.7581 203.175 77.9768 203.346 78.2327C203.516 78.4887 203.632 78.7766 203.688 79.0789L206.119 92.1534C206.176 92.4556 206.171 92.7662 206.104 93.0662C206.037 93.3662 205.91 93.6495 205.73 93.8988C205.551 94.1481 205.323 94.3583 205.06 94.5165C204.797 94.6748 204.504 94.7779 204.2 94.8196Z" fill="white"/>
<path d="M113.624 3.40187L138.388 136.591L120.326 162.824L32.907 179.078C32.0066 179.245 31.0764 179.048 30.3212 178.528C29.5659 178.009 29.0473 177.21 28.8796 176.308L0.636364 24.4103C0.468626 23.5081 0.665433 22.5765 1.1835 21.8202C1.70156 21.0639 2.49843 20.545 3.39882 20.3776L109.596 0.63163C110.497 0.464215 111.427 0.662021 112.182 1.18154C112.937 1.70107 113.456 2.49974 113.624 3.40187Z" fill="#407BFF"/>
<path opacity="0.6" d="M114.706 9.24795L138.384 136.591L120.322 162.823L32.9023 179.078C32.0019 179.245 31.0718 179.047 30.3165 178.528C29.5612 178.008 29.0427 177.21 28.8749 176.308L1.71875 30.2563L114.706 9.24795Z" fill="white"/>
<path opacity="0.6" d="M109.537 6.80119C110.474 6.62687 111.093 5.72412 110.918 4.78483C110.744 3.84553 109.842 3.2254 108.905 3.39971C107.967 3.57402 107.349 4.47678 107.523 5.41607C107.698 6.35536 108.599 6.9755 109.537 6.80119Z" fill="white"/>
<path opacity="0.6" d="M103.17 7.98479C104.107 7.81048 104.726 6.90773 104.551 5.96844C104.376 5.02915 103.475 4.40901 102.537 4.58331C101.6 4.75762 100.981 5.66037 101.156 6.59966C101.331 7.53896 102.232 8.1591 103.17 7.98479Z" fill="white"/>
<path opacity="0.6" d="M98.2892 7.13202C98.3731 7.58308 98.2747 8.04891 98.0157 8.42705C97.7566 8.80519 97.3582 9.06465 96.908 9.14836C96.4578 9.23207 95.9928 9.13316 95.6151 8.8734C95.2375 8.61364 94.9782 8.21431 94.8944 7.76325C94.8105 7.31218 94.9089 6.84633 95.1679 6.46819C95.4269 6.09005 95.8254 5.83059 96.2756 5.74689C96.7257 5.66318 97.1908 5.76208 97.5685 6.02184C97.9461 6.28161 98.2054 6.68095 98.2892 7.13202Z" fill="white"/>
<path d="M67.8131 29.1836L46.2766 33.188C45.9953 33.2403 45.7046 33.1785 45.4686 33.0162C45.2325 32.8538 45.0705 32.6042 45.0181 32.3223C44.9743 32.1818 44.9629 32.0332 44.9848 31.8876C45.0066 31.7421 45.0611 31.6034 45.1442 31.4821C45.2274 31.3608 45.3369 31.26 45.4646 31.1872C45.5922 31.1144 45.7347 31.0717 45.8813 31.0621L67.4179 27.0577C67.5581 27.0139 67.7065 27.0026 67.8517 27.0246C67.997 27.0466 68.1355 27.1013 68.2566 27.1847C68.3778 27.268 68.4785 27.3778 68.5512 27.5058C68.6239 27.6337 68.6668 27.7765 68.6764 27.9234C68.7288 28.2053 68.6673 28.4964 68.5054 28.7328C68.3435 28.9691 68.0945 29.1313 67.8131 29.1836Z" fill="#407BFF"/>
<path d="M77.7915 33.2667L38.4316 40.5851C38.2914 40.6289 38.143 40.6402 37.9977 40.6182C37.8525 40.5962 37.714 40.5415 37.5929 40.4581C37.4717 40.3748 37.371 40.265 37.2982 40.1371C37.2255 40.0091 37.1827 39.8663 37.1731 39.7194C37.1207 39.4375 37.1822 39.1464 37.3441 38.91C37.5059 38.6737 37.755 38.5115 38.0363 38.4592L77.3962 31.1408C77.674 31.1139 77.9524 31.186 78.1826 31.3443C78.4128 31.5026 78.5799 31.7371 78.6548 32.0065C78.7072 32.2884 78.6457 32.5796 78.4838 32.8159C78.3219 33.0522 78.0729 33.2144 77.7915 33.2667Z" fill="#407BFF"/>
<path d="M70.2896 40.7117L48.1165 44.8345C47.8351 44.8868 47.5444 44.825 47.3084 44.6627C47.0724 44.5003 46.9103 44.2507 46.8579 43.9688C46.8141 43.8283 46.8027 43.6797 46.8246 43.5341C46.8465 43.3886 46.901 43.2499 46.9841 43.1286C47.0672 43.0073 47.1767 42.9064 47.3044 42.8337C47.4321 42.7609 47.5746 42.7182 47.7212 42.7086L69.8943 38.5858C70.0345 38.542 70.1829 38.5307 70.3282 38.5527C70.4735 38.5747 70.6119 38.6295 70.7331 38.7128C70.8542 38.7962 70.955 38.9059 71.0277 39.0339C71.1004 39.1618 71.1432 39.3046 71.1528 39.4515C71.2052 39.7334 71.1438 40.0246 70.9819 40.2609C70.82 40.4973 70.5709 40.6594 70.2896 40.7117Z" fill="#407BFF"/>
<path d="M107.192 49.6858L29.7453 64.0859C29.4639 64.1382 29.1732 64.0764 28.9372 63.9141C28.7012 63.7517 28.5391 63.5021 28.4867 63.2202C28.4597 62.9419 28.5314 62.663 28.6893 62.4325C28.8472 62.202 29.0811 62.0347 29.35 61.96L106.797 47.5599C107.078 47.5075 107.369 47.5694 107.605 47.7317C107.841 47.8941 108.003 48.1436 108.055 48.4256C108.099 48.5661 108.11 48.7147 108.088 48.8603C108.067 49.0058 108.012 49.1445 107.929 49.2658C107.846 49.3871 107.736 49.4879 107.609 49.5607C107.481 49.6334 107.338 49.6762 107.192 49.6858Z" fill="#407BFF"/>
<path d="M98.5785 75.3718L21.132 89.7719C20.8506 89.8243 20.5599 89.7624 20.3239 89.6001C20.0879 89.4377 19.9258 89.1881 19.8734 88.9062C19.821 88.6243 19.8825 88.3332 20.0444 88.0968C20.2063 87.8605 20.4553 87.6983 20.7367 87.646L98.1832 73.2459C98.4646 73.1936 98.7553 73.2554 98.9913 73.4177C99.2274 73.5801 99.3894 73.8297 99.4418 74.1116C99.4942 74.3935 99.4327 74.6847 99.2708 74.921C99.1089 75.1573 98.8599 75.3195 98.5785 75.3718Z" fill="#407BFF"/>
<path d="M108.283 55.5326L17.8937 72.3393C17.6123 72.3916 17.3217 72.3298 17.0856 72.1675C16.8496 72.0051 16.6876 71.7555 16.6351 71.4736C16.6081 71.1953 16.6798 70.9164 16.8377 70.6859C16.9956 70.4555 17.2295 70.2882 17.4984 70.2134L107.888 53.4067C108.17 53.3543 108.46 53.4162 108.696 53.5785C108.932 53.7409 109.094 53.9905 109.147 54.2724C109.191 54.4129 109.202 54.5615 109.18 54.7071C109.158 54.8526 109.104 54.9913 109.021 55.1126C108.937 55.2339 108.828 55.3347 108.7 55.4075C108.573 55.4802 108.43 55.523 108.283 55.5326Z" fill="#407BFF"/>
<path d="M109.367 61.3786L18.977 78.1854C18.6992 78.2122 18.4207 78.1402 18.1906 77.9819C17.9604 77.8235 17.7932 77.5891 17.7184 77.3197C17.666 77.0377 17.7275 76.7466 17.8894 76.5103C18.0513 76.2739 18.3003 76.1118 18.5817 76.0594L108.971 59.2527C109.112 59.209 109.26 59.1976 109.405 59.2196C109.551 59.2416 109.689 59.2964 109.81 59.3797C109.931 59.463 110.032 59.5728 110.105 59.7008C110.178 59.8287 110.22 59.9715 110.23 60.1184C110.282 60.4003 110.221 60.6915 110.059 60.9278C109.897 61.1642 109.648 61.3263 109.367 61.3786Z" fill="#407BFF"/>
<path d="M110.436 67.119L20.046 83.9257C19.7647 83.9781 19.474 83.9162 19.238 83.7539C19.002 83.5915 18.8399 83.342 18.7875 83.06C18.7605 82.7817 18.8322 82.5028 18.9901 82.2724C19.1479 82.0419 19.3819 81.8746 19.6508 81.7998L110.041 64.9931C110.322 64.9408 110.613 65.0026 110.849 65.1649C111.085 65.3273 111.247 65.5769 111.299 65.8588C111.343 65.9993 111.354 66.148 111.332 66.2935C111.311 66.439 111.256 66.5777 111.173 66.699C111.09 66.8203 110.98 66.9212 110.853 66.9939C110.725 67.0667 110.582 67.1094 110.436 67.119Z" fill="#407BFF"/>
<path d="M118.067 108.149L40.6203 122.549C40.3389 122.601 40.0482 122.539 39.8122 122.377C39.5762 122.215 39.4141 121.965 39.3617 121.683C39.3347 121.405 39.4064 121.126 39.5643 120.895C39.7222 120.665 39.9561 120.498 40.225 120.423L117.672 106.023C117.953 105.97 118.244 106.032 118.48 106.195C118.716 106.357 118.878 106.607 118.93 106.888C118.974 107.029 118.985 107.178 118.963 107.323C118.942 107.469 118.887 107.607 118.804 107.729C118.721 107.85 118.611 107.951 118.484 108.024C118.356 108.096 118.213 108.139 118.067 108.149Z" fill="#407BFF"/>
<path d="M109.45 133.835L32.0031 148.235C31.7217 148.288 31.431 148.226 31.195 148.063C30.959 147.901 30.7969 147.652 30.7445 147.37C30.6921 147.088 30.7536 146.797 30.9155 146.56C31.0774 146.324 31.3264 146.162 31.6078 146.109L109.054 131.709C109.336 131.657 109.626 131.719 109.862 131.881C110.098 132.043 110.26 132.293 110.313 132.575C110.365 132.857 110.304 133.148 110.142 133.384C109.98 133.621 109.731 133.783 109.45 133.835Z" fill="#407BFF"/>
<path d="M119.147 113.995L28.757 130.802C28.4756 130.854 28.1849 130.792 27.9489 130.63C27.7129 130.468 27.5508 130.218 27.4984 129.936C27.4714 129.658 27.5431 129.379 27.701 129.148C27.8589 128.918 28.0928 128.751 28.3617 128.676L118.751 111.869C119.033 111.817 119.323 111.879 119.56 112.041C119.796 112.203 119.958 112.453 120.01 112.735C120.054 112.875 120.065 113.024 120.043 113.169C120.021 113.315 119.967 113.454 119.884 113.575C119.801 113.696 119.691 113.797 119.564 113.87C119.436 113.943 119.293 113.985 119.147 113.995Z" fill="#407BFF"/>
<path d="M120.238 119.843L29.8481 136.649C29.5703 136.676 29.2918 136.604 29.0617 136.446C28.8315 136.287 28.6643 136.053 28.5895 135.784C28.5371 135.502 28.5986 135.21 28.7605 134.974C28.9224 134.738 29.1714 134.576 29.4528 134.523L119.843 117.717C119.983 117.673 120.131 117.662 120.276 117.684C120.422 117.706 120.56 117.76 120.681 117.844C120.803 117.927 120.903 118.037 120.976 118.165C121.049 118.293 121.091 118.435 121.101 118.582C121.154 118.864 121.092 119.155 120.93 119.392C120.768 119.628 120.519 119.79 120.238 119.843Z" fill="#407BFF"/>
<path d="M121.303 125.582L30.9132 142.389C30.6319 142.441 30.3412 142.379 30.1052 142.217C29.8691 142.054 29.7071 141.805 29.6547 141.523C29.6277 141.245 29.6994 140.966 29.8572 140.735C30.0151 140.505 30.2491 140.337 30.5179 140.263L120.908 123.456C121.189 123.404 121.48 123.465 121.716 123.628C121.952 123.79 122.114 124.04 122.166 124.322C122.21 124.462 122.221 124.611 122.2 124.756C122.178 124.902 122.123 125.041 122.04 125.162C121.957 125.283 121.847 125.384 121.72 125.457C121.592 125.53 121.45 125.572 121.303 125.582Z" fill="#407BFF"/>
<path d="M101.751 20.4538L90.9297 22.4658L93.6216 36.9434L104.443 34.9313L101.751 20.4538Z" fill="#407BFF"/>
<path d="M19.6675 48.2546C23.0073 47.6336 25.2103 44.4176 24.5881 41.0713C23.9659 37.7251 20.7541 35.5159 17.4144 36.1368C14.0746 36.7578 11.8716 39.9739 12.4938 43.3201C13.1159 46.6664 16.3277 48.8756 19.6675 48.2546Z" fill="#407BFF"/>
<path d="M22.2137 97.3776C22.2766 97.7159 22.4711 98.0154 22.7543 98.2102C23.0375 98.405 23.3863 98.4792 23.724 98.4164C24.0616 98.3537 24.3605 98.1591 24.5547 97.8755C24.749 97.5918 24.8228 97.2425 24.7599 96.9042C24.697 96.5659 24.5026 96.2664 24.2193 96.0716C23.9361 95.8767 23.5873 95.8026 23.2497 95.8653C22.912 95.9281 22.6132 96.1227 22.4189 96.4063C22.2246 96.6899 22.1508 97.0393 22.2137 97.3776Z" fill="#407BFF"/>
<path d="M23.3036 103.224C23.3665 103.562 23.5609 103.862 23.8442 104.056C24.1274 104.251 24.4762 104.325 24.8138 104.263C25.1515 104.2 25.4503 104.005 25.6446 103.722C25.8389 103.438 25.9127 103.089 25.8498 102.75C25.7869 102.412 25.5924 102.113 25.3092 101.918C25.0259 101.723 24.6771 101.649 24.3395 101.712C24.0019 101.774 23.703 101.969 23.5088 102.253C23.3145 102.536 23.2407 102.886 23.3036 103.224Z" fill="#407BFF"/>
<path d="M24.3934 109.07C24.4563 109.409 24.6508 109.708 24.934 109.903C25.2172 110.098 25.566 110.172 25.9037 110.109C26.2413 110.047 26.5402 109.852 26.7344 109.568C26.9287 109.285 27.0025 108.935 26.9396 108.597C26.8767 108.259 26.6822 107.959 26.399 107.764C26.1158 107.57 25.767 107.495 25.4293 107.558C25.0917 107.621 24.7929 107.816 24.5986 108.099C24.4043 108.383 24.3305 108.732 24.3934 109.07Z" fill="#407BFF"/>
<path d="M25.4559 114.811C25.5188 115.149 25.7133 115.448 25.9965 115.643C26.2797 115.838 26.6285 115.912 26.9662 115.85C27.3038 115.787 27.6027 115.592 27.7969 115.309C27.9912 115.025 28.065 114.676 28.0021 114.337C27.9392 113.999 27.7447 113.699 27.4615 113.505C27.1783 113.31 26.8295 113.236 26.4918 113.298C26.1542 113.361 25.8554 113.556 25.6611 113.839C25.4668 114.123 25.393 114.472 25.4559 114.811Z" fill="#407BFF"/>
<path d="M41.834 94.8311L28.0421 97.3955C27.7608 97.4478 27.4701 97.386 27.2341 97.2236C26.998 97.0613 26.836 96.8117 26.7836 96.5298C26.7566 96.2515 26.8283 95.9726 26.9861 95.7421C27.144 95.5116 27.378 95.3443 27.6468 95.2695L41.4387 92.7051C41.7201 92.6528 42.0107 92.7146 42.2468 92.877C42.4828 93.0393 42.6448 93.2889 42.6973 93.5708C42.741 93.7114 42.7524 93.86 42.7306 94.0056C42.7087 94.1511 42.6542 94.2897 42.5711 94.4111C42.488 94.5324 42.3785 94.6332 42.2508 94.706C42.1231 94.7787 41.9806 94.8215 41.834 94.8311Z" fill="#407BFF"/>
<path d="M55.8592 98.2707L29.1242 103.242C28.8428 103.294 28.5521 103.232 28.3161 103.07C28.0801 102.907 27.918 102.658 27.8656 102.376C27.8386 102.098 27.9103 101.819 28.0682 101.588C28.2261 101.358 28.46 101.19 28.7289 101.116L55.4639 96.1447C55.7453 96.0924 56.0359 96.1542 56.2719 96.3166C56.508 96.4789 56.67 96.7285 56.7224 97.0104C56.7662 97.151 56.7776 97.2996 56.7557 97.4451C56.7339 97.5907 56.6793 97.7293 56.5962 97.8506C56.5131 97.972 56.4036 98.0728 56.276 98.1456C56.1483 98.2183 56.0058 98.2611 55.8592 98.2707Z" fill="#407BFF"/>
<path d="M41.0327 107.076L30.2114 109.088C29.9336 109.115 29.6551 109.043 29.425 108.885C29.1948 108.726 29.0276 108.492 28.9528 108.222C28.9004 107.941 28.9619 107.649 29.1238 107.413C29.2857 107.177 29.5347 107.015 29.8161 106.962L40.6374 104.95C40.7776 104.906 40.926 104.895 41.0713 104.917C41.2166 104.939 41.355 104.994 41.4762 105.077C41.5973 105.161 41.6981 105.27 41.7708 105.398C41.8435 105.526 41.8863 105.669 41.8959 105.816C41.9484 106.098 41.8869 106.389 41.725 106.625C41.5631 106.862 41.314 107.024 41.0327 107.076Z" fill="#407BFF"/>
<path d="M53.7717 110.647L31.2804 114.829C30.999 114.881 30.7084 114.819 30.4723 114.657C30.2363 114.494 30.0743 114.245 30.0219 113.963C29.9948 113.685 30.0666 113.406 30.2244 113.175C30.3823 112.945 30.6162 112.777 30.8851 112.703L53.3765 108.521C53.6578 108.468 53.9485 108.53 54.1845 108.693C54.4205 108.855 54.5826 109.104 54.635 109.386C54.6788 109.527 54.6902 109.676 54.6683 109.821C54.6465 109.967 54.5919 110.105 54.5088 110.227C54.4257 110.348 54.3162 110.449 54.1885 110.522C54.0609 110.594 53.9183 110.637 53.7717 110.647Z" fill="#407BFF"/>
<path opacity="0.5" d="M138.384 136.591L120.342 162.93L116.211 140.714L138.384 136.591Z" fill="#407BFF"/>
<path opacity="0.2" d="M101.751 20.4538L93.6176 36.9221L104.439 34.9101L101.751 20.4538Z" fill="black"/>
<path opacity="0.2" d="M21.3888 38.0364L14.3867 39.3384L15.6971 46.3858L22.6991 45.0839L21.3888 38.0364Z" fill="black"/>
<path opacity="0.4" d="M114.713 9.24825L108.453 10.4121L132.129 137.745L138.388 136.581L114.713 9.24825Z" fill="black"/>
<path d="M116.099 33.8436C115.48 33.9586 114.841 33.8227 114.322 33.4655C113.802 33.1083 113.446 32.5592 113.33 31.939L110.919 18.9708C110.804 18.3506 110.939 17.7101 111.295 17.1902C111.652 16.6702 112.199 16.3134 112.818 16.1984C113.12 16.1419 113.43 16.1474 113.73 16.2146C114.029 16.2818 114.312 16.4092 114.561 16.5891C114.81 16.7691 115.02 16.9978 115.178 17.2614C115.336 17.525 115.439 17.818 115.481 18.1226L117.892 31.0908C117.963 31.3901 117.972 31.7005 117.919 32.0034C117.866 32.3062 117.753 32.5951 117.585 32.8525C117.417 33.1099 117.199 33.3305 116.944 33.5008C116.688 33.6712 116.401 33.7878 116.099 33.8436Z" fill="#407BFF"/>
<path opacity="0.4" d="M116.099 33.8436C115.48 33.9586 114.841 33.8227 114.322 33.4655C113.802 33.1083 113.446 32.5592 113.33 31.939L110.919 18.9708C110.804 18.3506 110.939 17.7101 111.295 17.1902C111.652 16.6702 112.199 16.3134 112.818 16.1984C113.12 16.1419 113.43 16.1474 113.73 16.2146C114.029 16.2818 114.312 16.4092 114.561 16.5891C114.81 16.7691 115.02 16.9978 115.178 17.2614C115.336 17.525 115.439 17.818 115.481 18.1226L117.892 31.0908C117.963 31.3901 117.972 31.7005 117.919 32.0034C117.866 32.3062 117.753 32.5951 117.585 32.8525C117.417 33.1099 117.199 33.3305 116.944 33.5008C116.688 33.6712 116.401 33.7878 116.099 33.8436Z" fill="white"/>
<path d="M217.43 198.424C228.789 197.014 236.911 187.113 235.57 176.308C234.229 165.503 223.934 157.887 212.575 159.297C201.216 160.706 193.095 170.608 194.436 181.413C195.776 192.217 206.071 199.833 217.43 198.424Z" fill="#418DF9" stroke="white" stroke-width="10" stroke-miterlimit="10"/>
<path d="M222.723 176.239L216.866 176.965C216.821 176.971 216.775 176.968 216.731 176.957C216.688 176.946 216.647 176.926 216.611 176.9C216.575 176.873 216.545 176.84 216.523 176.803C216.501 176.765 216.486 176.724 216.481 176.681L215.79 171.11C215.736 170.676 215.503 170.281 215.142 170.014C214.78 169.747 214.321 169.629 213.864 169.685C213.407 169.742 212.991 169.969 212.706 170.316C212.421 170.664 212.291 171.103 212.345 171.538L213.036 177.108C213.042 177.151 213.038 177.195 213.026 177.237C213.013 177.279 212.992 177.318 212.964 177.352C212.936 177.387 212.901 177.416 212.861 177.437C212.821 177.459 212.778 177.473 212.732 177.479L206.876 178.205C206.423 178.265 206.01 178.494 205.729 178.84C205.447 179.187 205.319 179.624 205.373 180.055C205.427 180.487 205.657 180.88 206.015 181.147C206.373 181.414 206.829 181.535 207.283 181.482L213.14 180.755C213.231 180.744 213.323 180.768 213.395 180.821C213.467 180.875 213.514 180.953 213.525 181.04L214.216 186.611C214.27 187.046 214.503 187.44 214.864 187.707C215.225 187.974 215.685 188.092 216.142 188.036C216.599 187.979 217.015 187.752 217.3 187.405C217.585 187.057 217.715 186.618 217.661 186.183L216.97 180.613C216.959 180.526 216.985 180.438 217.042 180.369C217.099 180.299 217.182 180.254 217.274 180.242L223.13 179.516C223.584 179.455 223.996 179.227 224.278 178.881C224.559 178.534 224.687 178.097 224.633 177.665C224.58 177.233 224.349 176.841 223.991 176.574C223.634 176.307 223.178 176.186 222.723 176.239Z" fill="white"/>
</svg>
