<svg width="111" height="100" viewBox="0 0 111 100" fill="none" xmlns="http://www.w3.org/2000/svg">
<path d="M55.6328 73.2722C54.0439 73.2722 52.7313 72.7693 51.6948 71.7634C50.6535 70.7576 50.1328 69.5842 50.1328 68.2431V16.9464L36.0161 29.8544C34.9161 30.7484 33.6328 31.2245 32.1661 31.2826C30.6995 31.3363 29.355 30.8043 28.1328 29.6868C27.0328 28.6809 26.5146 27.4784 26.5781 26.0792C26.6368 24.6845 27.155 23.5401 28.1328 22.646L51.0495 1.6915C51.6606 1.13271 52.3646 0.712505 53.1615 0.430876C53.9535 0.153718 54.7773 0.0151367 55.6328 0.0151367C56.4884 0.0151367 57.3146 0.153718 58.1115 0.430876C58.9035 0.712505 59.605 1.13271 60.2161 1.6915L83.1328 22.646C84.2328 23.6518 84.7535 24.8253 84.6948 26.1664C84.6313 27.5075 84.1106 28.6809 83.1328 29.6868C81.9106 30.6926 80.5661 31.2245 79.0995 31.2826C77.6328 31.3363 76.3495 30.8602 75.2495 29.8544L61.1328 16.9464V68.2431C61.1328 69.5842 60.6146 70.7576 59.5781 71.7634C58.5368 72.7693 57.2217 73.2722 55.6328 73.2722ZM13.8328 99.2558C10.1661 99.2558 7.04948 98.0823 4.48281 95.7354C1.91615 93.3885 0.632812 90.5387 0.632812 87.186V74.1104C0.632812 72.6575 1.15348 71.455 2.19481 70.5028C3.23126 69.5551 4.54392 69.0813 6.13281 69.0813C7.7217 69.0813 9.03437 69.5551 10.0708 70.5028C11.1121 71.455 11.6328 72.6575 11.6328 74.1104V87.186C11.6328 87.633 11.8773 88.08 12.3661 88.5271C12.855 88.9741 13.3439 89.1976 13.8328 89.1976H97.4328C97.9217 89.1976 98.4106 88.9741 98.8995 88.5271C99.3884 88.08 99.6328 87.633 99.6328 87.186V74.1104C99.6328 72.6575 100.151 71.455 101.187 70.5028C102.229 69.5551 103.544 69.0813 105.133 69.0813C106.722 69.0813 108.037 69.5551 109.078 70.5028C110.115 71.455 110.633 72.6575 110.633 74.1104V87.186C110.633 90.5387 109.349 93.3885 106.783 95.7354C104.216 98.0823 101.099 99.2558 97.4328 99.2558H13.8328Z" fill="#4378DB"/>
</svg>
