<svg width="35" height="29" viewBox="0 0 35 29" fill="none" xmlns="http://www.w3.org/2000/svg">
<path d="M23.2899 7.14093H13.7514V25.7194H28.893V12.774L23.2899 7.14093Z" fill="#405DB5"/>
<path d="M23.6832 5.9176H15.2059C14.0402 5.9176 13.0865 6.8436 13.0865 7.97539V24.4378C13.0865 25.5696 14.0296 26.4956 15.1953 26.4956H27.9219C29.0875 26.4956 30.0412 25.5696 30.0412 24.4378V12.091L23.6832 5.9176ZM27.9219 24.4378H15.2059V7.97539H22.6235V13.1199H27.9219V24.4378Z" fill="white"/>
<path d="M14.8121 3.86026H5.27363V22.4387H20.4153V9.49337L14.8121 3.86026Z" fill="#405DB5"/>
<path d="M8.84746 17.0415H17.3248V19.0993H8.84746V17.0415ZM8.84746 12.9259H17.3248V14.9837H8.84746V12.9259ZM15.2055 2.63692H6.72813C5.5625 2.63692 4.6088 3.56293 4.6088 4.69472V21.1571C4.6088 22.2889 5.5519 23.2149 6.71753 23.2149H19.4441C20.6098 23.2149 21.5635 22.2889 21.5635 21.1571V8.81032L15.2055 2.63692ZM19.4441 21.1571H6.72813V4.69472H14.1458V9.83921H19.4441V21.1571Z" fill="white"/>
</svg>
