<svg width="115" height="148" viewBox="0 0 115 148" fill="none" xmlns="http://www.w3.org/2000/svg">
<g clip-path="url(#clip0_367_875)">
<rect width="115" height="148" fill="white"/>
<path d="M13.8111 41.4057C13.8728 41.1127 13.9669 40.8229 14.093 40.5513C28.7589 8.98308 65.797 1.08747 90.0452 24.2255C103.315 36.8882 105.98 52.9363 103.623 70.2179C102.751 76.609 101.078 82.9093 99.4848 89.1786C97.5051 96.9691 99.4506 102.259 106.036 106.849V106.849C107.775 108.061 105.63 111.826 103.61 111.183C103.553 111.165 103.496 111.144 103.441 111.12C95.4228 107.616 92.127 97.424 94.3967 87.5554C96.5819 78.0542 98.6159 68.312 98.9025 58.622C99.5654 36.2045 83.257 18.7702 60.6848 16.4295C40.3431 14.3202 20.8057 29.3082 16.5958 50.3703C16.0783 52.9593 16.1872 55.671 15.9673 58.3227C15.4072 65.0757 10.3425 70.6935 4.12198 71.0924V71.0924C1.94474 71.2321 0.827579 66.9326 2.88168 66.1974V66.1974C9.29019 63.9035 10.3307 62.2733 10.9992 55.4172C11.4476 50.8178 12.779 46.3044 13.8111 41.4057Z" fill="black"/>
<path d="M85.4949 13.335C50.5855 -7.57286 7.03398 15.4032 4.8993 55.3893C4.89341 55.4997 4.87985 55.6097 4.85938 55.7194C4.4443 57.9425 -0.0379947 57.626 -0.0409756 55.3645V55.3645C-0.0746366 29.575 21.128 5.18709 47.0443 0.995687C84.9291 -5.13134 116.889 22.7973 115.136 61.1504C114.671 71.334 112.052 81.4391 110.078 91.5127V91.5127C109.629 93.8037 105.139 92.3541 105.438 90.0388C105.442 90.0118 105.445 89.9849 105.449 89.9579C106.846 80.4529 109.328 71.0374 109.915 61.4975C111.17 41.0871 102.677 25.0819 85.4949 13.335Z" fill="black"/>
<path d="M9.05633 75.9154C9.31381 75.8549 9.56557 75.7639 9.80282 75.6471C18.109 71.5551 21.7687 64.9909 21.9468 56.1172C22.3151 37.7548 37.6631 22.5905 56.3032 22.0101C75.0102 21.4277 91.3621 35.4757 93.0072 53.6691C93.9484 64.0778 92.4424 74.2386 89.4771 84.2197C85.188 98.6566 88.4508 107.834 100.701 116.584V116.584C102.391 117.792 100.361 121.239 98.3236 120.832C98.139 120.795 97.9631 120.74 97.7977 120.662C85.7545 115.001 80.063 99.5779 83.575 85.1252C85.7545 76.1563 87.599 66.8901 87.8367 57.7119C88.2767 40.7187 74.2777 27.3321 57.4376 27.3064C41.0301 27.2814 27.5227 40.6591 27.0268 57.4253C26.6292 70.8702 17.0321 81.5317 4.50534 82.1697V82.1697C2.27907 82.2831 1.76994 78.2431 3.78256 77.2847V77.2847C5.29672 76.5638 7.06782 76.3824 9.05633 75.9154Z" fill="black"/>
<path d="M70.6199 43.3086C63.7245 37.799 56.4439 36.6727 48.8955 40.4398C41.5603 44.1004 38.1911 50.3805 38.0012 58.6496C37.5846 76.7888 23.602 91.8627 6.12851 93.1073V93.1073C3.9271 93.264 3.11111 89.0399 5.18443 88.2835C5.28198 88.2479 5.38093 88.2185 5.48141 88.196C24.0367 84.0484 31.9169 74.8164 32.9388 55.6462C33.5837 43.5478 44.7793 33.2805 57.4283 33.1872C70.0151 33.0943 81.7431 43.0833 81.8526 55.4588C81.9295 64.1521 80.8783 73.1349 78.5878 81.5119C73.7325 99.2688 78.3059 114.018 93.2628 124.963C93.2911 124.984 93.3189 125.005 93.3463 125.027C95.1591 126.467 92.665 130.442 90.656 129.29V129.29C75.7159 120.727 68.3593 101.479 72.5906 83.7595C74.511 75.7174 75.895 67.5103 76.9166 59.3027C77.6711 53.241 75.3542 47.8676 70.6199 43.3086Z" fill="black"/>
<path d="M19.7436 95.4058C19.965 95.3374 20.1822 95.2483 20.3876 95.1409C35.4282 87.2754 43.0917 75.0416 43.9424 58.4614C44.383 49.8746 50.2813 43.8509 58.0022 44.1968C65.968 44.5537 71.2165 50.5982 71.1423 59.3301C70.8884 89.1985 49.1989 116.778 19.8535 124.335C18.3352 124.726 15.3983 124.344 14.9953 123.464C13.6547 120.536 16.3905 120.015 18.4508 119.386C39.7279 112.894 54.8746 99.6499 62.271 78.4854C64.3742 72.4671 65.2034 65.9001 65.8515 59.5071C66.4526 53.5768 62.8735 49.802 57.7574 49.7281C52.6125 49.6538 49.3823 53.1614 49.0552 59.1775C47.839 81.5464 33.333 98.9616 12.029 103.613C10.8925 103.861 9.65158 104.358 8.60416 104.115V104.115C6.39569 103.603 5.77631 99.862 7.90335 99.0775V99.0775C11.666 97.6898 15.5732 96.6943 19.7436 95.4058Z" fill="black"/>
<path d="M61.5373 103.498C61.88 103.079 62.2965 102.711 62.7996 102.512C65.5058 101.441 66.2876 103.433 66.7748 105.447C69.5567 116.945 76.1055 125.795 85.4191 132.876V132.876C87.1811 134.215 84.6121 137.84 82.5854 136.95C82.464 136.897 82.348 136.835 82.2383 136.764C74.4991 131.732 69.2082 124.758 65.1964 116.488C63.8914 113.798 60.2178 113.148 58.0784 115.236C50.3992 122.734 41.6662 128.395 31.6736 132.199C29.6696 132.962 27.6316 133.751 25.5378 134.103C24.745 134.237 23.2231 133.337 22.9909 132.605C22.7427 131.822 23.3858 130.439 24.0754 129.76C24.8537 128.994 26.087 128.638 27.174 128.247C40.8954 123.309 52.1435 114.976 61.5373 103.498Z" fill="black"/>
<path d="M36.9396 104.229C36.6818 104.432 36.3968 104.602 36.0964 104.735C28.4011 108.138 21.0221 111.459 13.4861 114.373C13.3777 114.415 13.2635 114.442 13.1442 114.455C10.981 114.697 10.0444 110.17 12.1594 109.656V109.656C23.2354 106.964 33.0464 102.22 40.8828 93.6719C49.6796 84.076 54.1141 72.7838 55.0623 59.9007V59.9007C55.2309 57.6103 60.0596 57.6464 59.9792 59.9416V59.9416C59.339 78.2078 51.4355 92.7818 36.9396 104.229Z" fill="black"/>
<path d="M48.0255 130.584C48.2007 130.492 48.3688 130.385 48.5277 130.267C51.7903 127.834 54.6555 125.38 57.8778 123.558C59.0156 122.914 61.7236 123.322 62.6249 124.277C67.1595 129.083 71.4191 134.16 75.563 139.313V139.313C76.9071 140.984 74.1462 144.135 72.2819 143.075C72.1674 143.01 72.0629 142.934 71.97 142.846C68.2983 139.37 64.8525 135.654 61.4739 132.067C60.2243 130.74 58.2336 130.439 56.645 131.332C50.9073 134.561 44.9732 137.959 38.893 141.072V141.072C36.8416 142.122 34.9331 137.929 36.8011 136.58C36.8666 136.532 36.9335 136.487 37.0018 136.444C40.4239 134.301 44.1451 132.635 48.0255 130.584Z" fill="black"/>
<path d="M62.3203 141.961C62.7875 142.47 63.1696 143.175 63.2156 143.864V143.864C63.3297 145.577 61.611 146.693 59.9806 146.156C59.276 145.924 58.5436 145.683 57.7661 145.427C56.7092 145.079 55.5788 145.226 54.6334 145.813C53.8876 146.276 53.005 146.756 52.0618 146.977C51.9314 147.008 51.7974 147.024 51.6605 147.027C49.714 147.074 48.0827 143.915 49.5918 142.685V142.685C51.5056 141.124 53.6716 139.817 55.8766 138.682C59.4073 136.863 60.4752 139.951 62.3203 141.961Z" fill="black"/>
</g>
<defs>
<clipPath id="clip0_367_875">
<rect width="115" height="148" fill="white"/>
</clipPath>
</defs>
</svg>
