<svg width="116" height="148" viewBox="0 0 116 148" fill="none" xmlns="http://www.w3.org/2000/svg">
<path d="M14.3941 42.1636C14.4558 41.8705 14.5499 41.5807 14.676 41.3091C29.3419 9.7409 66.38 1.84528 90.6282 24.9833C103.898 37.646 106.563 53.6941 104.206 70.9758C103.335 77.3668 101.661 83.6671 100.068 89.9364C98.0881 97.727 100.034 103.017 106.619 107.607V107.607C108.358 108.819 106.213 112.584 104.193 111.941C104.136 111.923 104.079 111.902 104.024 111.877C96.0058 108.374 92.71 98.1818 94.9797 88.3132C97.1649 78.812 99.1989 69.0698 99.4855 59.3798C100.148 36.9623 83.8401 19.528 61.2679 17.1874C40.9261 15.078 21.3887 30.066 17.1788 51.1281C16.6613 53.7171 16.7702 56.4288 16.5503 59.0805C15.9902 65.8336 10.9255 71.4513 4.70499 71.8502V71.8502C2.52775 71.9899 1.41059 67.6904 3.46469 66.9552V66.9552C9.8732 64.6613 10.9137 63.0311 11.5822 56.175C12.0306 51.5756 13.362 47.0622 14.3941 42.1636Z" fill="black"/>
<path d="M86.0779 14.0928C51.1685 -6.81504 7.61698 16.161 5.48231 56.1471C5.47641 56.2576 5.46285 56.3675 5.44238 56.4772C5.02731 58.7003 0.545013 58.3838 0.542032 56.1223V56.1223C0.508371 30.3328 21.711 5.9449 47.6273 1.7535C85.5121 -4.37353 117.472 23.5551 115.719 61.9083C115.254 72.0918 112.635 82.1969 110.661 92.2706V92.2706C110.212 94.5615 105.722 93.1119 106.021 90.7967C106.025 90.7696 106.028 90.7427 106.032 90.7157C107.429 81.2107 109.911 71.7952 110.498 62.2553C111.753 41.8449 103.26 25.8397 86.0779 14.0928Z" fill="black"/>
<path d="M9.63934 76.6732C9.89682 76.6127 10.1486 76.5218 10.3858 76.4049C18.692 72.3129 22.3517 65.7487 22.5298 56.875C22.8981 38.5126 38.2461 23.3483 56.8862 22.768C75.5932 22.1855 91.9451 36.2335 93.5902 54.4269C94.5314 64.8356 93.0254 74.9964 90.0601 84.9775C85.771 99.4145 89.0338 108.592 101.284 117.342V117.342C102.974 118.55 100.944 121.996 98.9066 121.589C98.7221 121.552 98.5461 121.497 98.3807 121.42C86.3375 115.759 80.646 100.336 84.1581 85.883C86.3376 76.9141 88.182 67.6479 88.4197 58.4697C88.8597 41.4765 74.8607 28.0899 58.0206 28.0642C41.6131 28.0392 28.1057 41.4169 27.6098 58.1831C27.2122 71.628 17.6151 82.2895 5.08835 82.9275V82.9275C2.86208 83.0409 2.35294 79.0009 4.36557 78.0426V78.0426C5.87972 77.3216 7.65082 77.1402 9.63934 76.6732Z" fill="black"/>
<path d="M71.2029 44.0664C64.3076 38.5568 57.0269 37.4305 49.4785 41.1976C42.1433 44.8582 38.7741 51.1384 38.5842 59.4074C38.1676 77.5466 24.185 92.6205 6.71152 93.8651V93.8651C4.51011 94.0218 3.69412 89.7977 5.76744 89.0413C5.86499 89.0057 5.96393 88.9763 6.06442 88.9539C24.6197 84.8063 32.4999 75.5742 33.5218 56.404C34.1667 44.3056 45.3623 34.0383 58.0113 33.945C70.5981 33.8521 82.3261 43.8411 82.4356 56.2166C82.5125 64.91 81.4613 73.8927 79.1708 82.2697C74.3155 100.027 78.8889 114.776 93.8459 125.721C93.8741 125.742 93.9019 125.763 93.9293 125.785C95.7421 127.225 93.248 131.199 91.239 130.048V130.048C76.2989 121.485 68.9424 102.236 73.1736 84.5173C75.094 76.4752 76.4781 68.2681 77.4996 60.0605C78.2541 53.9988 75.9373 48.6254 71.2029 44.0664Z" fill="black"/>
<path d="M20.3266 96.1636C20.548 96.0952 20.7652 96.0061 20.9706 95.8987C36.0112 88.0332 43.6747 75.7994 44.5254 59.2192C44.966 50.6325 50.8643 44.6087 58.5852 44.9546C66.5511 45.3115 71.7995 51.356 71.7253 60.0879C71.4714 89.9563 49.7819 117.536 20.4365 125.093C18.9182 125.484 15.9814 125.102 15.5783 124.222C14.2377 121.294 16.9735 120.773 19.0338 120.144C40.3109 113.651 55.4576 100.408 62.854 79.2432C64.9572 73.2249 65.7864 66.6579 66.4345 60.2649C67.0356 54.3346 63.4565 50.5598 58.3404 50.486C53.1956 50.4116 49.9653 53.9193 49.6382 59.9353C48.422 82.3042 33.916 99.7195 12.612 104.37C11.4755 104.618 10.2346 105.116 9.18716 104.873V104.873C6.9787 104.361 6.35932 100.62 8.48636 99.8354V99.8354C12.249 98.4476 16.1562 97.4521 20.3266 96.1636Z" fill="black"/>
<path d="M62.1203 104.256C62.463 103.837 62.8795 103.469 63.3826 103.27C66.0888 102.199 66.8706 104.191 67.3579 106.205C70.1397 117.703 76.6885 126.552 86.0021 133.634V133.634C87.7641 134.973 85.1951 138.597 83.1684 137.708C83.047 137.654 82.931 137.593 82.8213 137.521C75.0821 132.49 69.7912 125.516 65.7795 117.246C64.4744 114.556 60.8008 113.906 58.6614 115.994C50.9822 123.492 42.2492 129.153 32.2566 132.957C30.2526 133.72 28.2146 134.509 26.1208 134.861C25.328 134.994 23.8061 134.095 23.5739 133.362C23.3257 132.58 23.9688 131.197 24.6584 130.518C25.4367 129.752 26.67 129.396 27.7571 129.005C41.4784 124.067 52.7266 115.734 62.1203 104.256Z" fill="black"/>
<path d="M37.5226 104.986C37.2648 105.19 36.9798 105.36 36.6794 105.493C28.9841 108.896 21.6051 112.216 14.0691 115.131C13.9607 115.173 13.8465 115.199 13.7272 115.213C11.564 115.454 10.6274 110.928 12.7424 110.414V110.414C23.8184 107.721 33.6295 102.978 41.4658 94.4297C50.2626 84.8338 54.6971 73.5416 55.6453 60.6585V60.6585C55.8139 58.3681 60.6426 58.4043 60.5622 60.6994V60.6994C59.922 78.9656 52.0185 93.5396 37.5226 104.986Z" fill="black"/>
<path d="M48.6085 131.342C48.7837 131.249 48.9518 131.143 49.1107 131.025C52.3733 128.591 55.2385 126.138 58.4608 124.316C59.5986 123.672 62.3066 124.08 63.2079 125.035C67.7425 129.841 72.0021 134.918 76.146 140.071V140.071C77.4901 141.742 74.7292 144.893 72.8649 143.833C72.7504 143.768 72.6459 143.692 72.553 143.604C68.8813 140.128 65.4355 136.412 62.0569 132.825C60.8073 131.498 58.8166 131.196 57.2281 132.09C51.4903 135.319 45.5562 138.717 39.476 141.83V141.83C37.4247 142.88 35.5161 138.687 37.3841 137.337C37.4496 137.29 37.5165 137.245 37.5848 137.202C41.0069 135.059 44.7281 133.393 48.6085 131.342Z" fill="black"/>
<path d="M62.9033 142.719C63.3705 143.228 63.7526 143.933 63.7986 144.622V144.622C63.9127 146.335 62.1941 147.451 60.5636 146.914C59.8591 146.682 59.1266 146.441 58.3492 146.185C57.2922 145.836 56.1618 145.984 55.2164 146.571C54.4706 147.034 53.588 147.513 52.6448 147.735C52.5144 147.766 52.3804 147.782 52.2436 147.785C50.297 147.831 48.6657 144.673 50.1748 143.443V143.443C52.0887 141.882 54.2546 140.575 56.4596 139.44C59.9903 137.621 61.0582 140.709 62.9033 142.719Z" fill="black"/>
</svg>
