<svg width="26" height="26" viewBox="0 0 26 26" fill="none" xmlns="http://www.w3.org/2000/svg">
<circle cx="13.3306" cy="12.7163" r="12.438" fill="white"/>
<path d="M13.696 10.1577C13.4983 10.3701 13.1619 10.3701 12.9641 10.1577L9.74326 6.69827C9.15965 6.07143 8.16675 6.07143 7.58314 6.69827C7.05562 7.26488 7.05561 8.14281 7.58314 8.70942L10.9966 12.3757C11.1753 12.5677 11.1753 12.8651 10.9966 13.0571L7.58314 16.7234C7.05561 17.29 7.05562 18.168 7.58314 18.7346C8.16675 19.3614 9.15965 19.3614 9.74326 18.7346L12.9641 15.2751C13.1619 15.0627 13.4983 15.0627 13.696 15.2751L16.9169 18.7346C17.5005 19.3614 18.4934 19.3614 19.077 18.7346C19.6045 18.168 19.6045 17.29 19.077 16.7234L15.6636 13.0571C15.4848 12.8651 15.4848 12.5677 15.6636 12.3757L19.077 8.70942C19.6045 8.14282 19.6045 7.26488 19.077 6.69827C18.4934 6.07143 17.5005 6.07143 16.9169 6.69827L13.696 10.1577Z" fill="#0072BC" stroke="#0072BC"/>
</svg>
