<svg width="117" height="148" viewBox="0 0 117 148" fill="none" xmlns="http://www.w3.org/2000/svg">
<path d="M14.8111 41.7095C14.8728 41.4164 14.9669 41.1266 15.093 40.855C29.7589 9.28679 66.797 1.39118 91.0452 24.5292C104.315 37.1919 106.98 53.24 104.623 70.5217C103.751 76.9127 102.078 83.213 100.485 89.4823C98.5051 97.2729 100.451 102.563 107.036 107.153V107.153C108.775 108.365 106.63 112.129 104.61 111.487C104.553 111.468 104.496 111.447 104.441 111.423C96.4228 107.92 93.127 97.7277 95.3967 87.8591C97.5819 78.3579 99.6159 68.6157 99.9025 58.9257C100.565 36.5082 84.257 19.0739 61.6848 16.7332C41.3431 14.6239 21.8057 29.6119 17.5958 50.674C17.0783 53.263 17.1872 55.9747 16.9673 58.6264C16.4072 65.3795 11.3425 70.9972 5.12198 71.3961V71.3961C2.94474 71.5358 1.82758 67.2363 3.88168 66.5011V66.5011C10.2902 64.2072 11.3307 62.577 11.9992 55.7209C12.4476 51.1215 13.779 46.6081 14.8111 41.7095Z" fill="#0072BC"/>
<path d="M86.4949 13.6387C51.5855 -7.26915 8.03398 15.7069 5.8993 55.693C5.89341 55.8034 5.87985 55.9134 5.85938 56.0231C5.4443 58.2462 0.962005 57.9297 0.959024 55.6682V55.6682C0.925363 29.8787 22.128 5.4908 48.0443 1.2994C85.9291 -4.82763 117.889 23.101 116.136 61.4542C115.671 71.6377 113.052 81.7428 111.078 91.8165V91.8165C110.629 94.1074 106.139 92.6578 106.438 90.3426C106.442 90.3155 106.445 90.2886 106.449 90.2616C107.846 80.7566 110.328 71.3411 110.915 61.8012C112.17 41.3908 103.677 25.3856 86.4949 13.6387Z" fill="#0072BC"/>
<path d="M10.0563 76.2191C10.3138 76.1586 10.5656 76.0677 10.8028 75.9508C19.109 71.8588 22.7687 65.2946 22.9468 56.4209C23.3151 38.0585 38.6631 22.8942 57.3032 22.3139C76.0102 21.7314 92.3621 35.7794 94.0072 53.9728C94.9484 64.3815 93.4424 74.5423 90.4771 84.5234C86.188 98.9604 89.4508 108.138 101.701 116.888V116.888C103.391 118.096 101.361 121.542 99.3236 121.135C99.139 121.098 98.9631 121.043 98.7977 120.965C86.7545 115.305 81.063 99.8816 84.575 85.4289C86.7545 76.46 88.599 67.1938 88.8367 58.0156C89.2767 41.0224 75.2777 27.6358 58.4376 27.6101C42.0301 27.5851 28.5227 40.9628 28.0268 57.729C27.6292 71.1739 18.0321 81.8354 5.50534 82.4734V82.4734C3.27907 82.5868 2.76994 78.5468 4.78256 77.5885V77.5885C6.29672 76.8675 8.06782 76.6861 10.0563 76.2191Z" fill="#0072BC"/>
<path d="M71.6199 43.6123C64.7245 38.1027 57.4439 36.9764 49.8955 40.7435C42.5603 44.4041 39.1911 50.6843 39.0012 58.9533C38.5846 77.0925 24.602 92.1664 7.12851 93.411V93.411C4.9271 93.5677 4.11111 89.3436 6.18443 88.5872C6.28198 88.5516 6.38093 88.5222 6.48141 88.4998C25.0367 84.3522 32.9169 75.1201 33.9388 55.9499C34.5837 43.8515 45.7793 33.5842 58.4283 33.4909C71.0151 33.398 82.7431 43.387 82.8526 55.7625C82.9295 64.4559 81.8783 73.4386 79.5878 81.8156C74.7325 99.5725 79.3059 114.322 94.2628 125.267C94.2911 125.287 94.3189 125.309 94.3463 125.33C96.1591 126.771 93.665 130.745 91.656 129.594V129.594C76.7159 121.031 69.3593 101.782 73.5906 84.0632C75.511 76.0211 76.895 67.814 77.9166 59.6064C78.6711 53.5447 76.3542 48.1713 71.6199 43.6123Z" fill="#0072BC"/>
<path d="M20.7436 95.7095C20.965 95.6411 21.1822 95.552 21.3876 95.4446C36.4282 87.5791 44.0917 75.3453 44.9424 58.7651C45.383 50.1784 51.2813 44.1546 59.0022 44.5005C66.968 44.8574 72.2165 50.9019 72.1423 59.6338C71.8884 89.5022 50.1989 117.082 20.8535 124.639C19.3352 125.03 16.3983 124.648 15.9953 123.767C14.6547 120.84 17.3905 120.319 19.4508 119.69C40.7279 113.197 55.8746 99.9536 63.271 78.7891C65.3742 72.7708 66.2034 66.2038 66.8515 59.8108C67.4526 53.8805 63.8735 50.1057 58.7574 50.0319C53.6125 49.9575 50.3823 53.4652 50.0552 59.4812C48.839 81.8501 34.333 99.2654 13.029 103.916C11.8925 104.164 10.6516 104.662 9.60416 104.419V104.419C7.39569 103.906 6.77631 100.166 8.90335 99.3812V99.3812C12.666 97.9935 16.5732 96.998 20.7436 95.7095Z" fill="#0072BC"/>
<path d="M62.5373 103.802C62.88 103.383 63.2965 103.015 63.7996 102.816C66.5058 101.745 67.2876 103.737 67.7748 105.751C70.5567 117.248 77.1055 126.098 86.4191 133.179V133.179C88.1811 134.519 85.6121 138.143 83.5854 137.254C83.464 137.2 83.348 137.139 83.2383 137.067C75.4991 132.036 70.2082 125.061 66.1964 116.792C64.8914 114.102 61.2178 113.451 59.0784 115.54C51.3992 123.038 42.6662 128.699 32.6736 132.503C30.6696 133.266 28.6316 134.055 26.5378 134.407C25.745 134.54 24.2231 133.641 23.9909 132.908C23.7427 132.125 24.3858 130.742 25.0754 130.064C25.8537 129.298 27.087 128.942 28.174 128.551C41.8954 123.613 53.1435 115.28 62.5373 103.802Z" fill="#0072BC"/>
<path d="M37.9396 104.532C37.6818 104.736 37.3968 104.906 37.0964 105.039C29.4011 108.442 22.0221 111.762 14.4861 114.677C14.3777 114.719 14.2635 114.745 14.1442 114.759C11.981 115 11.0444 110.474 13.1594 109.96V109.96C24.2354 107.267 34.0464 102.524 41.8828 93.9756C50.6796 84.3797 55.1141 73.0875 56.0623 60.2044V60.2044C56.2309 57.914 61.0596 57.9502 60.9792 60.2453V60.2453C60.339 78.5115 52.4355 93.0855 37.9396 104.532Z" fill="#0072BC"/>
<path d="M49.0255 130.888C49.2007 130.795 49.3688 130.689 49.5277 130.571C52.7903 128.137 55.6555 125.684 58.8778 123.862C60.0156 123.218 62.7236 123.626 63.6249 124.581C68.1595 129.387 72.4191 134.464 76.563 139.617V139.617C77.9071 141.288 75.1462 144.439 73.2819 143.379C73.1674 143.314 73.0629 143.238 72.97 143.15C69.2983 139.673 65.8525 135.958 62.4739 132.371C61.2243 131.044 59.2336 130.742 57.645 131.636C51.9073 134.865 45.9732 138.263 39.893 141.376V141.376C37.8416 142.426 35.9331 138.233 37.8011 136.883C37.8666 136.836 37.9335 136.791 38.0018 136.748C41.4239 134.605 45.1451 132.939 49.0255 130.888Z" fill="#0072BC"/>
<path d="M63.3203 142.265C63.7875 142.774 64.1696 143.478 64.2156 144.168V144.168C64.3297 145.88 62.611 146.997 60.9806 146.46C60.276 146.228 59.5436 145.986 58.7661 145.73C57.7092 145.382 56.5788 145.53 55.6334 146.117C54.8876 146.58 54.005 147.059 53.0618 147.281C52.9314 147.312 52.7974 147.328 52.6605 147.331C50.714 147.377 49.0827 144.219 50.5918 142.989V142.989C52.5056 141.428 54.6716 140.121 56.8766 138.986C60.4073 137.167 61.4752 140.255 63.3203 142.265Z" fill="#0072BC"/>
</svg>
