<svg width="29" height="25" viewBox="0 0 29 25" fill="none" xmlns="http://www.w3.org/2000/svg">
<path d="M19.4538 6.0918H11.4395V22.1683H24.1615V10.9663L19.4538 6.0918Z" fill="#019BFF"/>
<path d="M19.7842 5.0332H12.6615C11.6822 5.0332 10.8809 5.83451 10.8809 6.81388V21.0593C10.8809 22.0387 11.6733 22.84 12.6526 22.84H23.3456C24.325 22.84 25.1263 22.0387 25.1263 21.0593V10.3752L19.7842 5.0332ZM23.3456 21.0593H12.6615V6.81388H18.8939V11.2656H23.3456V21.0593Z" fill="white"/>
<path d="M12.3307 3.25293H4.31641V19.3294H17.0385V8.12743L12.3307 3.25293Z" fill="#019BFF"/>
<path d="M7.31916 14.6591H14.4419V16.4397H7.31916V14.6591ZM7.31916 11.0977H14.4419V12.8784H7.31916V11.0977ZM12.6612 2.19434H5.53849C4.55912 2.19434 3.75781 2.99564 3.75781 3.97501V18.2204C3.75781 19.1998 4.55021 20.0011 5.52958 20.0011H16.2225C17.2019 20.0011 18.0032 19.1998 18.0032 18.2204V7.53636L12.6612 2.19434ZM16.2225 18.2204H5.53849V3.97501H11.7709V8.4267H16.2225V18.2204Z" fill="white"/>
</svg>
