<svg width="117" height="148" viewBox="0 0 117 148" fill="none" xmlns="http://www.w3.org/2000/svg">
<path d="M14.8111 41.4057C14.8728 41.1127 14.9669 40.8229 15.093 40.5513C29.7589 8.98308 66.797 1.08747 91.0452 24.2255C104.315 36.8882 106.98 52.9363 104.623 70.2179C103.751 76.609 102.078 82.9093 100.485 89.1786C98.5051 96.9691 100.451 102.259 107.036 106.849V106.849C108.775 108.061 106.63 111.826 104.61 111.183C104.553 111.165 104.496 111.144 104.441 111.12C96.4228 107.616 93.127 97.424 95.3967 87.5554C97.5819 78.0542 99.6159 68.312 99.9025 58.622C100.565 36.2045 84.257 18.7702 61.6848 16.4295C41.3431 14.3202 21.8057 29.3082 17.5958 50.3703C17.0783 52.9593 17.1872 55.671 16.9673 58.3227C16.4072 65.0757 11.3425 70.6935 5.12198 71.0924V71.0924C2.94474 71.2321 1.82758 66.9326 3.88168 66.1974V66.1974C10.2902 63.9035 11.3307 62.2733 11.9992 55.4172C12.4476 50.8178 13.779 46.3044 14.8111 41.4057Z" fill="#F1F1F1"/>
<path d="M86.4949 13.335C51.5855 -7.57286 8.03398 15.4032 5.8993 55.3893C5.89341 55.4997 5.87985 55.6097 5.85938 55.7194C5.4443 57.9425 0.962005 57.626 0.959024 55.3645V55.3645C0.925363 29.575 22.128 5.18709 48.0443 0.995687C85.9291 -5.13134 117.889 22.7973 116.136 61.1504C115.671 71.334 113.052 81.4391 111.078 91.5127V91.5127C110.629 93.8037 106.139 92.3541 106.438 90.0388C106.442 90.0118 106.445 89.9849 106.449 89.9579C107.846 80.4529 110.328 71.0374 110.915 61.4975C112.17 41.0871 103.677 25.0819 86.4949 13.335Z" fill="#F0F0F0"/>
<path d="M10.0563 75.9154C10.3138 75.8549 10.5656 75.7639 10.8028 75.6471C19.109 71.5551 22.7687 64.9909 22.9468 56.1172C23.3151 37.7548 38.6631 22.5905 57.3032 22.0101C76.0102 21.4277 92.3621 35.4757 94.0072 53.6691C94.9484 64.0778 93.4424 74.2386 90.4771 84.2197C86.188 98.6566 89.4508 107.834 101.701 116.584V116.584C103.391 117.792 101.361 121.239 99.3236 120.832C99.139 120.795 98.9631 120.74 98.7977 120.662C86.7545 115.001 81.063 99.5779 84.575 85.1252C86.7545 76.1563 88.599 66.8901 88.8367 57.7119C89.2767 40.7187 75.2777 27.3321 58.4376 27.3064C42.0301 27.2814 28.5227 40.6591 28.0268 57.4253C27.6292 70.8702 18.0321 81.5317 5.50534 82.1697V82.1697C3.27907 82.2831 2.76994 78.2431 4.78256 77.2847V77.2847C6.29672 76.5638 8.06782 76.3824 10.0563 75.9154Z" fill="#EFEFEF"/>
<path d="M71.6199 43.3086C64.7245 37.799 57.4439 36.6727 49.8955 40.4398C42.5603 44.1004 39.1911 50.3805 39.0012 58.6496C38.5846 76.7888 24.602 91.8627 7.12851 93.1073V93.1073C4.9271 93.264 4.11111 89.0399 6.18443 88.2835C6.28198 88.2479 6.38093 88.2185 6.48141 88.196C25.0367 84.0484 32.9169 74.8164 33.9388 55.6462C34.5837 43.5478 45.7793 33.2805 58.4283 33.1872C71.0151 33.0943 82.7431 43.0833 82.8526 55.4588C82.9295 64.1521 81.8783 73.1349 79.5878 81.5119C74.7325 99.2688 79.3059 114.018 94.2628 124.963C94.2911 124.984 94.3189 125.005 94.3463 125.027C96.1591 126.467 93.665 130.442 91.656 129.29V129.29C76.7159 120.727 69.3593 101.479 73.5906 83.7595C75.511 75.7174 76.895 67.5103 77.9166 59.3027C78.6711 53.241 76.3542 47.8676 71.6199 43.3086Z" fill="#F0F0F0"/>
<path d="M20.7436 95.4058C20.965 95.3374 21.1822 95.2483 21.3876 95.1409C36.4282 87.2754 44.0917 75.0416 44.9424 58.4614C45.383 49.8746 51.2813 43.8509 59.0022 44.1968C66.968 44.5537 72.2165 50.5982 72.1423 59.3301C71.8884 89.1985 50.1989 116.778 20.8535 124.335C19.3352 124.726 16.3983 124.344 15.9953 123.464C14.6547 120.536 17.3905 120.015 19.4508 119.386C40.7279 112.894 55.8746 99.6499 63.271 78.4854C65.3742 72.4671 66.2034 65.9001 66.8515 59.5071C67.4526 53.5768 63.8735 49.802 58.7574 49.7281C53.6125 49.6538 50.3823 53.1614 50.0552 59.1775C48.839 81.5464 34.333 98.9616 13.029 103.613C11.8925 103.861 10.6516 104.358 9.60416 104.115V104.115C7.39569 103.603 6.77631 99.862 8.90335 99.0775V99.0775C12.666 97.6898 16.5732 96.6943 20.7436 95.4058Z" fill="#EFEFEF"/>
<path d="M62.5373 103.498C62.88 103.079 63.2965 102.711 63.7996 102.512C66.5058 101.441 67.2876 103.433 67.7748 105.447C70.5567 116.945 77.1055 125.795 86.4191 132.876V132.876C88.1811 134.215 85.6121 137.84 83.5854 136.95C83.464 136.897 83.348 136.835 83.2383 136.764C75.4991 131.732 70.2082 124.758 66.1964 116.488C64.8914 113.798 61.2178 113.148 59.0784 115.236C51.3992 122.734 42.6662 128.395 32.6736 132.199C30.6696 132.962 28.6316 133.751 26.5378 134.103C25.745 134.237 24.2231 133.337 23.9909 132.605C23.7427 131.822 24.3858 130.439 25.0754 129.76C25.8537 128.994 27.087 128.638 28.174 128.247C41.8954 123.309 53.1435 114.976 62.5373 103.498Z" fill="#EDEDED"/>
<path d="M37.9396 104.229C37.6818 104.432 37.3968 104.602 37.0964 104.735C29.4011 108.138 22.0221 111.459 14.4861 114.373C14.3777 114.415 14.2635 114.442 14.1442 114.455C11.981 114.697 11.0444 110.17 13.1594 109.656V109.656C24.2354 106.964 34.0464 102.22 41.8828 93.6719C50.6796 84.076 55.1141 72.7838 56.0623 59.9007V59.9007C56.2309 57.6103 61.0596 57.6464 60.9792 59.9416V59.9416C60.339 78.2078 52.4355 92.7818 37.9396 104.229Z" fill="#F0F0F0"/>
<path d="M49.0255 130.584C49.2007 130.492 49.3688 130.385 49.5277 130.267C52.7903 127.834 55.6555 125.38 58.8778 123.558C60.0156 122.914 62.7236 123.322 63.6249 124.277C68.1595 129.083 72.4191 134.16 76.563 139.313V139.313C77.9071 140.984 75.1462 144.135 73.2819 143.075C73.1674 143.01 73.0629 142.934 72.97 142.846C69.2983 139.37 65.8525 135.654 62.4739 132.067C61.2243 130.74 59.2336 130.439 57.645 131.332C51.9073 134.561 45.9732 137.959 39.893 141.072V141.072C37.8416 142.122 35.9331 137.929 37.8011 136.58C37.8666 136.532 37.9335 136.487 38.0018 136.444C41.4239 134.301 45.1451 132.635 49.0255 130.584Z" fill="#ECECEC"/>
<path d="M63.3203 141.961C63.7875 142.47 64.1696 143.175 64.2156 143.864V143.864C64.3297 145.577 62.611 146.693 60.9806 146.156C60.276 145.924 59.5436 145.683 58.7661 145.427C57.7092 145.079 56.5788 145.226 55.6334 145.813C54.8876 146.276 54.005 146.756 53.0618 146.977C52.9314 147.008 52.7974 147.024 52.6605 147.027C50.714 147.074 49.0827 143.915 50.5918 142.685V142.685C52.5056 141.124 54.6716 139.817 56.8766 138.682C60.4073 136.863 61.4752 139.951 63.3203 141.961Z" fill="#ECECEC"/>
</svg>
