<svg width="40" height="54" viewBox="0 0 40 54" fill="none" xmlns="http://www.w3.org/2000/svg">
<path d="M4.75217 15.1636C4.81165 14.8797 4.89806 14.5984 5.01966 14.335C10.1857 3.14732 22.9132 0.399998 31.2671 8.69223C35.873 13.2641 36.7978 19.0584 35.9797 25.298C35.6772 27.6055 35.0963 29.8803 34.5434 32.1438C33.8563 34.9566 34.5315 36.8666 36.8172 38.5238C37.4373 38.9734 36.6387 40.3685 35.9323 40.0726C35.9271 40.0704 35.9218 40.0681 35.9167 40.0657C33.1336 38.8008 31.9896 35.1209 32.7774 31.5578C33.5359 28.1273 34.2418 24.6098 34.3413 21.1112C34.5714 13.0173 28.911 6.72257 21.0766 5.87748C14.0163 5.1159 7.2352 10.5274 5.77401 18.1319C5.5944 19.0667 5.6322 20.0458 5.55588 21.0032C5.36149 23.4414 3.60362 25.4697 1.44457 25.6137C0.66661 25.6656 0.283398 24.1184 1.01408 23.8463C3.23837 23.0182 3.59952 22.4295 3.83154 19.9541C3.97928 18.3778 4.40314 16.8295 4.75217 15.1636Z" fill="#405DB5"/>
<path d="M29.6881 4.76016C17.5716 -2.78869 2.45561 5.50691 1.7147 19.9441C1.7128 19.9811 1.7086 20.0181 1.7023 20.0549C1.56852 20.8378 0.0010203 20.7294 1.38918e-05 19.9351C-0.0116693 10.6237 7.34742 1.81834 16.3425 0.305021C29.4917 -1.90717 40.5845 8.17657 39.9761 22.0241C39.8146 25.701 38.9057 29.3494 38.2204 32.9866C38.0699 33.7854 36.5215 33.2967 36.6062 32.4882C36.6084 32.4672 36.611 32.4461 36.6139 32.4252C37.0988 28.9933 37.9603 25.5939 38.1639 22.1495C38.5995 14.7802 35.6518 9.00144 29.6881 4.76016Z" fill="#405DB5"/>
<path d="M2.89341 27.4163C3.15961 27.3579 3.41713 27.2625 3.65622 27.1317C6.37042 25.6471 7.57197 23.3209 7.63203 20.207C7.75988 13.5772 13.0869 8.10207 19.5566 7.89254C26.0495 7.68225 31.7249 12.7543 32.2959 19.3231C32.6226 23.0812 32.0999 26.7498 31.0707 30.3535C29.582 35.5661 30.7145 38.8797 34.9661 42.039C35.5685 42.4866 34.8213 43.7536 34.0958 43.5617C34.0482 43.5491 34.0023 43.5325 33.9586 43.5111C29.7786 41.4674 27.8032 35.8987 29.0222 30.6805C29.7786 27.4422 30.4188 24.0966 30.5013 20.7828C30.654 14.6473 25.7952 9.81405 19.9503 9.80478C14.2555 9.79574 9.56736 14.6258 9.39523 20.6793C9.25721 25.5336 5.92622 29.383 1.5784 29.6134C0.78711 29.6553 0.604723 28.2181 1.31064 27.8581C1.31626 27.8553 1.32189 27.8525 1.32754 27.8497C1.78495 27.6231 2.30992 27.5441 2.89341 27.4163Z" fill="#405DB5"/>
<path d="M24.5266 15.5823C22.1333 13.5931 19.6063 13.1864 16.9864 14.5466C14.4405 15.8682 13.2711 18.1357 13.2052 21.1213C13.0606 27.6705 8.20745 33.113 2.14268 33.5624C1.36113 33.6202 1.069 32.1251 1.79454 31.8288C1.83501 31.8122 1.87616 31.7989 1.91809 31.7891C8.35831 30.2916 11.0934 26.9584 11.4481 20.0369C11.6719 15.6687 15.5577 11.9617 19.948 11.928C24.3167 11.8944 28.3872 15.501 28.4252 19.9692C28.4519 23.108 28.0871 26.3513 27.2921 29.3758C25.6069 35.787 27.1943 41.1123 32.3856 45.064C32.4096 45.0823 32.4328 45.1019 32.4552 45.1226C33.0507 45.6735 32.1776 47.0417 31.4808 46.6263C26.2953 43.5346 23.742 36.5848 25.2106 30.1873C25.8771 27.2837 26.3575 24.3205 26.7121 21.3571C26.9739 19.1685 26.1698 17.2284 24.5266 15.5823Z" fill="#405DB5"/>
<path d="M6.64228 34.4642C6.86947 34.3923 7.09049 34.2988 7.29845 34.1825C12.3822 31.339 14.9756 26.9601 15.2669 21.0533C15.4199 17.9531 17.467 15.7782 20.1469 15.9031C22.9117 16.0319 24.7333 18.2143 24.7076 21.367C24.6194 32.1511 17.0914 42.1089 6.90607 44.8374C6.37911 44.9786 5.35977 44.8405 5.21988 44.5227C4.75458 43.4657 5.70413 43.2775 6.41922 43.0505C13.8041 40.7063 19.0613 35.9246 21.6285 28.2831C22.3585 26.1102 22.6463 23.7391 22.8712 21.4309C23.0799 19.2898 21.8376 17.9269 20.0619 17.9002C18.2762 17.8733 17.155 19.1398 17.0415 21.3119C16.6194 29.3883 11.5846 35.6761 4.19031 37.3554C3.79585 37.4449 3.36516 37.6245 3.00162 37.5368C2.21816 37.3477 1.99048 36.0304 2.73692 35.7265C2.74405 35.7236 2.7512 35.7207 2.75838 35.718C3.99624 35.243 5.2792 34.8954 6.64228 34.4642Z" fill="#405DB5"/>
<path d="M21.0408 37.7308C21.3842 37.3081 21.7917 36.8177 22.3353 36.8511C22.8646 36.8836 23.0597 37.4482 23.1921 38.0175C24.1576 42.1688 26.4306 45.364 29.6632 47.9207C30.2894 48.4159 29.3351 49.7438 28.631 49.3677C28.6063 49.3545 28.5824 49.3401 28.5592 49.3245C27.1143 48.3473 25.9153 47.1671 24.899 45.8204C23.0632 43.3877 19.2591 42.6755 16.8012 44.4773C15.0179 45.7846 13.0923 46.8515 11.0091 47.6764C10.3135 47.9518 9.60613 48.2367 8.87943 48.3639C8.60424 48.4121 8.07602 48.0872 7.99544 47.8229C7.90928 47.5402 8.13251 47.0409 8.37184 46.7959C8.64197 46.5194 9.07005 46.3908 9.44734 46.2495C14.0485 44.527 17.8484 41.6603 21.0408 37.7308Z" fill="#405DB5"/>
<path d="M13.0874 37.3673C12.8316 37.5827 12.545 37.759 12.2413 37.8988C9.67838 39.079 7.21146 40.2276 4.69405 41.2404C4.66323 41.2528 4.63103 41.2615 4.5976 41.2669C3.82471 41.3913 3.47464 39.7293 4.23359 39.5374C8.07789 38.5651 11.4831 36.8525 14.203 33.7661C17.2562 30.3015 18.7954 26.2244 19.1245 21.5729C19.1813 20.7695 20.8582 20.7827 20.831 21.5876C20.6126 28.0713 17.9576 33.2666 13.0874 37.3673Z" fill="#405DB5"/>
<path d="M16.5105 47.1884C16.6875 47.0923 16.8562 46.9815 17.0147 46.8571C18.0833 46.0189 19.0373 45.1839 20.1041 44.5564C20.499 44.3241 21.4389 44.4712 21.7517 44.8161C23.3256 46.5513 24.804 48.3844 26.2423 50.2448C26.7153 50.8566 25.6834 52.0264 25.0571 51.5728C25.0351 51.5569 25.0145 51.5396 24.9952 51.5206C24.2307 50.7676 23.4944 49.9835 22.7744 49.197C21.5067 47.8121 19.4597 47.4928 17.8389 48.4405C16.426 49.2667 14.9827 50.0983 13.5148 50.88C12.7987 51.2614 12.1208 49.7951 12.7525 49.2861C12.7867 49.2586 12.8219 49.2328 12.8584 49.2091C13.9949 48.4687 15.2265 47.8861 16.5105 47.1884Z" fill="#405DB5"/>
<path d="M21.6457 51.2026C21.8069 51.385 21.9386 51.6349 21.9545 51.8778C21.9948 52.4978 21.3696 52.8998 20.7818 52.6985C20.5643 52.6239 20.3388 52.5467 20.1014 52.4653C19.7118 52.3318 19.2939 52.3894 18.9467 52.611C18.6943 52.7721 18.3988 52.9352 18.0839 53.0123C18.0506 53.0205 18.0167 53.0257 17.9823 53.0284C17.2804 53.0827 16.6896 51.9178 17.2265 51.4625C17.8908 50.899 18.6426 50.4272 19.4079 50.0172C20.6341 49.3602 21.0045 50.4771 21.6457 51.2026Z" fill="#405DB5"/>
</svg>
