<svg width="36" height="24" viewBox="0 0 36 24" fill="none" xmlns="http://www.w3.org/2000/svg">
<path d="M10.9329 10.1258C11.881 10.1258 12.6496 9.26769 12.6496 8.20915C12.6496 7.1506 11.881 6.29248 10.9329 6.29248C9.98482 6.29248 9.21624 7.1506 9.21624 8.20915C9.21624 9.26769 9.98482 10.1258 10.9329 10.1258Z" fill="#405DB5"/>
<path d="M10.9329 14.9175C8.6154 14.9175 5.95454 16.1537 5.78287 16.8437V17.7925H16.083V16.8341C15.9113 16.1537 13.2504 14.9175 10.9329 14.9175Z" fill="#405DB5"/>
<path d="M10.9329 12.0425C12.8299 12.0425 14.3663 10.3271 14.3663 8.20915C14.3663 6.09123 12.8299 4.37581 10.9329 4.37581C9.03599 4.37581 7.49955 6.09123 7.49955 8.20915C7.49955 10.3271 9.03599 12.0425 10.9329 12.0425ZM10.9329 6.29248C11.8771 6.29248 12.6496 7.15498 12.6496 8.20915C12.6496 9.26331 11.8771 10.1258 10.9329 10.1258C9.98875 10.1258 9.21624 9.26331 9.21624 8.20915C9.21624 7.15498 9.98875 6.29248 10.9329 6.29248ZM10.9329 13.0008C8.64115 13.0008 4.06618 14.285 4.06618 16.8341V19.7091H17.7997V16.8341C17.7997 14.285 13.2247 13.0008 10.9329 13.0008ZM16.083 17.7925H5.78287V16.8437C5.95454 16.1537 8.6154 14.9175 10.9329 14.9175C13.2504 14.9175 15.9113 16.1537 16.083 16.8341V17.7925Z" fill="#405DB5"/>
<path d="M25.5462 10.1258C26.4943 10.1258 27.2629 9.26769 27.2629 8.20915C27.2629 7.1506 26.4943 6.29248 25.5462 6.29248C24.5981 6.29248 23.8295 7.1506 23.8295 8.20915C23.8295 9.26769 24.5981 10.1258 25.5462 10.1258Z" fill="#405DB5"/>
<path d="M25.5462 14.9175C23.2287 14.9175 20.5678 16.1537 20.3961 16.8437V17.7925H30.6963V16.8341C30.5246 16.1537 27.8637 14.9175 25.5462 14.9175Z" fill="#405DB5"/>
<path d="M25.5462 12.0425C27.4431 12.0425 28.9796 10.3271 28.9796 8.20915C28.9796 6.09123 27.4431 4.37581 25.5462 4.37581C23.6493 4.37581 22.1128 6.09123 22.1128 8.20915C22.1128 10.3271 23.6493 12.0425 25.5462 12.0425ZM25.5462 6.29248C26.4904 6.29248 27.2629 7.15498 27.2629 8.20915C27.2629 9.26331 26.4904 10.1258 25.5462 10.1258C24.602 10.1258 23.8295 9.26331 23.8295 8.20915C23.8295 7.15498 24.602 6.29248 25.5462 6.29248ZM25.5462 13.0008C23.2544 13.0008 18.6795 14.285 18.6795 16.8341V19.7091H32.4129V16.8341C32.4129 14.285 27.838 13.0008 25.5462 13.0008ZM30.6963 17.7925H20.3961V16.8437C20.5678 16.1537 23.2287 14.9175 25.5462 14.9175C27.8637 14.9175 30.5246 16.1537 30.6963 16.8341V17.7925Z" fill="#405DB5"/>
<path d="M18.2344 10.1258C19.2009 10.1258 19.9844 9.26769 19.9844 8.20915C19.9844 7.1506 19.2009 6.29248 18.2344 6.29248C17.2679 6.29248 16.4844 7.1506 16.4844 8.20915C16.4844 9.26769 17.2679 10.1258 18.2344 10.1258Z" fill="white"/>
<path d="M18.2344 14.9175C15.8719 14.9175 13.1594 16.1537 12.9844 16.8437V17.7925H23.4844V16.8341C23.3094 16.1537 20.5969 14.9175 18.2344 14.9175Z" fill="white"/>
<path d="M18.2344 12.0425C20.1681 12.0425 21.7344 10.3271 21.7344 8.20915C21.7344 6.09123 20.1681 4.37581 18.2344 4.37581C16.3006 4.37581 14.7344 6.09123 14.7344 8.20915C14.7344 10.3271 16.3006 12.0425 18.2344 12.0425ZM18.2344 6.29248C19.1969 6.29248 19.9844 7.15498 19.9844 8.20915C19.9844 9.26331 19.1969 10.1258 18.2344 10.1258C17.2719 10.1258 16.4844 9.26331 16.4844 8.20915C16.4844 7.15498 17.2719 6.29248 18.2344 6.29248ZM18.2344 13.0008C15.8981 13.0008 11.2344 14.285 11.2344 16.8341V19.7091H25.2344V16.8341C25.2344 14.285 20.5706 13.0008 18.2344 13.0008ZM23.4844 17.7925H12.9844V16.8437C13.1594 16.1537 15.8719 14.9175 18.2344 14.9175C20.5969 14.9175 23.3094 16.1537 23.4844 16.8341V17.7925Z" fill="white"/>
<path d="M18.2382 11.6676C19.0246 11.6676 19.662 10.9559 19.662 10.078C19.662 9.20001 19.0246 8.48828 18.2382 8.48828C17.4519 8.48828 16.8144 9.20001 16.8144 10.078C16.8144 10.9559 17.4519 11.6676 18.2382 11.6676Z" fill="#405DB5"/>
<path d="M18.2382 15.6418C16.3161 15.6418 14.1091 16.6672 13.9668 17.2395V18.0264H22.5097V17.2315C22.3673 16.6672 20.1604 15.6418 18.2382 15.6418Z" fill="#405DB5"/>
<path d="M18.2382 13.2573C19.8115 13.2573 21.0858 11.8346 21.0858 10.078C21.0858 8.32136 19.8115 6.8986 18.2382 6.8986C16.6649 6.8986 15.3906 8.32136 15.3906 10.078C15.3906 11.8346 16.6649 13.2573 18.2382 13.2573ZM18.2382 8.48828C19.0213 8.48828 19.662 9.20364 19.662 10.078C19.662 10.9523 19.0213 11.6676 18.2382 11.6676C17.4551 11.6676 16.8144 10.9523 16.8144 10.078C16.8144 9.20364 17.4551 8.48828 18.2382 8.48828ZM18.2382 14.0522C16.3374 14.0522 12.5429 15.1172 12.5429 17.2315V19.616H23.9335V17.2315C23.9335 15.1172 20.139 14.0522 18.2382 14.0522ZM22.5097 18.0264H13.9668V17.2395C14.1091 16.6672 16.3161 15.6418 18.2382 15.6418C20.1604 15.6418 22.3673 16.6672 22.5097 17.2315V18.0264Z" fill="#405DB5"/>
</svg>
