<svg width="36" height="24" viewBox="0 0 36 24" fill="none" xmlns="http://www.w3.org/2000/svg">
<path d="M10.3411 10.4813C11.2892 10.4813 12.0578 9.62316 12.0578 8.56462C12.0578 7.50607 11.2892 6.64795 10.3411 6.64795C9.39303 6.64795 8.62444 7.50607 8.62444 8.56462C8.62444 9.62316 9.39303 10.4813 10.3411 10.4813Z" fill="white"/>
<path d="M10.3411 15.2729C8.0236 15.2729 5.36274 16.5092 5.19107 17.1992V18.1479H15.4912V17.1896C15.3195 16.5092 12.6587 15.2729 10.3411 15.2729Z" fill="white"/>
<path d="M10.3411 12.3979C12.2381 12.3979 13.7745 10.6825 13.7745 8.56462C13.7745 6.4467 12.2381 4.73128 10.3411 4.73128C8.44419 4.73128 6.90776 6.4467 6.90776 8.56462C6.90776 10.6825 8.44419 12.3979 10.3411 12.3979ZM10.3411 6.64795C11.2853 6.64795 12.0578 7.51045 12.0578 8.56462C12.0578 9.61878 11.2853 10.4813 10.3411 10.4813C9.39695 10.4813 8.62444 9.61878 8.62444 8.56462C8.62444 7.51045 9.39695 6.64795 10.3411 6.64795ZM10.3411 13.3563C8.04935 13.3563 3.47439 14.6404 3.47439 17.1896V20.0646H17.2079V17.1896C17.2079 14.6404 12.6329 13.3563 10.3411 13.3563ZM15.4912 18.1479H5.19107V17.1992C5.36274 16.5092 8.0236 15.2729 10.3411 15.2729C12.6587 15.2729 15.3195 16.5092 15.4912 17.1896V18.1479Z" fill="white"/>
<path d="M24.9525 10.4813C25.9006 10.4813 26.6691 9.62316 26.6691 8.56462C26.6691 7.50607 25.9006 6.64795 24.9525 6.64795C24.0044 6.64795 23.2358 7.50607 23.2358 8.56462C23.2358 9.62316 24.0044 10.4813 24.9525 10.4813Z" fill="white"/>
<path d="M24.9525 15.2729C22.6349 15.2729 19.9741 16.5092 19.8024 17.1992V18.1479H30.1025V17.1896C29.9308 16.5092 27.27 15.2729 24.9525 15.2729Z" fill="white"/>
<path d="M24.9525 12.3979C26.8494 12.3979 28.3858 10.6825 28.3858 8.56462C28.3858 6.4467 26.8494 4.73128 24.9525 4.73128C23.0555 4.73128 21.5191 6.4467 21.5191 8.56462C21.5191 10.6825 23.0555 12.3979 24.9525 12.3979ZM24.9525 6.64795C25.8966 6.64795 26.6691 7.51045 26.6691 8.56462C26.6691 9.61878 25.8966 10.4813 24.9525 10.4813C24.0083 10.4813 23.2358 9.61878 23.2358 8.56462C23.2358 7.51045 24.0083 6.64795 24.9525 6.64795ZM24.9525 13.3563C22.6607 13.3563 18.0857 14.6404 18.0857 17.1896V20.0646H31.8192V17.1896C31.8192 14.6404 27.2442 13.3563 24.9525 13.3563ZM30.1025 18.1479H19.8024V17.1992C19.9741 16.5092 22.6349 15.2729 24.9525 15.2729C27.27 15.2729 29.9308 16.5092 30.1025 17.1896V18.1479Z" fill="white"/>
<path d="M17.6406 10.4813C18.6071 10.4813 19.3906 9.62316 19.3906 8.56462C19.3906 7.50607 18.6071 6.64795 17.6406 6.64795C16.6741 6.64795 15.8906 7.50607 15.8906 8.56462C15.8906 9.62316 16.6741 10.4813 17.6406 10.4813Z" fill="#009BFF"/>
<path d="M17.6406 15.2729C15.2781 15.2729 12.5656 16.5092 12.3906 17.1992V18.1479H22.8906V17.1896C22.7156 16.5092 20.0031 15.2729 17.6406 15.2729Z" fill="#009BFF"/>
<path d="M17.6406 12.3979C19.5744 12.3979 21.1406 10.6825 21.1406 8.56462C21.1406 6.4467 19.5744 4.73128 17.6406 4.73128C15.7069 4.73128 14.1406 6.4467 14.1406 8.56462C14.1406 10.6825 15.7069 12.3979 17.6406 12.3979ZM17.6406 6.64795C18.6031 6.64795 19.3906 7.51045 19.3906 8.56462C19.3906 9.61878 18.6031 10.4813 17.6406 10.4813C16.6781 10.4813 15.8906 9.61878 15.8906 8.56462C15.8906 7.51045 16.6781 6.64795 17.6406 6.64795ZM17.6406 13.3563C15.3044 13.3563 10.6406 14.6404 10.6406 17.1896V20.0646H24.6406V17.1896C24.6406 14.6404 19.9769 13.3563 17.6406 13.3563ZM22.8906 18.1479H12.3906V17.1992C12.5656 16.5092 15.2781 15.2729 17.6406 15.2729C20.0031 15.2729 22.7156 16.5092 22.8906 17.1896V18.1479Z" fill="#019AFE"/>
<path d="M17.6425 12.0231C18.4289 12.0231 19.0663 11.3114 19.0663 10.4334C19.0663 9.55547 18.4289 8.84375 17.6425 8.84375C16.8562 8.84375 16.2187 9.55547 16.2187 10.4334C16.2187 11.3114 16.8562 12.0231 17.6425 12.0231Z" fill="white"/>
<path d="M17.6425 15.9973C15.7204 15.9973 13.5134 17.0227 13.3711 17.5949V18.3818H21.914V17.587C21.7716 17.0227 19.5647 15.9973 17.6425 15.9973Z" fill="white"/>
<path d="M17.6425 13.6128C19.2158 13.6128 20.4901 12.19 20.4901 10.4334C20.4901 8.67683 19.2158 7.25407 17.6425 7.25407C16.0692 7.25407 14.7949 8.67683 14.7949 10.4334C14.7949 12.19 16.0692 13.6128 17.6425 13.6128ZM17.6425 8.84375C18.4256 8.84375 19.0663 9.55911 19.0663 10.4334C19.0663 11.3078 18.4256 12.0231 17.6425 12.0231C16.8594 12.0231 16.2187 11.3078 16.2187 10.4334C16.2187 9.55911 16.8594 8.84375 17.6425 8.84375ZM17.6425 14.4076C15.7417 14.4076 11.9472 15.4727 11.9472 17.587V19.9715H23.3378V17.587C23.3378 15.4727 19.5433 14.4076 17.6425 14.4076ZM21.914 18.3818H13.3711V17.5949C13.5134 17.0227 15.7204 15.9973 17.6425 15.9973C19.5647 15.9973 21.7716 17.0227 21.914 17.587V18.3818Z" fill="white"/>
</svg>
