<svg width="28" height="25" viewBox="0 0 28 25" fill="none" xmlns="http://www.w3.org/2000/svg">
<path d="M24.2689 13.3754L25.8019 19.0968L20.0806 17.5637L24.2689 13.3754Z" fill="white"/>
<path d="M25.4588 9.76454C25.4588 14.6525 21.4963 18.615 16.6083 18.615C11.7203 18.615 7.75781 14.6525 7.75781 9.76454C7.75781 4.87656 11.7203 0.914062 16.6083 0.914062C21.4963 0.914062 25.4588 4.87656 25.4588 9.76454Z" fill="white"/>
<path d="M14.943 6.71981L15.0065 6.75151C15.2628 6.88363 15.4715 7.09236 15.6036 7.34866L15.6353 7.41207C15.7621 7.66309 16.1215 7.66309 16.251 7.41207L16.2827 7.34866C16.4148 7.09236 16.6235 6.88363 16.8798 6.75151L16.9432 6.71981C17.1942 6.59298 17.1942 6.23363 16.9432 6.10416L16.8798 6.07246C16.6235 5.94034 16.4148 5.7316 16.2827 5.47531L16.251 5.41189C16.1241 5.16088 15.7648 5.16088 15.6353 5.41189L15.6036 5.47531C15.4715 5.7316 15.2628 5.94034 15.0065 6.07246L14.943 6.10416C14.692 6.23099 14.692 6.59034 14.943 6.71981Z" fill="#0194F4"/>
<path d="M15.4424 9.19559C15.7014 9.06348 15.7014 8.69621 15.4424 8.5641L15.0567 8.36593C14.7132 8.1889 14.4331 7.90882 14.2561 7.56533L14.0579 7.17956C13.9258 6.92062 13.5585 6.92062 13.4264 7.17956L13.2282 7.56533C13.0512 7.90882 12.7711 8.1889 12.4276 8.36593L12.0419 8.5641C11.7829 8.69621 11.7829 9.06348 12.0419 9.19559L12.4276 9.39376C12.7711 9.57079 13.0512 9.85087 13.2282 10.1944L13.4264 10.5801C13.5585 10.8391 13.9258 10.8391 14.0579 10.5801L14.2561 10.1944C14.4331 9.85087 14.7132 9.57079 15.0567 9.39376L15.4424 9.19559Z" fill="#0194F4"/>
<path d="M20.3993 10.7757L20.0082 10.5748C19.5353 10.3344 19.1574 9.95656 18.917 9.4836L18.7162 9.09254C18.5392 8.74377 18.1851 8.5271 17.794 8.5271C17.403 8.5271 17.0489 8.74377 16.8719 9.09254L16.6711 9.4836C16.4306 9.95656 16.0528 10.3344 15.5798 10.5748L15.1888 10.7757C14.84 10.9527 14.6233 11.3067 14.6233 11.6978C14.6233 12.0889 14.84 12.4429 15.1888 12.6199L15.5798 12.8208C16.0528 13.0612 16.4306 13.439 16.6711 13.912L16.8719 14.3031C17.0489 14.6518 17.403 14.8685 17.794 14.8685C18.1851 14.8685 18.5392 14.6518 18.7162 14.3031L18.917 13.912C19.1574 13.439 19.5353 13.0612 20.0082 12.8208L20.3993 12.6199C20.7481 12.4429 20.9647 12.0889 20.9647 11.6978C20.9647 11.3067 20.7481 10.9527 20.3993 10.7757ZM20.0399 11.9145L19.6489 12.1153C19.0253 12.4323 18.5286 12.9291 18.2115 13.5527L18.0107 13.9437C17.9499 14.0626 17.839 14.0758 17.794 14.0758C17.7491 14.0758 17.6381 14.0626 17.5774 13.9437L17.3766 13.5527C17.0595 12.9291 16.5627 12.4323 15.9392 12.1153L15.5481 11.9145C15.4292 11.8537 15.416 11.7427 15.416 11.6978C15.416 11.6529 15.4292 11.5419 15.5481 11.4811L15.9392 11.2803C16.5627 10.9633 17.0595 10.4665 17.3766 9.84294L17.5774 9.45189C17.6381 9.33299 17.7491 9.31978 17.794 9.31978C17.839 9.31978 17.9499 9.33299 18.0107 9.45189L18.2115 9.84294C18.5286 10.4665 19.0253 10.9633 19.6489 11.2803L20.0399 11.4811C20.1588 11.5419 20.1721 11.6529 20.1721 11.6978C20.1721 11.7427 20.1588 11.8537 20.0399 11.9145Z" fill="#0194F4"/>
<path fill-rule="evenodd" clip-rule="evenodd" d="M26.1233 9.86685C26.1233 4.51499 21.7855 0.17627 16.4343 0.17627C11.0832 0.17627 6.74537 4.51499 6.74537 9.86685C6.74537 15.2187 11.0832 19.5574 16.4343 19.5574C18.0734 19.5574 19.6188 19.1499 20.9733 18.4303L25.4087 19.5393C25.5949 19.5859 25.792 19.5367 25.9346 19.4082C26.0771 19.2796 26.1463 19.0886 26.1192 18.8986L25.3664 13.6278C25.854 12.4707 26.1233 11.1995 26.1233 9.86685ZM16.4343 1.32925C21.1485 1.32925 24.9703 5.15157 24.9703 9.86685C24.9703 11.0952 24.7113 12.2616 24.2454 13.3155C24.2018 13.4142 24.1867 13.5232 24.202 13.63L24.8566 18.2128L21.0344 17.2571C20.8915 17.2214 20.7403 17.2417 20.612 17.3139C19.3776 18.0082 17.9531 18.4044 16.4343 18.4044C11.7201 18.4044 7.89835 14.5821 7.89835 9.86685C7.89835 5.15157 11.7201 1.32925 16.4343 1.32925Z" fill="white"/>
<path d="M1.13913 20.2054C0.804308 19.4479 0.61835 18.6099 0.61835 17.7284C0.61835 14.342 3.36314 11.5967 6.74901 11.5967C10.1349 11.5967 12.8797 14.342 12.8797 17.7284C12.8797 21.1149 10.1349 23.8602 6.74901 23.8602C5.6589 23.8602 4.63525 23.5756 3.74825 23.0767L0.617188 23.8596L1.13913 20.2054Z" fill="white"/>
<path fill-rule="evenodd" clip-rule="evenodd" d="M0.0421853 17.7283C0.0421853 14.0235 3.04498 11.02 6.74934 11.02C10.4537 11.02 13.4565 14.0235 13.4565 17.7283C13.4565 21.433 10.4537 24.4365 6.74934 24.4365C5.64094 24.4365 4.59393 24.1672 3.67165 23.69L0.757357 24.4187C0.571145 24.4653 0.373972 24.4161 0.23143 24.2876C0.0888878 24.159 0.0196748 23.968 0.0468152 23.7779L0.54597 20.2832C0.221131 19.4951 0.0421853 18.6319 0.0421853 17.7283ZM6.74934 12.173C3.68195 12.173 1.19517 14.6601 1.19517 17.7283C1.19517 18.5279 1.36374 19.2867 1.66673 19.9722C1.71037 20.0709 1.72542 20.1799 1.71015 20.2867L1.30944 23.0922L3.60873 22.5173C3.75164 22.4815 3.90281 22.5019 4.0312 22.5741C4.83415 23.0257 5.76078 23.2835 6.74934 23.2835C9.81673 23.2835 12.3035 20.7965 12.3035 17.7283C12.3035 14.6601 9.81673 12.173 6.74934 12.173Z" fill="#019BFE"/>
<path d="M6.21148 18.9488V18.8414C6.21148 18.5444 6.23593 18.3077 6.28485 18.1313C6.33551 17.9548 6.40888 17.8133 6.50496 17.7068C6.60105 17.5984 6.71809 17.4997 6.8561 17.4107C6.96616 17.3408 7.06398 17.27 7.14958 17.1984C7.23693 17.125 7.30594 17.0464 7.3566 16.9626C7.40726 16.8787 7.43259 16.7835 7.43259 16.6769C7.43259 16.5739 7.40813 16.483 7.35922 16.4044C7.3103 16.3258 7.24305 16.2655 7.15745 16.2236C7.07359 16.1799 6.98013 16.1581 6.87706 16.1581C6.77399 16.1581 6.67704 16.1817 6.5862 16.2288C6.4971 16.276 6.42373 16.3433 6.36608 16.4306C6.31018 16.5162 6.28136 16.6202 6.27961 16.7424H5.07422C5.07946 16.3756 5.16419 16.0751 5.3284 15.841C5.49436 15.6069 5.7136 15.434 5.98612 15.3222C6.25864 15.2086 6.55912 15.1519 6.88754 15.1519C7.24741 15.1519 7.5671 15.2078 7.84661 15.3196C8.12787 15.4314 8.34886 15.5965 8.50958 15.8148C8.6703 16.0332 8.75066 16.3005 8.75066 16.6167C8.75066 16.8246 8.71572 17.008 8.64584 17.167C8.57596 17.3259 8.47813 17.4666 8.35235 17.5888C8.22832 17.7094 8.08245 17.8194 7.91474 17.919C7.78372 17.9959 7.67454 18.0762 7.58719 18.1601C7.50159 18.2439 7.43696 18.34 7.39328 18.4483C7.34961 18.5549 7.32777 18.6859 7.32777 18.8414V18.9488H6.21148ZM6.79059 20.6678C6.60192 20.6678 6.44033 20.6014 6.30581 20.4687C6.17304 20.3359 6.10753 20.1752 6.10928 19.9865C6.10753 19.8013 6.17304 19.6432 6.30581 19.5122C6.44033 19.3795 6.60192 19.3131 6.79059 19.3131C6.97052 19.3131 7.12862 19.3795 7.26488 19.5122C7.40114 19.6432 7.47015 19.8013 7.4719 19.9865C7.47015 20.1123 7.43696 20.2267 7.37232 20.3298C7.30943 20.4329 7.22645 20.515 7.12338 20.5761C7.02206 20.6373 6.91113 20.6678 6.79059 20.6678Z" fill="#0194F4"/>
</svg>
