<svg width="23" height="23" viewBox="0 0 23 23" fill="none" xmlns="http://www.w3.org/2000/svg">
<path fill-rule="evenodd" clip-rule="evenodd" d="M0.677722 11.1654C0.677722 5.01769 5.66058 0.0336914 11.8076 0.0336914C17.9546 0.0336914 22.9375 5.01769 22.9375 11.1654C22.9375 17.3131 17.9546 22.2971 11.8076 22.2971C9.96832 22.2971 8.23092 21.8502 6.70047 21.0584L1.86448 22.2676C1.55548 22.3448 1.22829 22.2632 0.991756 22.0499C0.755221 21.8366 0.640368 21.5196 0.685405 21.2043L1.51371 15.4051C0.974666 14.0972 0.677722 12.6649 0.677722 11.1654ZM11.8076 1.94695C6.71757 1.94695 2.59098 6.07403 2.59098 11.1654C2.59098 12.4924 2.87072 13.7514 3.3735 14.8889C3.44592 15.0527 3.47088 15.2336 3.44556 15.4109L2.78062 20.0663L6.59607 19.1123C6.83321 19.053 7.08406 19.0867 7.29711 19.2066C8.62954 19.956 10.1672 20.3838 11.8076 20.3838C16.8976 20.3838 21.0242 16.2568 21.0242 11.1654C21.0242 6.07403 16.8976 1.94695 11.8076 1.94695Z" fill="#405DB5"/>
<path d="M21.9648 11.1099C21.9648 16.7201 17.4169 21.2681 11.8066 21.2681C6.19642 21.2681 1.64844 16.7201 1.64844 11.1099C1.64844 5.49964 6.19642 0.95166 11.8066 0.95166C17.4169 0.95166 21.9648 5.49964 21.9648 11.1099Z" fill="#405DB5"/>
<path d="M1.6337 20.9186L2.88687 15.15L7.25606 19.1196L1.6337 20.9186Z" fill="#405DB5"/>
<path d="M10.4415 14.1046V13.8953C10.4415 13.3169 10.4892 12.8559 10.5844 12.5122C10.6831 12.1686 10.826 11.893 11.0131 11.6855C11.2003 11.4745 11.4282 11.2823 11.697 11.1088C11.9114 10.9727 12.1019 10.8349 12.2686 10.6954C12.4387 10.5525 12.5731 10.3994 12.6718 10.2361C12.7705 10.0727 12.8198 9.88731 12.8198 9.67976C12.8198 9.47902 12.7722 9.30209 12.6769 9.14899C12.5816 8.99588 12.4506 8.8785 12.2839 8.79684C12.1206 8.71178 11.9386 8.66925 11.7378 8.66925C11.5371 8.66925 11.3483 8.71518 11.1713 8.80705C10.9978 8.89891 10.8549 9.0299 10.7426 9.20002C10.6338 9.36674 10.5776 9.56918 10.5742 9.80735H8.22656C8.23677 9.09285 8.40179 8.50764 8.72161 8.05172C9.04484 7.5958 9.47184 7.25896 10.0026 7.04121C10.5334 6.82005 11.1186 6.70947 11.7582 6.70947C12.4591 6.70947 13.0818 6.81835 13.6262 7.0361C14.1739 7.25386 14.6043 7.57538 14.9174 8.00068C15.2304 8.42598 15.3869 8.94654 15.3869 9.56238C15.3869 9.96726 15.3188 10.3245 15.1828 10.6341C15.0467 10.9437 14.8561 11.2176 14.6111 11.4558C14.3696 11.6906 14.0855 11.9049 13.7589 12.0989C13.5037 12.2486 13.291 12.4051 13.1209 12.5684C12.9542 12.7317 12.8283 12.9188 12.7432 13.1298C12.6582 13.3373 12.6156 13.5925 12.6156 13.8953V14.1046H10.4415ZM11.5694 17.4525C11.202 17.4525 10.8872 17.3232 10.6252 17.0646C10.3667 16.8061 10.2391 16.493 10.2425 16.1256C10.2391 15.7649 10.3667 15.457 10.6252 15.2018C10.8872 14.9433 11.202 14.814 11.5694 14.814C11.9199 14.814 12.2278 14.9433 12.4932 15.2018C12.7585 15.457 12.8929 15.7649 12.8963 16.1256C12.8929 16.3706 12.8283 16.5934 12.7024 16.7942C12.5799 16.9949 12.4183 17.1548 12.2176 17.2739C12.0202 17.393 11.8042 17.4525 11.5694 17.4525Z" fill="white"/>
</svg>
