<svg width="17" height="21" viewBox="0 0 17 21" fill="none" xmlns="http://www.w3.org/2000/svg">
<path d="M8.29297 20.022C9.39297 20.022 10.293 19.122 10.293 18.022H6.29297C6.29297 19.122 7.19297 20.022 8.29297 20.022ZM14.293 14.022V9.02197C14.293 5.95197 12.663 3.38197 9.79297 2.70197V2.02197C9.79297 1.19197 9.12297 0.521973 8.29297 0.521973C7.46297 0.521973 6.79297 1.19197 6.79297 2.02197V2.70197C3.93297 3.38197 2.29297 5.94197 2.29297 9.02197V14.022L0.292969 16.022V17.022H16.293V16.022L14.293 14.022ZM12.293 15.022H4.29297V9.02197C4.29297 6.54197 5.80297 4.52197 8.29297 4.52197C10.783 4.52197 12.293 6.54197 12.293 9.02197V15.022Z" fill="#0072BC"/>
<circle cx="8.29297" cy="9.51953" r="5.0332" fill="#0072BC"/>
<rect x="3.25977" y="9.11328" width="10.0664" height="6.62354" fill="#0072BC"/>
</svg>
