<svg width="20" height="22" viewBox="0 0 20 22" fill="none" xmlns="http://www.w3.org/2000/svg">
<path fill-rule="evenodd" clip-rule="evenodd" d="M10.0091 1.25C7.90063 1.25 5.90166 1.75968 4.07845 2.7497L4.07822 2.74982C3.96239 2.81256 3.91473 2.96771 3.97716 3.08752C4.05314 3.21376 4.20511 3.25197 4.3194 3.19055C6.06735 2.22983 7.98873 1.75 10.0091 1.75C12.0423 1.75 13.7414 2.18111 15.6937 3.1878L15.7032 3.19268C15.7033 3.19271 15.7033 3.19278 15.7032 3.19284V3.19284C15.7032 3.19289 15.7032 3.19296 15.7033 3.193C15.7334 3.21019 15.7702 3.22 15.8091 3.22C15.8931 3.22 15.9773 3.17475 16.0255 3.0782L16.0292 3.07093C16.0292 3.07089 16.0292 3.07088 16.0293 3.0709V3.0709C16.0293 3.07092 16.0293 3.0709 16.0294 3.07087C16.0921 2.95489 16.051 2.80815 15.9242 2.74198C13.9169 1.70891 12.096 1.25 10.0091 1.25ZM3.83995 2.31025C5.73671 1.28031 7.81771 0.75 10.0091 0.75C12.1821 0.75 14.0811 1.23101 16.1536 2.29772L16.1545 2.29819C16.5261 2.49146 16.6652 2.94214 16.4709 3.30542C16.3387 3.56667 16.084 3.72 15.8091 3.72C15.69 3.72 15.5689 3.69078 15.4604 3.63003C13.5745 2.65828 11.9545 2.25 10.0091 2.25C8.06983 2.25 6.23145 2.71004 4.55958 3.62908L4.55822 3.62983C4.55822 3.62983 4.55822 3.62983 4.55822 3.62982V3.62982C4.55822 3.62982 4.55822 3.62982 4.55822 3.62982C4.19363 3.82731 3.74779 3.68669 3.5432 3.33597L3.53925 3.32919C3.53923 3.32916 3.53924 3.32912 3.53927 3.3291V3.3291C3.5393 3.32908 3.53931 3.32905 3.5393 3.32902C3.34451 2.96933 3.477 2.50694 3.83995 2.31025ZM3.83995 2.31025V2.31025C3.84002 2.31021 3.84011 2.31023 3.84015 2.31031L3.95915 2.53L3.8399 2.3104C3.83987 2.31035 3.8399 2.31028 3.83995 2.31025V2.31025ZM15.0348 4.87232C11.9569 3.28941 8.02221 3.29909 4.95377 4.88217L4.95332 4.88241C3.49023 5.63346 2.26105 6.70606 1.29391 8.07344C1.21089 8.1935 1.2393 8.34488 1.34995 8.42339C1.39953 8.45589 1.45075 8.47 1.49915 8.47C1.58847 8.47 1.6453 8.43284 1.67209 8.38597L1.67836 8.37498L1.68572 8.36469C2.6079 7.07363 3.77788 6.04676 5.17442 5.32788C8.1065 3.81065 11.8616 3.81092 14.8029 5.31739C16.1895 6.02609 17.3599 7.04298 18.2826 8.33469L18.2844 8.33721C18.2844 8.33722 18.2844 8.33723 18.2844 8.33723V8.33723C18.2844 8.33723 18.2844 8.33724 18.2844 8.33724C18.3626 8.44972 18.5155 8.47886 18.6364 8.39477C18.7506 8.31533 18.7751 8.15447 18.697 8.04704L18.6955 8.04503C17.7286 6.68739 16.4992 5.62402 15.035 4.87241L15.0348 4.87232ZM17.2214 6.12427C15.9208 4.99726 14.5119 3.93702 12.8402 3.52841C10.1404 2.86854 7.17294 3.17471 4.72475 4.43771C3.18826 5.22649 1.89774 6.35354 0.88503 7.78565C0.885029 7.78566 0.885027 7.78566 0.885025 7.78566V7.78566C0.885024 7.78565 0.885021 7.78565 0.88502 7.78566L0.883923 7.78723C0.648014 8.12635 0.718864 8.59346 1.06636 8.83521C1.06637 8.83522 1.06638 8.83523 1.06637 8.83525V8.83525C1.06636 8.83526 1.06636 8.83527 1.06638 8.83528L1.07047 8.83801C1.20023 8.92452 1.34824 8.97 1.49915 8.97C1.72575 8.97 1.96441 8.87076 2.09905 8.64627C2.97577 7.4217 4.08349 6.45173 5.40356 5.77228L5.40405 5.77203C8.19187 4.32938 11.7766 4.3291 14.5752 5.76251L14.5754 5.76261C15.8884 6.43371 16.9977 7.39642 17.8749 8.62417C18.1169 8.97047 18.5833 9.04082 18.9219 8.80523V8.80523M9.95915 6.07C6.8204 6.07 3.96134 7.8291 2.67496 10.5273C2.24288 11.4396 2.01915 12.4922 2.01915 13.66C2.01915 14.979 2.25338 16.2493 2.7333 17.5324L2.73439 17.5353C2.73439 17.5353 2.73438 17.5353 2.73438 17.5353V17.5353C2.73438 17.5353 2.73437 17.5353 2.73437 17.5353C2.77755 17.6552 2.92205 17.7256 3.0494 17.6767L3.05726 17.6736C3.05729 17.6736 3.05734 17.6736 3.05735 17.6737V17.6737C3.05736 17.6737 3.0574 17.6737 3.05744 17.6737C3.17882 17.6317 3.24695 17.4927 3.19581 17.3597L3.19507 17.3578C2.5815 15.7216 2.50915 14.4599 2.50915 13.66C2.50915 12.5885 2.71516 11.6006 3.12373 10.7519C4.33792 8.20973 7.02916 6.58 9.95915 6.58C14.0829 6.58 17.4591 9.73804 17.4591 13.66C17.4591 14.884 16.4008 15.85 15.1291 15.85C13.8575 15.85 12.7991 14.884 12.7991 13.66C12.7991 12.1888 11.542 10.97 9.96915 10.97C8.39629 10.97 7.13915 12.1888 7.13915 13.66C7.13915 15.5732 7.88244 17.3591 9.23466 18.702C10.2914 19.7392 11.2926 20.3088 12.8426 20.7382C12.8573 20.7418 12.872 20.7449 12.8852 20.7472C12.8922 20.7483 12.8979 20.7491 12.9025 20.7495C12.9071 20.75 12.9092 20.75 12.9091 20.75C13.0086 20.75 13.1113 20.6752 13.1349 20.5669L13.1374 20.5551C13.1374 20.555 13.1375 20.5549 13.1376 20.555V20.555C13.1377 20.555 13.1378 20.5549 13.1378 20.5549C13.1734 20.4221 13.0949 20.2853 12.9664 20.252L12.9625 20.251C12.9625 20.251 12.9625 20.251 12.9625 20.251V20.251C12.9625 20.251 12.9625 20.251 12.9625 20.2509C11.5144 19.8504 10.5659 19.31 9.58331 18.3377L9.58311 18.3375C8.32521 17.09 7.63915 15.4259 7.63915 13.65C7.63915 12.426 8.69755 11.46 9.96915 11.46C11.2408 11.46 12.2991 12.426 12.2991 13.65C12.2991 15.1212 13.5563 16.34 15.1291 16.34C16.702 16.34 17.9591 15.1212 17.9591 13.65C17.9591 9.48025 14.3836 6.07 9.95915 6.07ZM2.22348 10.3124C3.59717 7.43077 6.63801 5.57 9.95915 5.57C14.6347 5.57 18.4591 9.17975 18.4591 13.65C18.4591 15.4188 16.9563 16.84 15.1291 16.84C13.302 16.84 11.7991 15.4188 11.7991 13.65C11.7991 12.734 10.9975 11.96 9.96915 11.96C8.94075 11.96 8.13915 12.734 8.13915 13.65C8.13915 15.2941 8.77308 16.83 9.93519 17.9825C10.8521 18.8897 11.7233 19.3892 13.0941 19.7686C13.5021 19.8757 13.7223 20.2942 13.6221 20.6791C13.5434 21.0273 13.2279 21.25 12.9091 21.25C12.8369 21.25 12.762 21.2334 12.7185 21.2225L12.7125 21.221C12.7125 21.221 12.7125 21.221 12.7125 21.221V21.221C12.7125 21.221 12.7125 21.2209 12.7124 21.2209C11.0845 20.7704 10.0064 20.1602 8.88402 19.0584L8.88301 19.0574C7.43563 17.6204 6.63915 15.7065 6.63915 13.66C6.63915 11.8912 8.14201 10.47 9.96915 10.47C11.7963 10.47 13.2991 11.8912 13.2991 13.66C13.2991 14.576 14.1008 15.35 15.1291 15.35C16.1575 15.35 16.9591 14.576 16.9591 13.66C16.9591 10.042 13.8354 7.08 9.95915 7.08C7.20928 7.08 4.70063 8.61011 3.57474 10.9677L3.5744 10.9685C3.20308 11.7397 3.00915 12.6516 3.00915 13.66C3.00915 14.42 3.07677 15.6179 3.66288 17.1813C3.8105 17.5668 3.62042 18.0055 3.22491 18.1449C2.83386 18.2927 2.40151 18.0841 2.2645 17.7063C1.76476 16.3698 1.51915 15.0406 1.51915 13.66C1.51915 12.4279 1.75538 11.3006 2.22321 10.313L2.22348 10.3124ZM9.99915 8.52C7.0056 8.52 4.58915 10.8394 4.58915 13.66C4.58915 15.2338 4.94118 16.6905 5.60718 17.8777L5.60786 17.8789C6.26441 19.0646 6.719 19.6063 7.57593 20.4632L7.5851 20.4724C7.58517 20.4725 7.58517 20.4726 7.5851 20.4726V20.4726C7.58503 20.4727 7.58502 20.4728 7.58508 20.4729C7.62194 20.5138 7.68102 20.54 7.74915 20.54C7.81062 20.54 7.87887 20.5177 7.94385 20.4613C8.03575 20.3583 8.03422 20.205 7.93927 20.1036C7.1607 19.3149 6.7048 18.8068 6.05105 17.6322C5.41683 16.509 5.08915 15.1355 5.08915 13.66C5.08915 11.0881 7.3053 9.02 9.99915 9.02C12.693 9.02 14.9091 11.0881 14.9091 13.66C14.9091 13.8019 15.0172 13.91 15.1591 13.91C15.3011 13.91 15.4091 13.8019 15.4091 13.66C15.4091 10.8394 12.9927 8.52 9.99915 8.52ZM4.08915 13.66C4.08915 10.5406 6.7527 8.02 9.99915 8.02C13.2456 8.02 15.9091 10.5406 15.9091 13.66C15.9091 14.0781 15.5772 14.41 15.1591 14.41C14.7411 14.41 14.4091 14.0781 14.4091 13.66C14.4091 11.3919 12.4453 9.52 9.99915 9.52C7.55299 9.52 5.58915 11.3919 5.58915 13.66C5.58915 15.0642 5.90132 16.3504 6.48683 17.3871L6.4876 17.3884C7.11311 18.5124 7.53697 18.9844 8.29706 19.7544L8.30042 19.7578C8.30043 19.7578 8.30042 19.7578 8.30042 19.7578V19.7578C8.30041 19.7578 8.30041 19.7578 8.30041 19.7578C8.58207 20.0543 8.58206 20.5157 8.3004 20.8122L8.29409 20.8188L8.28732 20.825C8.13441 20.964 7.94543 21.04 7.74915 21.04C7.55953 21.04 7.36105 20.968 7.21824 20.8126C6.33793 19.932 5.85297 19.3536 5.17077 18.1217C4.457 16.849 4.08915 15.3059 4.08915 13.66ZM9.93915 13.41C9.79722 13.41 9.68915 13.5181 9.68915 13.66C9.68915 15.3136 10.5351 16.8776 11.9594 17.8431L11.9606 17.8438C12.773 18.4012 13.7719 18.69 14.9191 18.69C15.0504 18.69 15.5331 18.6804 16.0818 18.5745L16.0852 18.5739C16.0852 18.5739 16.0852 18.5739 16.0852 18.5739V18.5739C16.0852 18.5739 16.0852 18.5739 16.0852 18.5739C16.2319 18.5477 16.3175 18.416 16.2933 18.2855L16.293 18.2839C16.2669 18.1373 16.1351 18.0517 16.0047 18.0758L16.0022 18.0763C15.5892 18.1485 15.1747 18.18 14.9191 18.18C13.8784 18.18 12.9975 17.9398 12.2391 17.4271C10.9531 16.5625 10.1891 15.1563 10.1891 13.66C10.1891 13.5181 10.0811 13.41 9.93915 13.41ZM9.18915 13.66C9.18915 13.2419 9.52108 12.91 9.93915 12.91C10.3572 12.91 10.6891 13.2419 10.6891 13.66C10.6891 14.9835 11.365 16.2371 12.5186 17.0125L12.5192 17.0129C13.1808 17.4602 13.9599 17.68 14.9191 17.68C15.1434 17.68 15.5284 17.6515 15.9149 17.5839C16.324 17.5089 16.7115 17.7831 16.7853 18.1961C16.86 18.6045 16.5867 18.9913 16.1748 19.0658C15.5842 19.1796 15.0677 19.19 14.9191 19.19C13.6866 19.19 12.5857 18.8789 11.6782 18.2565C10.1229 17.2019 9.18915 15.4862 9.18915 13.66Z" fill="#405DB5"/>
</svg>
