<svg width="32" height="23" viewBox="0 0 32 23" fill="none" xmlns="http://www.w3.org/2000/svg">
<rect x="6.82031" y="6.08057" width="15.32" height="15.32" rx="1" fill="white" stroke="white" stroke-width="2"/>
<path d="M7.08447 9.03238L10.7756 13.5137L14.4183 9.29379C17.2514 6.01173 14.9198 0.918945 10.584 0.918945C6.55006 1.19101 4.51394 5.91158 7.08447 9.03238Z" fill="#0191EF" stroke="#0192F0"/>
<path d="M10.7642 7.25998C10.0127 7.25998 9.39783 6.62895 9.39783 5.85769C9.39783 5.08643 10.0127 4.4554 10.7642 4.4554C11.5156 4.4554 12.1305 5.08643 12.1305 5.85769C12.1305 6.62895 11.5156 7.25998 10.7642 7.25998ZM14.8632 5.99792C14.8632 3.45277 13.0528 1.65082 10.7642 1.65082C8.47555 1.65082 6.66516 3.45277 6.66516 5.99792C6.66516 7.6386 7.99734 9.81215 10.7642 12.4064C13.531 9.81215 14.8632 7.6386 14.8632 5.99792ZM10.7642 0.248535C13.6335 0.248535 16.2295 2.50622 16.2295 5.99792C16.2295 8.32572 14.4054 11.0812 10.7642 14.2714C7.12288 11.0812 5.29883 8.32572 5.29883 5.99792C5.29883 2.50622 7.89486 0.248535 10.7642 0.248535Z" fill="white"/>
<path d="M10.8398 13.1196L11.926 14.6208C17.4358 17.8211 14.9314 5.99443 20.469 12.5896" stroke="#018EE9" stroke-dasharray="1 1"/>
<path d="M20.8688 12.7855L29.42 10.8225L25.2392 20.393L20.8688 12.7855Z" fill="#0192F1"/>
</svg>
