<svg width="363" height="296" viewBox="0 0 363 296" fill="none" xmlns="http://www.w3.org/2000/svg">
<path d="M148.213 295.428C229.79 295.428 295.922 229.296 295.922 147.719C295.922 66.1415 229.79 0.00994873 148.213 0.00994873C66.6355 0.00994873 0.503906 66.1415 0.503906 147.719C0.503906 229.296 66.6355 295.428 148.213 295.428Z" fill="url(#paint0_linear_1660_2353)"/>
<g filter="url(#filter0_d_1660_2353)">
<path d="M81.2496 66.9712H347.126C349.737 66.9712 352.242 68.0087 354.089 69.8554C355.936 71.7021 356.973 74.2068 356.973 76.8185V126.055C356.973 128.666 355.936 131.171 354.089 133.018C352.242 134.865 349.737 135.902 347.126 135.902H81.2496C78.638 135.902 76.1333 134.865 74.2865 133.018C72.4398 131.171 71.4023 128.666 71.4023 126.055V76.8185C71.4023 74.2068 72.4398 71.7021 74.2865 69.8554C76.1333 68.0087 78.638 66.9712 81.2496 66.9712V66.9712Z" fill="white"/>
</g>
<path d="M207.298 82.7267H156.092C152.829 82.7267 150.184 85.372 150.184 88.6351C150.184 91.8982 152.829 94.5435 156.092 94.5435H207.298C210.561 94.5435 213.206 91.8982 213.206 88.6351C213.206 85.372 210.561 82.7267 207.298 82.7267Z" fill="#B4DAFF"/>
<path d="M242.748 108.33H156.092C152.829 108.33 150.184 110.975 150.184 114.238C150.184 117.501 152.829 120.146 156.092 120.146H242.748C246.011 120.146 248.656 117.501 248.656 114.238C248.656 110.975 246.011 108.33 242.748 108.33Z" fill="#DEE9FC"/>
<path d="M134.431 101.437C134.431 85.6649 121.645 72.8795 105.873 72.8795C90.1018 72.8795 77.3164 85.6649 77.3164 101.437C77.3164 117.208 90.1018 129.994 105.873 129.994C121.645 129.994 134.431 117.208 134.431 101.437Z" fill="#B4C9FC"/>
<path d="M104.097 110.681C106.542 110.681 108.916 109.863 110.842 108.357L116.898 114.413L118.846 112.465L112.788 106.407C114.31 104.44 115.121 102.014 115.088 99.5266C115.055 97.0391 114.181 94.636 112.607 92.7089C111.034 90.7819 108.854 89.4447 106.423 88.915C103.993 88.3854 101.454 88.6947 99.2216 89.7925C96.9891 90.8903 95.1942 92.7118 94.1295 94.9602C93.0648 97.2087 92.793 99.7514 93.3584 102.174C93.9239 104.597 95.2932 106.757 97.2432 108.301C99.1932 109.846 101.609 110.685 104.097 110.681V110.681ZM104.097 91.3923C105.733 91.3923 107.332 91.8774 108.692 92.7864C110.053 93.6953 111.113 94.9871 111.739 96.4986C112.365 98.01 112.529 99.6732 112.21 101.278C111.89 102.882 111.103 104.356 109.946 105.513C108.789 106.67 107.315 107.458 105.71 107.777C104.106 108.096 102.443 107.932 100.931 107.306C99.4199 106.68 98.128 105.62 97.2191 104.26C96.3102 102.899 95.8251 101.3 95.8251 99.664C95.8251 97.4702 96.6965 95.3663 98.2478 93.815C99.799 92.2638 101.903 91.3923 104.097 91.3923V91.3923Z" fill="white"/>
<g filter="url(#filter1_d_1660_2353)">
<path d="M317.587 155.597H51.7105C46.2721 155.597 41.8633 160.005 41.8633 165.444V214.68C41.8633 220.119 46.2721 224.527 51.7105 224.527H317.587C323.025 224.527 327.434 220.119 327.434 214.68V165.444C327.434 160.005 323.025 155.597 317.587 155.597Z" fill="white"/>
</g>
<path d="M177.755 171.352H126.549C123.286 171.352 120.641 173.997 120.641 177.26C120.641 180.524 123.286 183.169 126.549 183.169H177.755C181.018 183.169 183.663 180.524 183.663 177.26C183.663 173.997 181.018 171.352 177.755 171.352Z" fill="#B4DAFF"/>
<path d="M213.205 196.955H126.549C123.286 196.955 120.641 199.6 120.641 202.863C120.641 206.126 123.286 208.772 126.549 208.772H213.205C216.468 208.772 219.113 206.126 219.113 202.863C219.113 199.6 216.468 196.955 213.205 196.955Z" fill="#DEE9FC"/>
<path d="M104.891 190.062C104.891 174.29 92.106 161.505 76.3344 161.505C60.5628 161.505 47.7773 174.29 47.7773 190.062C47.7773 205.834 60.5628 218.619 76.3344 218.619C92.106 218.619 104.891 205.834 104.891 190.062Z" fill="#B4C9FC"/>
<path d="M74.5577 199.307C77.0025 199.306 79.3769 198.488 81.3031 196.983L87.3592 203.039L89.3069 201.091L83.2489 195.033C84.7709 193.065 85.5816 190.64 85.5488 188.152C85.516 185.664 84.6416 183.261 83.0681 181.334C81.4947 179.407 79.315 178.07 76.8842 177.54C74.4535 177.011 71.915 177.32 69.6825 178.418C67.45 179.516 65.6552 181.337 64.5905 183.586C63.5257 185.834 63.254 188.377 63.8194 190.799C64.3848 193.222 65.7541 195.382 67.7041 196.927C69.6542 198.472 72.0699 199.31 74.5577 199.307V199.307ZM74.5577 180.018C76.1937 180.018 77.7929 180.503 79.1532 181.412C80.5135 182.321 81.5737 183.612 82.1998 185.124C82.8258 186.635 82.9896 188.299 82.6705 189.903C82.3513 191.508 81.5635 192.982 80.4067 194.138C79.2499 195.295 77.776 196.083 76.1714 196.402C74.5669 196.721 72.9037 196.558 71.3923 195.931C69.8808 195.305 68.5889 194.245 67.68 192.885C66.7711 191.525 66.286 189.925 66.286 188.289C66.286 186.096 67.1575 183.992 68.7087 182.44C70.26 180.889 72.3639 180.018 74.5577 180.018V180.018Z" fill="white"/>
<defs>
<filter id="filter0_d_1660_2353" x="65.4023" y="63.9712" width="297.57" height="80.9308" filterUnits="userSpaceOnUse" color-interpolation-filters="sRGB">
<feFlood flood-opacity="0" result="BackgroundImageFix"/>
<feColorMatrix in="SourceAlpha" type="matrix" values="0 0 0 0 0 0 0 0 0 0 0 0 0 0 0 0 0 0 127 0" result="hardAlpha"/>
<feOffset dy="3"/>
<feGaussianBlur stdDeviation="3"/>
<feColorMatrix type="matrix" values="0 0 0 0 0 0 0 0 0 0 0 0 0 0 0 0 0 0 0.161 0"/>
<feBlend mode="normal" in2="BackgroundImageFix" result="effect1_dropShadow_1660_2353"/>
<feBlend mode="normal" in="SourceGraphic" in2="effect1_dropShadow_1660_2353" result="shape"/>
</filter>
<filter id="filter1_d_1660_2353" x="35.8633" y="152.597" width="297.57" height="80.9308" filterUnits="userSpaceOnUse" color-interpolation-filters="sRGB">
<feFlood flood-opacity="0" result="BackgroundImageFix"/>
<feColorMatrix in="SourceAlpha" type="matrix" values="0 0 0 0 0 0 0 0 0 0 0 0 0 0 0 0 0 0 127 0" result="hardAlpha"/>
<feOffset dy="3"/>
<feGaussianBlur stdDeviation="3"/>
<feColorMatrix type="matrix" values="0 0 0 0 0 0 0 0 0 0 0 0 0 0 0 0 0 0 0.161 0"/>
<feBlend mode="normal" in2="BackgroundImageFix" result="effect1_dropShadow_1660_2353"/>
<feBlend mode="normal" in="SourceGraphic" in2="effect1_dropShadow_1660_2353" result="shape"/>
</filter>
<linearGradient id="paint0_linear_1660_2353" x1="148.213" y1="0.00994873" x2="148.213" y2="295.428" gradientUnits="userSpaceOnUse">
<stop stop-color="#87AFFB"/>
<stop offset="1" stop-color="#89B1FC"/>
</linearGradient>
</defs>
</svg>
