<svg width="181" height="213" viewBox="0 0 181 213" fill="none" xmlns="http://www.w3.org/2000/svg">
<rect x="4.5" y="0.5" width="171.442" height="203.335" rx="15.5" fill="#405DB5" stroke="#405DB5"/>
<mask id="mask0_774_8174" style="mask-type:alpha" maskUnits="userSpaceOnUse" x="4" y="0" width="173" height="205">
<rect x="4.5" y="0.5" width="171.442" height="203.335" rx="15.5" fill="#CFCFCF" stroke="#405DB5"/>
</mask>
<g mask="url(#mask0_774_8174)">
<g clip-path="url(#clip0_774_8174)">
<path d="M90.2233 94.9833C101.919 94.9833 111.4 85.2205 111.4 73.1775C111.4 61.1344 101.919 51.3716 90.2233 51.3716C78.5279 51.3716 69.0469 61.1344 69.0469 73.1775C69.0469 85.2205 78.5279 94.9833 90.2233 94.9833Z" fill="white"/>
<path d="M90.2225 149.498C61.6344 149.498 28.811 163.563 26.6934 171.413V182.207H153.752V171.304C151.634 163.563 118.811 149.498 90.2225 149.498Z" fill="white"/>
<path d="M90.2231 116.789C113.623 116.789 132.576 97.2732 132.576 73.1777C132.576 49.0822 113.623 29.5659 90.2231 29.5659C66.8232 29.5659 47.8704 49.0822 47.8704 73.1777C47.8704 97.2732 66.8232 116.789 90.2231 116.789ZM90.2231 51.3718C101.87 51.3718 111.4 61.1844 111.4 73.1777C111.4 85.1709 101.87 94.9836 90.2231 94.9836C78.5761 94.9836 69.0467 85.1709 69.0467 73.1777C69.0467 61.1844 78.5761 51.3718 90.2231 51.3718ZM90.2231 127.692C61.9527 127.692 5.51758 142.302 5.51758 171.304V204.013H174.929V171.304C174.929 142.302 118.494 127.692 90.2231 127.692ZM153.752 182.207H26.694V171.413C28.8116 163.563 61.635 149.498 90.2231 149.498C118.811 149.498 151.635 163.563 153.752 171.304V182.207Z" fill="white"/>
</g>
<rect x="-36.3359" y="-13.5459" width="253.117" height="260.671" stroke="#405DB5"/>
<rect x="4.50391" y="0.500488" width="171.442" height="203.335" rx="15.5" stroke="#405DB5"/>
</g>
<defs>
<clipPath id="clip0_774_8174">
<rect x="-36.8359" y="-14.0459" width="254.117" height="261.671" fill="white"/>
</clipPath>
</defs>
</svg>
