<svg width="83" height="99" viewBox="0 0 83 99" fill="none" xmlns="http://www.w3.org/2000/svg">
<rect x="0.791016" y="1.54102" width="80.7211" height="95.9277" rx="15.25" fill="#0072BC" stroke="#0072BC" stroke-width="1.5"/>
<mask id="mask0_6_516" style="mask-type:alpha" maskUnits="userSpaceOnUse" x="0" y="0" width="83" height="99">
<rect x="0.791016" y="1.54102" width="80.7211" height="95.9277" rx="15.25" fill="#CFCFCF" stroke="#0072BC" stroke-width="1.5"/>
</mask>
<g mask="url(#mask0_6_516)">
<g clip-path="url(#clip0_6_516)">
<path d="M41.1517 46.0795C46.7281 46.0795 51.2487 41.4245 51.2487 35.6823C51.2487 29.9401 46.7281 25.2852 41.1517 25.2852C35.5753 25.2852 31.0547 29.9401 31.0547 35.6823C31.0547 41.4245 35.5753 46.0795 41.1517 46.0795Z" fill="white"/>
<path d="M41.1523 72.0723C27.5214 72.0723 11.871 78.7784 10.8613 82.5214V87.668H71.4434V82.4694C70.4337 78.7784 54.7833 72.0723 41.1523 72.0723Z" fill="white"/>
<path d="M41.1517 56.4763C52.3089 56.4763 61.3457 47.1709 61.3457 35.682C61.3457 24.1931 52.3089 14.8877 41.1517 14.8877C29.9945 14.8877 20.9577 24.1931 20.9577 35.682C20.9577 47.1709 29.9945 56.4763 41.1517 56.4763ZM41.1517 25.2848C46.7051 25.2848 51.2487 29.9636 51.2487 35.682C51.2487 41.4004 46.7051 46.0792 41.1517 46.0792C35.5983 46.0792 31.0547 41.4004 31.0547 35.682C31.0547 29.9636 35.5983 25.2848 41.1517 25.2848ZM41.1517 61.6749C27.6722 61.6749 0.763672 68.641 0.763672 82.4692V98.0649H81.5397V82.4692C81.5397 68.641 54.6312 61.6749 41.1517 61.6749ZM71.4427 87.6678H10.8607V82.5212C11.8704 78.7782 27.5207 72.072 41.1517 72.072C54.7827 72.072 70.433 78.7782 71.4427 82.4692V87.6678Z" fill="white"/>
</g>
<rect x="0.792969" y="1.54102" width="80.7211" height="95.9277" rx="15.25" stroke="#0072BC" stroke-width="1.5"/>
</g>
<defs>
<clipPath id="clip0_6_516">
<rect width="121.164" height="124.766" fill="white" transform="translate(-19.4297 -5.90625)"/>
</clipPath>
</defs>
</svg>
