<svg width="37" height="36" viewBox="0 0 37 36" fill="none" xmlns="http://www.w3.org/2000/svg">
<path d="M0.265625 20.5721L0.265625 31.6562H11.3497L11.3341 26.1299L5.80768 26.1142L5.79202 20.5878L0.265625 20.5721ZM20.4925 0.345218L20.5082 5.87161L26.0346 5.88727L26.0503 11.4137L31.5767 11.4293L31.5767 0.345215L20.4925 0.345218ZM0.265625 11.4293L5.79202 11.4137L5.80768 5.88727L11.3341 5.87161L11.3497 0.345215L0.265625 0.345215L0.265625 11.4293Z" fill="white"/>
<path d="M19.5034 19.583C21.482 17.6044 21.482 14.3965 19.5034 12.418C17.5248 10.4394 14.3169 10.4394 12.3384 12.418C10.3598 14.3965 10.3598 17.6044 12.3384 19.583C14.3169 21.5616 17.5248 21.5616 19.5034 19.583Z" fill="white"/>
<path d="M28.9772 28.6802C30.7064 28.6802 32.1022 27.2843 32.1022 25.5552V19.3052C32.1022 17.576 30.7064 16.1802 28.9772 16.1802C27.248 16.1802 25.8522 17.576 25.8522 19.3052V25.5552C25.8522 27.2843 27.248 28.6802 28.9772 28.6802ZM27.9355 19.3052C27.9355 18.7323 28.4043 18.2635 28.9772 18.2635C29.5501 18.2635 30.0189 18.7323 30.0189 19.3052V25.5552C30.0189 26.1281 29.5501 26.5968 28.9772 26.5968C28.4043 26.5968 27.9355 26.1281 27.9355 25.5552V19.3052ZM34.1855 25.5552C34.1855 28.4302 31.8522 30.7635 28.9772 30.7635C26.1022 30.7635 23.7689 28.4302 23.7689 25.5552H21.6855C21.6855 29.2323 24.4043 32.2531 27.9355 32.7635V35.9718H30.0189V32.7635C33.5501 32.2531 36.2689 29.2323 36.2689 25.5552H34.1855Z" fill="white"/>
</svg>
