<svg width="17" height="21" viewBox="0 0 17 21" fill="none" xmlns="http://www.w3.org/2000/svg">
<path d="M8.29297 20.0107C9.39297 20.0107 10.293 19.1107 10.293 18.0107H6.29297C6.29297 19.1107 7.19297 20.0107 8.29297 20.0107ZM14.293 14.0107V9.01074C14.293 5.94074 12.663 3.37074 9.79297 2.69074V2.01074C9.79297 1.18074 9.12297 0.510742 8.29297 0.510742C7.46297 0.510742 6.79297 1.18074 6.79297 2.01074V2.69074C3.93297 3.37074 2.29297 5.93074 2.29297 9.01074V14.0107L0.292969 16.0107V17.0107H16.293V16.0107L14.293 14.0107ZM12.293 15.0107H4.29297V9.01074C4.29297 6.53074 5.80297 4.51074 8.29297 4.51074C10.783 4.51074 12.293 6.53074 12.293 9.01074V15.0107Z" fill="#0072BC"/>
</svg>
