<svg width="17" height="20" viewBox="0 0 17 20" fill="none" xmlns="http://www.w3.org/2000/svg">
<path d="M8.85547 19.645C9.95547 19.645 10.8555 18.745 10.8555 17.645H6.85547C6.85547 18.745 7.75547 19.645 8.85547 19.645ZM14.8555 13.645V8.64502C14.8555 5.57502 13.2255 3.00502 10.3555 2.32502V1.64502C10.3555 0.81502 9.68547 0.14502 8.85547 0.14502C8.02547 0.14502 7.35547 0.81502 7.35547 1.64502V2.32502C4.49547 3.00502 2.85547 5.56502 2.85547 8.64502V13.645L0.855469 15.645V16.645H16.8555V15.645L14.8555 13.645ZM12.8555 14.645H4.85547V8.64502C4.85547 6.16502 6.36547 4.14502 8.85547 4.14502C11.3455 4.14502 12.8555 6.16502 12.8555 8.64502V14.645Z" fill="#405DB5"/>
</svg>
