<svg width="17" height="21" viewBox="0 0 17 21" fill="none" xmlns="http://www.w3.org/2000/svg">
<path d="M8.29297 20.2983C9.39297 20.2983 10.293 19.3983 10.293 18.2983H6.29297C6.29297 19.3983 7.19297 20.2983 8.29297 20.2983ZM14.293 14.2983V9.29834C14.293 6.22834 12.663 3.65834 9.79297 2.97834V2.29834C9.79297 1.46834 9.12297 0.79834 8.29297 0.79834C7.46297 0.79834 6.79297 1.46834 6.79297 2.29834V2.97834C3.93297 3.65834 2.29297 6.21834 2.29297 9.29834V14.2983L0.292969 16.2983V17.2983H16.293V16.2983L14.293 14.2983ZM12.293 15.2983H4.29297V9.29834C4.29297 6.81834 5.80297 4.79834 8.29297 4.79834C8.95262 4.79834 10.0557 5.19464 10.0557 5.19464C10.0557 5.19464 10.0557 4.73897 10.3927 4.23351C10.8034 3.61764 11.1366 3.47659 11.1366 3.47659C11.1366 3.47659 11.8472 3.72322 13.3041 5.52735C14.3833 7.29557 14.293 9.29834 14.293 9.29834C14.293 9.29834 13.8154 9.36872 13.311 9.36872C12.8968 9.36872 12.293 9.23041 12.293 9.23041V15.2983Z" fill="#0072BC"/>
<path d="M16.2935 6.00659C16.2935 7.65172 14.9598 8.98535 13.3147 8.98535C11.6696 8.98535 10.3359 7.65172 10.3359 6.00659C10.3359 4.36147 11.6696 3.02783 13.3147 3.02783C14.9598 3.02783 16.2935 4.36147 16.2935 6.00659Z" fill="#EB5757"/>
</svg>
