<svg width="66" height="65" viewBox="0 0 66 65" fill="none" xmlns="http://www.w3.org/2000/svg">
<path d="M33.2109 47.5194C32.272 47.5194 31.4964 47.1944 30.8839 46.5444C30.2686 45.8944 29.9609 45.1361 29.9609 44.2694V11.1194L21.6193 19.4611C20.9693 20.0388 20.2109 20.3465 19.3443 20.3841C18.4776 20.4187 17.6832 20.075 16.9609 19.3527C16.3109 18.7027 16.0047 17.9256 16.0423 17.0214C16.0769 16.1201 16.3832 15.3805 16.9609 14.8027L30.5026 1.26107C30.8637 0.899957 31.2797 0.628402 31.7506 0.446402C32.2186 0.267291 32.7054 0.177734 33.2109 0.177734C33.7165 0.177734 34.2047 0.267291 34.6756 0.446402C35.1436 0.628402 35.5582 0.899957 35.9193 1.26107L49.4609 14.8027C50.1109 15.4527 50.4186 16.2111 50.3839 17.0777C50.3464 17.9444 50.0387 18.7027 49.4609 19.3527C48.7387 20.0027 47.9443 20.3465 47.0776 20.3841C46.2109 20.4187 45.4526 20.1111 44.8026 19.4611L36.4609 11.1194V44.2694C36.4609 45.1361 36.1547 45.8944 35.5423 46.5444C34.9269 47.1944 34.1498 47.5194 33.2109 47.5194ZM8.51094 64.3111C6.34427 64.3111 4.5026 63.5527 2.98594 62.0361C1.46927 60.5194 0.710938 58.6777 0.710938 56.5111V48.0611C0.710938 47.1222 1.0186 46.3451 1.63394 45.7297C2.24638 45.1173 3.02205 44.8111 3.96094 44.8111C4.89983 44.8111 5.67549 45.1173 6.28794 45.7297C6.90327 46.3451 7.21094 47.1222 7.21094 48.0611V56.5111C7.21094 56.8 7.35538 57.0888 7.64427 57.3777C7.93316 57.6666 8.22205 57.8111 8.51094 57.8111H57.9109C58.1998 57.8111 58.4887 57.6666 58.7776 57.3777C59.0665 57.0888 59.2109 56.8 59.2109 56.5111V48.0611C59.2109 47.1222 59.5172 46.3451 60.1296 45.7297C60.7449 45.1173 61.5221 44.8111 62.4609 44.8111C63.3998 44.8111 64.1769 45.1173 64.7923 45.7297C65.4047 46.3451 65.7109 47.1222 65.7109 48.0611V56.5111C65.7109 58.6777 64.9526 60.5194 63.4359 62.0361C61.9193 63.5527 60.0776 64.3111 57.9109 64.3111H8.51094Z" fill="white"/>
</svg>
