<svg width="9" height="14" viewBox="0 0 9 14" fill="none" xmlns="http://www.w3.org/2000/svg">
<path d="M0.28125 7C0.28125 7.16667 0.312501 7.32792 0.375001 7.48375C0.437501 7.64042 0.520834 7.77083 0.625 7.875L6.375 13.625C6.60417 13.8542 6.89583 13.9688 7.25 13.9688C7.60417 13.9688 7.89583 13.8542 8.125 13.625C8.35417 13.3958 8.46875 13.1042 8.46875 12.75C8.46875 12.3958 8.35417 12.1042 8.125 11.875L3.25 7L8.125 2.125C8.35417 1.89583 8.46875 1.60417 8.46875 1.25C8.46875 0.895833 8.35417 0.604168 8.125 0.375001C7.89583 0.145835 7.60417 0.0312493 7.25 0.0312493C6.89583 0.0312493 6.60417 0.145835 6.375 0.375001L0.625 6.125C0.5 6.25 0.411667 6.38542 0.360001 6.53125C0.307501 6.67708 0.28125 6.83333 0.28125 7Z" fill="#405DB5"/>
</svg>
