<svg width="41" height="41" viewBox="0 0 41 41" fill="none" xmlns="http://www.w3.org/2000/svg">
<g clip-path="url(#clip0_556_1054)">
<path d="M34.0049 7.64339H28.7215L25.6715 4.31006H15.6715L12.6215 7.64339H7.33822C5.50488 7.64339 4.00488 9.14339 4.00488 10.9767V30.9767C4.00488 32.8101 5.50488 34.3101 7.33822 34.3101H34.0049C35.8382 34.3101 37.3382 32.8101 37.3382 30.9767V10.9767C37.3382 9.14339 35.8382 7.64339 34.0049 7.64339ZM34.0049 30.9767H7.33822V10.9767H14.0882L17.1382 7.64339H24.2049L27.2549 10.9767H34.0049V30.9767ZM20.6715 12.6434C16.0715 12.6434 12.3382 16.3767 12.3382 20.9767C12.3382 25.5767 16.0715 29.3101 20.6715 29.3101C25.2715 29.3101 29.0049 25.5767 29.0049 20.9767C29.0049 16.3767 25.2715 12.6434 20.6715 12.6434ZM20.6715 25.9767C17.9215 25.9767 15.6715 23.7267 15.6715 20.9767C15.6715 18.2267 17.9215 15.9767 20.6715 15.9767C23.4215 15.9767 25.6715 18.2267 25.6715 20.9767C25.6715 23.7267 23.4215 25.9767 20.6715 25.9767Z" fill="#0072BC"/>
</g>
<defs>
<clipPath id="clip0_556_1054">
<rect width="40" height="40" fill="white" transform="translate(0.671875 0.976562)"/>
</clipPath>
</defs>
</svg>
