<svg width="41" height="41" viewBox="0 0 41 41" fill="none" xmlns="http://www.w3.org/2000/svg">
<g clip-path="url(#clip0_6_712)">
<path d="M33.3857 6.90316H28.1024L25.0524 3.56982H15.0524L12.0024 6.90316H6.71908C4.88574 6.90316 3.38574 8.40316 3.38574 10.2365V30.2365C3.38574 32.0698 4.88574 33.5698 6.71908 33.5698H33.3857C35.2191 33.5698 36.7191 32.0698 36.7191 30.2365V10.2365C36.7191 8.40316 35.2191 6.90316 33.3857 6.90316ZM33.3857 30.2365H6.71908V10.2365H13.4691L16.5191 6.90316H23.5857L26.6357 10.2365H33.3857V30.2365ZM20.0524 11.9032C15.4524 11.9032 11.7191 15.6365 11.7191 20.2365C11.7191 24.8365 15.4524 28.5698 20.0524 28.5698C24.6524 28.5698 28.3857 24.8365 28.3857 20.2365C28.3857 15.6365 24.6524 11.9032 20.0524 11.9032ZM20.0524 25.2365C17.3024 25.2365 15.0524 22.9865 15.0524 20.2365C15.0524 17.4865 17.3024 15.2365 20.0524 15.2365C22.8024 15.2365 25.0524 17.4865 25.0524 20.2365C25.0524 22.9865 22.8024 25.2365 20.0524 25.2365Z" fill="white"/>
</g>
<defs>
<clipPath id="clip0_6_712">
<rect width="40" height="40" fill="white" transform="translate(0.0527344 0.236328)"/>
</clipPath>
</defs>
</svg>
