<svg width="34" height="34" viewBox="0 0 34 34" fill="none" xmlns="http://www.w3.org/2000/svg">
<path fill-rule="evenodd" clip-rule="evenodd" d="M0.459929 16.8318C0.459929 7.65286 7.89966 0.211426 17.0776 0.211426C26.2555 0.211426 33.6952 7.65286 33.6952 16.8318C33.6952 26.0107 26.2555 33.4521 17.0776 33.4521C14.3314 33.4521 11.7373 32.7848 9.45228 31.6026L2.23184 33.4081C1.77048 33.5234 1.28196 33.4016 0.928801 33.0831C0.575639 32.7646 0.404157 32.2912 0.4714 31.8204L1.70811 23.162C0.903286 21.2092 0.459929 19.0706 0.459929 16.8318ZM17.0776 3.06805C9.47781 3.06805 3.31655 9.23005 3.31655 16.8318C3.31655 18.813 3.73421 20.6929 4.4849 22.3912C4.59302 22.6358 4.6303 22.9059 4.59248 23.1706L3.59969 30.1215L9.2964 28.697C9.65047 28.6085 10.025 28.6589 10.3431 28.8378C12.3325 29.9568 14.6283 30.5955 17.0776 30.5955C24.6773 30.5955 30.8386 24.4335 30.8386 16.8318C30.8386 9.23005 24.6773 3.06805 17.0776 3.06805Z" fill="white"/>
<path d="M15.7454 19.8556V19.5894C15.7454 18.8536 15.806 18.2672 15.9272 17.83C16.0527 17.3929 16.2345 17.0423 16.4725 16.7783C16.7106 16.5099 17.0006 16.2654 17.3425 16.0446C17.6152 15.8715 17.8576 15.6962 18.0697 15.5188C18.2861 15.337 18.457 15.1422 18.5826 14.9344C18.7081 14.7267 18.7708 14.4908 18.7708 14.2268C18.7708 13.9714 18.7102 13.7463 18.589 13.5516C18.4679 13.3568 18.3012 13.2075 18.0891 13.1036C17.8814 12.9954 17.6498 12.9413 17.3945 12.9413C17.1391 12.9413 16.8989 12.9997 16.6738 13.1166C16.4531 13.2335 16.2713 13.4001 16.1285 13.6165C15.99 13.8286 15.9185 14.0861 15.9142 14.3891H12.9277C12.9407 13.4802 13.1506 12.7357 13.5575 12.1557C13.9687 11.5757 14.5119 11.1472 15.1871 10.8702C15.8623 10.5889 16.6067 10.4482 17.4204 10.4482C18.312 10.4482 19.1041 10.5867 19.7966 10.8638C20.4935 11.1408 21.041 11.5498 21.4392 12.0908C21.8374 12.6318 22.0365 13.294 22.0365 14.0775C22.0365 14.5925 21.9499 15.047 21.7768 15.4408C21.6037 15.8347 21.3613 16.1831 21.0496 16.4861C20.7423 16.7848 20.3809 17.0574 19.9654 17.3041C19.6408 17.4946 19.3703 17.6937 19.1539 17.9014C18.9418 18.1092 18.7817 18.3472 18.6734 18.6156C18.5652 18.8796 18.5111 19.2042 18.5111 19.5894V19.8556H15.7454ZM17.1802 24.1146C16.7128 24.1146 16.3124 23.9501 15.9791 23.6212C15.6502 23.2922 15.4879 22.894 15.4922 22.4266C15.4879 21.9678 15.6502 21.5761 15.9791 21.2515C16.3124 20.9225 16.7128 20.7581 17.1802 20.7581C17.626 20.7581 18.0177 20.9225 18.3553 21.2515C18.6929 21.5761 18.8639 21.9678 18.8682 22.4266C18.8639 22.7382 18.7817 23.0217 18.6215 23.2771C18.4657 23.5325 18.2601 23.7359 18.0047 23.8874C17.7537 24.0389 17.4789 24.1146 17.1802 24.1146Z" fill="white"/>
</svg>
