<svg width="21" height="20" viewBox="0 0 21 20" fill="none" xmlns="http://www.w3.org/2000/svg">
<path d="M10.7009 0C5.18094 0 0.710938 4.48 0.710938 10C0.710938 15.52 5.18094 20 10.7009 20C16.2309 20 20.7109 15.52 20.7109 10C20.7109 4.48 16.2309 0 10.7009 0ZM7.21094 6C8.04094 6 8.71094 6.67 8.71094 7.5C8.71094 8.33 8.04094 9 7.21094 9C6.38094 9 5.71094 8.33 5.71094 7.5C5.71094 6.67 6.38094 6 7.21094 6ZM10.7109 16C8.43094 16 6.49094 14.34 5.71094 12H15.7109C14.9309 14.34 12.9909 16 10.7109 16ZM14.2109 9C13.3809 9 12.7109 8.33 12.7109 7.5C12.7109 6.67 13.3809 6 14.2109 6C15.0409 6 15.7109 6.67 15.7109 7.5C15.7109 8.33 15.0409 9 14.2109 9Z" fill="#0072BC"/>
</svg>
