<svg width="292" height="292" viewBox="0 0 292 292" fill="none" xmlns="http://www.w3.org/2000/svg">
<circle cx="146.005" cy="146" r="145.833" fill="#4378DB"/>
<path d="M146.001 0.166504C65.5013 0.166504 0.167969 65.4998 0.167969 146C0.167969 226.5 65.5013 291.833 146.001 291.833C226.501 291.833 291.835 226.5 291.835 146C291.835 65.4998 226.501 0.166504 146.001 0.166504ZM146.001 43.9165C170.21 43.9165 189.751 63.4582 189.751 87.6665C189.751 111.875 170.21 131.417 146.001 131.417C121.793 131.417 102.251 111.875 102.251 87.6665C102.251 63.4582 121.793 43.9165 146.001 43.9165ZM146.001 251C109.543 251 77.3138 232.333 58.5013 204.042C58.9388 175.021 116.835 159.125 146.001 159.125C175.022 159.125 233.064 175.021 233.501 204.042C214.689 232.333 182.46 251 146.001 251Z" fill="#EEEEEE"/>
</svg>
