<svg width="183" height="181" viewBox="0 0 183 181" fill="none" xmlns="http://www.w3.org/2000/svg">
<path d="M45.76 29.7227C45.76 29.7227 73.1244 50.4879 114.726 11.6602C151.672 -22.8218 181.838 31.5833 182.049 57.6373C182.322 91.3879 145.103 118.393 163.166 140.56C181.228 162.728 127.345 199.334 98.3052 167.654C62.1803 128.245 52.3938 160.265 31.8027 160.265C17.0243 160.265 -13.3172 123.544 7.17211 96.2251C24.4135 73.2371 15.0104 65.6071 10.4562 57.6373C3.88812 46.143 19.4875 14.9443 45.76 29.7227Z" fill="#DEE9FF"/>
<path d="M153.629 124.789L53.1613 155.635C51.4966 156.145 49.6974 155.974 48.1592 155.158C46.6211 154.342 45.4701 152.948 44.9593 151.283L33.2105 113.024L23.4568 81.2505L23.2679 80.6429L24.6061 79.0994L68.2679 28.7554C68.4678 28.5223 68.7298 28.3508 69.0233 28.2606C69.3169 28.1705 69.63 28.1655 69.9263 28.2462L134.343 45.4302L136.289 45.9474L136.889 47.885L157.981 116.58C158.49 118.245 158.318 120.045 157.502 121.584C156.687 123.123 155.294 124.276 153.629 124.789Z" fill="#418DF9"/>
<path d="M136.889 47.8844L98.8099 92.7449V90.2819L134.344 45.4296L136.289 45.9468L136.889 47.8844Z" fill="#208AF2"/>
<path d="M153.746 124.75C153.672 124.775 153.591 124.775 153.516 124.75L92.022 101.918C91.9724 101.899 91.9279 101.869 91.8921 101.829C91.8563 101.79 91.8301 101.743 91.8158 101.692C91.8014 101.641 91.7992 101.587 91.8094 101.535C91.8196 101.483 91.8418 101.434 91.8743 101.392L102.153 88.5682L135.897 46.4422C135.934 46.3943 135.984 46.3575 136.04 46.3359C136.097 46.3143 136.158 46.3088 136.217 46.3198C136.277 46.3308 136.332 46.358 136.377 46.3985C136.422 46.4389 136.455 46.4909 136.472 46.5489L157.835 116.138L157.975 116.581C158.482 118.225 158.323 120.003 157.532 121.531C156.741 123.059 155.382 124.215 153.746 124.75Z" fill="#A2BDFF"/>
<path d="M88.0961 99.3379L87.5379 100.504L23.8755 80.832C23.8174 80.814 23.7553 80.8122 23.6962 80.8268C23.6371 80.8415 23.5831 80.872 23.54 80.915C23.4969 80.9581 23.4664 81.0121 23.4517 81.0712C23.4371 81.1304 23.4388 81.1924 23.4568 81.2506L23.2679 80.643L24.6061 79.0995L88.0961 99.3379Z" fill="#208AF2"/>
<path d="M91.3223 102.129L53.2352 155.537C53.1915 155.603 53.1239 155.65 53.0464 155.668C51.3928 156.143 49.6186 155.95 48.106 155.13C46.5934 154.31 45.4634 152.929 44.9593 151.284L33.2105 113.024L23.4568 81.2507C23.4388 81.1925 23.4371 81.1305 23.4517 81.0714C23.4664 81.0123 23.4969 80.9583 23.54 80.9152C23.5831 80.8721 23.6371 80.8416 23.6962 80.827C23.7553 80.8124 23.8174 80.8141 23.8756 80.8321L87.5374 100.504L91.1494 101.62C91.1993 101.636 91.2449 101.663 91.2823 101.7C91.3198 101.736 91.3481 101.781 91.365 101.831C91.3818 101.881 91.3867 101.933 91.3793 101.985C91.3719 102.037 91.3523 102.086 91.3223 102.129Z" fill="#A2BDFF"/>
<path d="M153.627 124.79L53.1653 155.635C51.6443 156.097 50.0074 155.994 48.5568 155.343C47.1062 154.693 45.9399 153.54 45.2732 152.096C45.1608 151.85 45.1109 151.579 45.128 151.309C45.1451 151.039 45.2287 150.777 45.3712 150.546L85.4091 85.3284C85.6183 84.9878 85.9445 84.7351 86.3266 84.6178C86.7087 84.5004 87.1205 84.5265 87.4848 84.6911L157.223 116.204C157.47 116.315 157.686 116.485 157.852 116.699C158.018 116.913 158.128 117.165 158.173 117.432C158.431 119.001 158.113 120.61 157.278 121.962C156.442 123.315 155.145 124.319 153.627 124.79Z" fill="#699CFF"/>
<path d="M133.796 22.3998C133.737 22.3997 133.678 22.3845 133.626 22.3555C133.574 22.3265 133.531 22.2848 133.499 22.2342C133.468 22.1836 133.45 22.1258 133.447 22.0664C133.444 22.0069 133.457 21.9477 133.483 21.8944C133.783 21.2886 133.943 20.9564 133.944 20.9555C133.963 20.9125 133.99 20.8737 134.024 20.8414C134.058 20.8092 134.099 20.7842 134.143 20.7679C134.187 20.7516 134.234 20.7444 134.281 20.7466C134.328 20.7489 134.374 20.7606 134.416 20.781C134.459 20.8015 134.496 20.8302 134.527 20.8656C134.558 20.901 134.582 20.9422 134.597 20.9869C134.611 21.0316 134.617 21.0787 134.613 21.1256C134.609 21.1724 134.596 21.218 134.574 21.2596C134.574 21.2596 134.412 21.5941 134.11 22.205C134.081 22.2634 134.036 22.3126 133.981 22.347C133.925 22.3814 133.862 22.3997 133.796 22.3998Z" fill="white"/>
<path d="M98.4525 72.26C98.3859 72.26 98.3207 72.2409 98.2645 72.2051C98.2084 72.1693 98.1636 72.1182 98.1355 72.0578C98.1073 71.9974 98.097 71.9303 98.1057 71.8643C98.1144 71.7982 98.1418 71.736 98.1846 71.685C98.6369 71.146 99.0666 70.6113 99.4619 70.0957C99.5184 70.0221 99.6019 69.9739 99.6939 69.9617C99.786 69.9496 99.879 69.9745 99.9527 70.031C100.026 70.0875 100.075 70.1709 100.087 70.2629C100.099 70.355 100.074 70.4481 100.017 70.5217C99.6159 71.0453 99.1797 71.5881 98.7209 72.135C98.688 72.1741 98.647 72.2056 98.6006 72.2272C98.5542 72.2488 98.5037 72.26 98.4525 72.26ZM100.945 68.9953C100.881 68.9953 100.819 68.9779 100.764 68.945C100.71 68.9122 100.665 68.8651 100.635 68.8089C100.606 68.7527 100.592 68.6894 100.595 68.6259C100.599 68.5624 100.62 68.5011 100.655 68.4485C101.056 67.8596 101.418 67.2821 101.732 66.7319C101.755 66.692 101.786 66.657 101.822 66.6288C101.858 66.6007 101.9 66.58 101.944 66.5679C101.988 66.5558 102.035 66.5525 102.08 66.5583C102.126 66.5641 102.17 66.5788 102.21 66.6016C102.25 66.6244 102.285 66.6548 102.313 66.6912C102.341 66.7275 102.362 66.769 102.374 66.8134C102.386 66.8577 102.389 66.904 102.384 66.9496C102.378 66.9952 102.363 67.0392 102.34 67.0791C102.017 67.6452 101.645 68.2382 101.234 68.8422C101.202 68.8894 101.159 68.928 101.108 68.9547C101.058 68.9814 101.002 68.9953 100.945 68.9953H100.945ZM100.873 65.6593H100.867C100.159 65.6625 99.4599 65.5095 98.8184 65.2113C98.7767 65.1918 98.7393 65.1644 98.7083 65.1305C98.6772 65.0966 98.6532 65.0569 98.6375 65.0137C98.6217 64.9705 98.6147 64.9246 98.6167 64.8787C98.6187 64.8328 98.6298 64.7877 98.6492 64.746C98.6687 64.7044 98.6961 64.667 98.73 64.6359C98.7639 64.6049 98.8036 64.5808 98.8468 64.5651C98.89 64.5494 98.9359 64.5424 98.9818 64.5444C99.0277 64.5464 99.0728 64.5575 99.1145 64.5769C99.6635 64.8316 100.262 64.9619 100.867 64.9586C100.895 64.9586 100.925 64.9586 100.954 64.9586H100.96C101.006 64.9581 101.052 64.9668 101.095 64.984C101.137 65.0012 101.176 65.0266 101.209 65.0588C101.242 65.091 101.268 65.1293 101.286 65.1716C101.304 65.2139 101.313 65.2594 101.314 65.3053C101.314 65.3513 101.306 65.3969 101.288 65.4395C101.271 65.4822 101.246 65.521 101.213 65.5538C101.181 65.5866 101.143 65.6127 101.101 65.6307C101.058 65.6487 101.013 65.6581 100.967 65.6586C100.936 65.659 100.904 65.6593 100.873 65.6593H100.873ZM102.957 65.4213C102.877 65.3989 102.804 65.3556 102.745 65.2956C102.687 65.2356 102.646 65.1613 102.626 65.0801C102.606 64.999 102.609 64.9141 102.633 64.8341C102.657 64.754 102.701 64.6819 102.762 64.6249C102.969 64.1137 103.133 63.5865 103.252 63.0484C103.262 63.0031 103.28 62.96 103.306 62.9217C103.332 62.8834 103.365 62.8507 103.404 62.8254C103.443 62.8 103.486 62.7826 103.531 62.7742C103.577 62.7657 103.624 62.7664 103.669 62.7761C103.714 62.7859 103.757 62.8045 103.795 62.8309C103.833 62.8573 103.865 62.8909 103.89 62.93C103.915 62.969 103.932 63.0125 103.94 63.0581C103.948 63.1037 103.947 63.1504 103.937 63.1955C103.859 63.5535 103.76 63.9069 103.643 64.2539C103.962 64.1039 104.289 63.93 104.621 63.7336C104.701 63.6899 104.794 63.679 104.882 63.703C104.969 63.727 105.044 63.7841 105.091 63.8622C105.137 63.9403 105.151 64.0334 105.13 64.1217C105.109 64.21 105.054 64.2867 104.978 64.3356C104.441 64.6568 103.879 64.9335 103.298 65.163L103.279 65.2078C103.252 65.2708 103.207 65.3246 103.15 65.3625C103.093 65.4003 103.026 65.4206 102.957 65.4207L102.957 65.4213ZM97.2841 64.0773C97.1992 64.0774 97.1171 64.0465 97.0534 63.9905C96.4948 63.5231 96.0234 62.9605 95.6609 62.3288C95.637 62.2882 95.6216 62.2432 95.6155 62.1965C95.6094 62.1498 95.6128 62.1024 95.6254 62.057C95.6381 62.0116 95.6598 61.9693 95.6893 61.9325C95.7187 61.8957 95.7552 61.8653 95.7967 61.843C95.8382 61.8207 95.8837 61.8069 95.9307 61.8027C95.9776 61.7984 96.0249 61.8036 96.0697 61.818C96.1145 61.8324 96.156 61.8558 96.1916 61.8866C96.2272 61.9174 96.2562 61.9551 96.2769 61.9974C96.6 62.5553 97.019 63.0518 97.5145 63.4642C97.568 63.5111 97.606 63.5733 97.6232 63.6423C97.6405 63.7114 97.6363 63.7841 97.6112 63.8507C97.5861 63.9173 97.5413 63.9746 97.4827 64.0151C97.4242 64.0556 97.3547 64.0773 97.2835 64.0773H97.2841ZM106.497 63.229C106.424 63.2291 106.353 63.2062 106.293 63.1636C106.234 63.121 106.189 63.0609 106.166 62.9915C106.142 62.9222 106.141 62.8473 106.162 62.7772C106.183 62.7072 106.226 62.6456 106.284 62.6011C106.787 62.2162 107.31 61.7786 107.84 61.3002C107.874 61.2694 107.914 61.2457 107.957 61.2303C108.001 61.2149 108.046 61.2082 108.092 61.2105C108.138 61.2129 108.183 61.2242 108.225 61.244C108.266 61.2637 108.304 61.2914 108.334 61.3256C108.365 61.3597 108.389 61.3995 108.404 61.4428C108.42 61.4862 108.426 61.5321 108.424 61.578C108.422 61.6239 108.41 61.6689 108.391 61.7104C108.371 61.7519 108.343 61.7891 108.309 61.8199C107.765 62.3107 107.227 62.7606 106.71 63.1568C106.649 63.2032 106.574 63.2282 106.498 63.2279L106.497 63.229ZM103.703 61.4315C103.619 61.4314 103.538 61.4011 103.475 61.3461C103.411 61.2911 103.369 61.2151 103.357 61.1319C103.282 60.5178 103.018 59.942 102.603 59.4833C102.54 59.4152 102.507 59.325 102.511 59.2325C102.514 59.14 102.554 59.0527 102.622 58.9898C102.69 58.9268 102.78 58.8933 102.873 58.8966C102.965 58.8999 103.053 58.9397 103.116 59.0073C103.628 59.5695 103.955 60.2763 104.05 61.031C104.057 61.0765 104.054 61.1228 104.043 61.1674C104.032 61.212 104.012 61.2539 103.984 61.2907C103.957 61.3276 103.922 61.3587 103.883 61.3822C103.843 61.4057 103.8 61.4213 103.754 61.4279C103.737 61.4303 103.72 61.4315 103.703 61.4315ZM95.7483 60.5347C95.6919 60.5347 95.6364 60.5211 95.5864 60.4951C95.5364 60.469 95.4934 60.4312 95.4612 60.385C95.4289 60.3388 95.4083 60.2854 95.4011 60.2295C95.3939 60.1736 95.4003 60.1168 95.4197 60.0639C95.6618 59.4059 96.1897 58.8327 96.9478 58.4071C97.0288 58.3617 97.1244 58.3502 97.2138 58.3753C97.3032 58.4004 97.379 58.4599 97.4244 58.5409C97.4699 58.6218 97.4814 58.7175 97.4563 58.8069C97.4312 58.8963 97.3716 58.9721 97.2907 59.0175C96.6801 59.3604 96.2604 59.8056 96.0769 60.3055C96.0521 60.3728 96.0074 60.4308 95.9486 60.4718C95.8899 60.5128 95.8199 60.5347 95.7483 60.5347ZM109.559 60.4846C109.49 60.4846 109.423 60.4642 109.365 60.4259C109.308 60.3877 109.263 60.3333 109.236 60.2697C109.21 60.206 109.202 60.1359 109.215 60.0681C109.229 60.0004 109.261 59.938 109.31 59.8889C109.766 59.4269 110.237 58.9261 110.71 58.4021C110.772 58.3332 110.859 58.2918 110.952 58.287C111.044 58.2823 111.135 58.3145 111.204 58.3767C111.273 58.4389 111.314 58.526 111.319 58.6187C111.324 58.7114 111.292 58.8022 111.23 58.8711C110.75 59.4031 110.272 59.9104 109.808 60.3803C109.776 60.4134 109.737 60.4396 109.694 60.4575C109.651 60.4754 109.605 60.4846 109.559 60.4846ZM101.106 58.5779C101.075 58.5779 101.044 58.5737 101.014 58.5656C100.392 58.4046 99.7457 58.3635 99.1087 58.4445C99.0631 58.45 99.0168 58.4465 98.9726 58.4341C98.9283 58.4218 98.8869 58.4008 98.8507 58.3724C98.8146 58.3441 98.7843 58.3088 98.7618 58.2688C98.7392 58.2288 98.7248 58.1847 98.7192 58.139C98.7137 58.0934 98.7173 58.0471 98.7296 58.0028C98.742 57.9586 98.7629 57.9172 98.7913 57.881C98.8197 57.8448 98.8549 57.8146 98.8949 57.7921C98.935 57.7695 98.9791 57.7551 99.0247 57.7495C99.7512 57.6576 100.489 57.7052 101.197 57.8895C101.279 57.9116 101.35 57.9628 101.397 58.0334C101.445 58.1041 101.464 58.1894 101.453 58.2736C101.442 58.3578 101.401 58.435 101.337 58.4909C101.273 58.5468 101.191 58.5776 101.106 58.5775V58.5779ZM112.32 57.4343C112.253 57.4342 112.188 57.4151 112.132 57.3793C112.076 57.3434 112.031 57.2923 112.003 57.2319C111.975 57.1714 111.964 57.1043 111.973 57.0382C111.982 56.9722 112.009 56.91 112.052 56.859C112.476 56.355 112.912 55.8216 113.347 55.2725C113.376 55.2358 113.411 55.205 113.451 55.182C113.492 55.1591 113.536 55.1443 113.582 55.1387C113.628 55.1331 113.675 55.1366 113.72 55.1492C113.764 55.1618 113.806 55.1831 113.842 55.212C113.879 55.2408 113.909 55.2766 113.931 55.3172C113.954 55.3578 113.968 55.4025 113.973 55.4486C113.978 55.4948 113.973 55.5414 113.96 55.5859C113.947 55.6303 113.925 55.6717 113.896 55.7076C113.456 56.2619 113.016 56.8009 112.588 57.3095C112.555 57.3486 112.514 57.38 112.468 57.4016C112.422 57.4231 112.371 57.4343 112.32 57.4343H112.32ZM114.881 54.2127C114.816 54.2127 114.752 54.1945 114.697 54.1602C114.642 54.1259 114.597 54.0769 114.568 54.0186C114.539 53.9603 114.527 53.8951 114.533 53.8303C114.539 53.7655 114.563 53.7037 114.602 53.6517C115.002 53.1224 115.412 52.5676 115.821 52.0027C115.876 51.9275 115.958 51.877 116.05 51.8623C116.141 51.8477 116.235 51.87 116.31 51.9245C116.385 51.9789 116.436 52.061 116.451 52.1527C116.465 52.2444 116.443 52.3381 116.388 52.4133C115.976 52.9821 115.563 53.5407 115.16 54.0737C115.128 54.1168 115.086 54.1518 115.037 54.176C114.989 54.2001 114.936 54.2127 114.882 54.2127H114.881ZM117.297 50.8807C117.233 50.8807 117.17 50.8631 117.116 50.8298C117.061 50.7966 117.016 50.7491 116.987 50.6924C116.957 50.6357 116.944 50.5719 116.948 50.5081C116.952 50.4443 116.974 50.3828 117.01 50.3304C117.392 49.7844 117.783 49.2144 118.172 48.6381C118.224 48.5611 118.305 48.508 118.396 48.4904C118.487 48.4727 118.581 48.492 118.658 48.544C118.735 48.596 118.788 48.6764 118.806 48.7675C118.824 48.8587 118.804 48.9531 118.752 49.0301C118.36 49.6094 117.968 50.1818 117.585 50.7313C117.552 50.7775 117.509 50.8152 117.459 50.8411C117.409 50.8671 117.354 50.8807 117.297 50.8806L117.297 50.8807ZM119.602 47.4705C119.538 47.4704 119.477 47.4533 119.422 47.421C119.368 47.3886 119.324 47.3422 119.294 47.2867C119.264 47.2311 119.249 47.1685 119.252 47.1055C119.255 47.0424 119.274 46.9813 119.309 46.9285C119.679 46.3638 120.055 45.7823 120.427 45.2002C120.477 45.122 120.556 45.0668 120.646 45.0467C120.737 45.0267 120.832 45.0435 120.91 45.0935C120.988 45.1434 121.044 45.2224 121.064 45.313C121.084 45.4037 121.067 45.4986 121.017 45.5768C120.644 46.1613 120.266 46.7453 119.895 47.3128C119.863 47.3612 119.819 47.401 119.768 47.4285C119.717 47.456 119.66 47.4703 119.602 47.4703L119.602 47.4705ZM121.818 43.9985C121.756 43.9984 121.695 43.9817 121.641 43.95C121.587 43.9183 121.543 43.8728 121.513 43.8183C121.482 43.7637 121.467 43.7021 121.469 43.6397C121.47 43.5773 121.489 43.5165 121.522 43.4635C121.876 42.8939 122.238 42.3052 122.598 41.7135C122.647 41.6342 122.724 41.5773 122.815 41.5554C122.905 41.5334 123 41.5482 123.079 41.5965C123.159 41.6448 123.216 41.7225 123.237 41.8128C123.259 41.903 123.245 41.9982 123.196 42.0775C122.835 42.6711 122.472 43.2619 122.116 43.8334C122.084 43.8837 122.04 43.9251 121.989 43.9539C121.937 43.9826 121.878 43.9977 121.819 43.9976L121.818 43.9985ZM123.958 40.4822C123.896 40.4821 123.836 40.4657 123.782 40.4346C123.729 40.4034 123.685 40.3587 123.654 40.305C123.624 40.2512 123.608 40.1904 123.609 40.1286C123.609 40.0668 123.626 40.0063 123.658 39.9532C124.012 39.3594 124.36 38.7692 124.702 38.1827C124.725 38.1424 124.755 38.107 124.792 38.0786C124.828 38.0501 124.87 38.0293 124.915 38.0172C124.96 38.0051 125.007 38.002 125.053 38.0081C125.098 38.0142 125.143 38.0294 125.183 38.0528C125.223 38.0762 125.258 38.1072 125.286 38.1442C125.314 38.1812 125.334 38.2234 125.345 38.2683C125.357 38.3132 125.359 38.36 125.353 38.4059C125.346 38.4517 125.33 38.4958 125.306 38.5355C124.963 39.1235 124.614 39.7154 124.259 40.3113C124.228 40.3633 124.184 40.4064 124.132 40.4363C124.079 40.4662 124.019 40.4819 123.959 40.4819L123.958 40.4822ZM126.034 36.9272C125.973 36.9272 125.912 36.911 125.859 36.8803C125.806 36.8497 125.762 36.8056 125.731 36.7526C125.701 36.6995 125.684 36.6393 125.684 36.578C125.684 36.5167 125.7 36.4564 125.73 36.4032C126.077 35.7992 126.415 35.2032 126.745 34.6152C126.768 34.575 126.798 34.5395 126.834 34.511C126.87 34.4824 126.912 34.4612 126.956 34.4487C127 34.4362 127.047 34.4325 127.093 34.438C127.138 34.4434 127.183 34.4579 127.223 34.4805C127.263 34.5031 127.298 34.5334 127.327 34.5696C127.355 34.6059 127.376 34.6474 127.388 34.6919C127.401 34.7363 127.404 34.7827 127.398 34.8284C127.393 34.8741 127.378 34.9183 127.355 34.9584C127.024 35.5472 126.685 36.1446 126.338 36.7504C126.307 36.8038 126.263 36.8481 126.21 36.8789C126.156 36.9097 126.096 36.926 126.034 36.9259L126.034 36.9272ZM128.053 33.3387C127.992 33.3387 127.932 33.3227 127.879 33.2925C127.826 33.2623 127.782 33.2188 127.751 33.1663C127.721 33.1139 127.704 33.0543 127.703 32.9935C127.702 32.9326 127.717 32.8726 127.747 32.8193C128.087 32.2033 128.416 31.6021 128.735 31.0157C128.779 30.9341 128.854 30.8735 128.943 30.8472C129.032 30.8209 129.128 30.831 129.21 30.8754C129.291 30.9197 129.352 30.9946 129.378 31.0836C129.405 31.1726 129.395 31.2685 129.35 31.35C129.031 31.9372 128.701 32.5398 128.359 33.158C128.329 33.2126 128.285 33.258 128.231 33.2896C128.177 33.3213 128.116 33.3379 128.053 33.3379L128.053 33.3387ZM130.019 29.72C129.959 29.7199 129.9 29.7041 129.847 29.6743C129.795 29.6444 129.751 29.6015 129.72 29.5496C129.689 29.4978 129.672 29.4388 129.67 29.3784C129.669 29.318 129.683 29.2582 129.711 29.2049C130.049 28.5722 130.371 27.9662 130.675 27.3869C130.696 27.3453 130.725 27.3083 130.76 27.278C130.795 27.2478 130.836 27.2248 130.881 27.2106C130.925 27.1964 130.972 27.1911 131.018 27.1951C131.064 27.1991 131.109 27.2124 131.151 27.234C131.192 27.2557 131.228 27.2853 131.258 27.3212C131.287 27.3571 131.31 27.3985 131.323 27.4431C131.336 27.4876 131.341 27.5344 131.336 27.5807C131.331 27.627 131.317 27.6718 131.294 27.7125C130.99 28.2919 130.668 28.8993 130.328 29.5348C130.298 29.5905 130.254 29.6371 130.2 29.6696C130.145 29.702 130.083 29.7192 130.02 29.7192L130.019 29.72ZM131.936 26.0723C131.876 26.0723 131.817 26.0568 131.765 26.0273C131.712 25.9979 131.668 25.9555 131.637 25.9042C131.606 25.8529 131.589 25.7944 131.586 25.7344C131.584 25.6744 131.598 25.6149 131.625 25.5616C131.974 24.8875 132.287 24.2736 132.563 23.7288C132.584 23.6876 132.613 23.6508 132.647 23.6206C132.682 23.5904 132.723 23.5674 132.767 23.553C132.81 23.5385 132.857 23.5328 132.903 23.5363C132.949 23.5397 132.993 23.5522 133.035 23.5731C133.076 23.5939 133.112 23.6227 133.142 23.6578C133.172 23.6928 133.195 23.7334 133.209 23.7773C133.224 23.8212 133.229 23.8675 133.225 23.9134C133.222 23.9594 133.209 24.0042 133.188 24.0452C132.911 24.5912 132.597 25.2072 132.247 25.8829C132.218 25.9398 132.173 25.9875 132.118 26.0207C132.064 26.054 132.001 26.0715 131.937 26.0715L131.936 26.0723Z" fill="white"/>
<path d="M96.4273 74.5501C96.3592 74.5501 96.2925 74.5302 96.2356 74.4929C96.1786 74.4556 96.1337 74.4025 96.1065 74.3401C96.0792 74.2777 96.0708 74.2087 96.0822 74.1415C96.0936 74.0744 96.1243 74.012 96.1707 73.9621C96.4125 73.7013 96.6473 73.4442 96.8751 73.1908C96.9056 73.1557 96.9428 73.127 96.9844 73.1065C97.0261 73.0859 97.0714 73.0738 97.1178 73.0709C97.1642 73.068 97.2107 73.0744 97.2546 73.0897C97.2985 73.105 97.3389 73.1289 97.3734 73.16C97.408 73.191 97.436 73.2287 97.4559 73.2707C97.4758 73.3127 97.4871 73.3582 97.4891 73.4047C97.4912 73.4511 97.484 73.4975 97.4679 73.5411C97.4519 73.5847 97.4273 73.6247 97.3957 73.6587C97.1655 73.9148 96.9282 74.1745 96.6839 74.4379C96.6512 74.4734 96.6115 74.5016 96.5673 74.5209C96.5232 74.5402 96.4755 74.5501 96.4273 74.5501Z" fill="white"/>
<path d="M81.7718 52.0231C81.7123 52.023 81.6537 52.0078 81.6017 51.9789C81.5497 51.9499 81.506 51.9082 81.4746 51.8576C81.4432 51.807 81.4252 51.7493 81.4224 51.6898C81.4196 51.6304 81.4319 51.5712 81.4583 51.5178C81.7434 50.9413 81.8974 50.5879 81.8989 50.5844C81.9362 50.4997 82.0055 50.4332 82.0916 50.3995C82.1778 50.3657 82.2738 50.3675 82.3587 50.4043C82.4436 50.4412 82.5104 50.5102 82.5446 50.5962C82.5787 50.6822 82.5774 50.7783 82.541 50.8633C82.5345 50.8782 82.3794 51.2343 82.0857 51.8281C82.0568 51.8866 82.012 51.9359 81.9566 51.9704C81.9011 52.0048 81.8371 52.0231 81.7718 52.0231Z" fill="white"/>
<path d="M64.8322 68.8244C64.7642 68.8243 64.6977 68.8045 64.6408 68.7674C64.5839 68.7302 64.5391 68.6773 64.5118 68.615C64.4845 68.5528 64.4759 68.4839 64.487 68.4169C64.4982 68.3499 64.5286 68.2875 64.5746 68.2375C65.0737 67.6943 65.5482 67.1586 65.9851 66.6457C66.0147 66.61 66.0511 66.5806 66.0921 66.5592C66.1332 66.5377 66.1781 66.5246 66.2243 66.5206C66.2704 66.5166 66.3169 66.5219 66.361 66.536C66.4051 66.5501 66.446 66.5729 66.4813 66.6029C66.5165 66.6329 66.5455 66.6697 66.5665 66.711C66.5874 66.7523 66.6 66.7974 66.6034 66.8436C66.6068 66.8898 66.601 66.9362 66.5863 66.9801C66.5717 67.0241 66.5484 67.0647 66.5179 67.0996C66.0754 67.6192 65.5951 68.1615 65.0899 68.7111C65.0572 68.7469 65.0174 68.7754 64.973 68.7949C64.9286 68.8144 64.8807 68.8244 64.8322 68.8244ZM67.5992 65.5605C67.5339 65.5605 67.4699 65.5422 67.4144 65.5077C67.359 65.4732 67.3143 65.4238 67.2854 65.3652C67.2565 65.3067 67.2446 65.2412 67.251 65.1762C67.2575 65.1112 67.2819 65.0493 67.3217 64.9975C67.7798 64.4005 68.1929 63.8215 68.5495 63.2773C68.5747 63.2388 68.6072 63.2057 68.6452 63.1798C68.6832 63.1539 68.7259 63.1358 68.7709 63.1264C68.8159 63.117 68.8623 63.1166 68.9074 63.1252C68.9526 63.1337 68.9957 63.1511 69.0341 63.1763C69.0726 63.2015 69.1057 63.234 69.1316 63.272C69.1574 63.3099 69.1756 63.3526 69.185 63.3976C69.1944 63.4426 69.1948 63.4891 69.1862 63.5342C69.1777 63.5794 69.1603 63.6224 69.1351 63.6609C68.769 64.2198 68.3458 64.8129 67.8771 65.4236C67.8444 65.4662 67.8023 65.5008 67.7541 65.5245C67.7059 65.5482 67.6529 65.5606 67.5992 65.5605ZM70.0187 63.6501C69.9297 63.6498 69.8441 63.6157 69.7794 63.5545C69.7147 63.4934 69.6757 63.41 69.6703 63.3211C69.665 63.2323 69.6937 63.1448 69.7506 63.0763C69.8075 63.0079 69.8883 62.9637 69.9767 62.9528C70.653 62.8656 71.3141 62.6858 71.9414 62.4185C72.027 62.3826 72.1234 62.3822 72.2093 62.4173C72.2953 62.4525 72.3637 62.5204 72.3996 62.606C72.4355 62.6916 72.436 62.788 72.4008 62.8739C72.3657 62.9598 72.2978 63.0283 72.2122 63.0642C71.5255 63.3561 70.8021 63.5524 70.0621 63.6476C70.0476 63.6493 70.0332 63.6501 70.0187 63.6501ZM67.8906 63.5784C67.8683 63.5784 67.8461 63.5763 67.8242 63.5721C67.0916 63.4271 66.3825 63.1819 65.7169 62.8433C65.6346 62.8012 65.5724 62.7283 65.5437 62.6405C65.515 62.5527 65.5221 62.4572 65.5636 62.3746C65.605 62.2921 65.6774 62.2293 65.765 62.1999C65.8525 62.1705 65.9482 62.1769 66.031 62.2178C66.6391 62.5274 67.287 62.7518 67.9563 62.8847C68.0418 62.9012 68.1181 62.9489 68.1703 63.0185C68.2225 63.0881 68.2469 63.1747 68.2386 63.2614C68.2304 63.3481 68.1903 63.4285 68.1259 63.4871C68.0616 63.5458 67.9777 63.5783 67.8906 63.5784ZM73.9478 62.0583C73.873 62.0584 73.8002 62.0345 73.74 61.9902C73.6797 61.9459 73.6353 61.8835 73.6131 61.8121C73.591 61.7407 73.5923 61.664 73.6168 61.5934C73.6413 61.5228 73.6878 61.4619 73.7495 61.4196C74.3227 61.0229 74.8665 60.5853 75.3767 60.1103C75.4105 60.0791 75.4501 60.0549 75.4932 60.039C75.5363 60.0231 75.5821 60.0158 75.6281 60.0176C75.674 60.0194 75.7191 60.0303 75.7609 60.0495C75.8026 60.0688 75.8402 60.096 75.8714 60.1298C75.9026 60.1636 75.9268 60.2031 75.9427 60.2462C75.9586 60.2894 75.9659 60.3352 75.9641 60.3811C75.9623 60.4271 75.9514 60.4722 75.9322 60.5139C75.9129 60.5557 75.8857 60.5932 75.8519 60.6244C75.3168 61.1223 74.7465 61.5808 74.1453 61.9964C74.087 62.0367 74.0179 62.0583 73.9471 62.0583H73.9478ZM69.9123 61.9674C69.8529 61.9674 69.7944 61.9522 69.7425 61.9234C69.6906 61.8945 69.6469 61.8529 69.6155 61.8025C69.5841 61.7521 69.566 61.6945 69.563 61.6352C69.56 61.5759 69.5721 61.5168 69.5982 61.4634C69.9098 60.8554 70.1412 60.2095 70.2865 59.5419C70.3041 59.4508 70.3573 59.3704 70.4342 59.3184C70.5111 59.2665 70.6055 59.2472 70.6967 59.2649C70.7878 59.2825 70.8682 59.3357 70.9202 59.4126C70.9721 59.4895 70.9914 59.5839 70.9737 59.6751C70.8168 60.4033 70.5657 61.1079 70.2268 61.7713C70.198 61.8303 70.1531 61.8799 70.0973 61.9146C70.0416 61.9493 69.9772 61.9676 69.9115 61.9674H69.9123ZM64.1154 61.676C64.0228 61.676 63.9339 61.6393 63.8683 61.5739C63.2698 60.9776 62.9664 60.3419 62.9664 59.6825C62.9665 59.5776 62.9743 59.4729 62.9898 59.3692C63.0036 59.2774 63.0532 59.1948 63.1279 59.1396C63.2025 59.0844 63.296 59.0611 63.3878 59.0749C63.4796 59.0886 63.5622 59.1383 63.6174 59.213C63.6726 59.2876 63.6959 59.3811 63.6821 59.4729C63.6717 59.5424 63.6665 59.6126 63.6664 59.6829C63.6664 60.1488 63.9006 60.6183 64.3625 61.0784C64.4116 61.1273 64.4451 61.1897 64.4587 61.2576C64.4723 61.3256 64.4654 61.396 64.4389 61.4601C64.4125 61.5241 64.3676 61.5788 64.31 61.6173C64.2524 61.6558 64.1847 61.6764 64.1154 61.6764V61.676ZM77.1034 59.1793C77.0361 59.1793 76.9704 59.1599 76.9139 59.1235C76.8574 59.087 76.8126 59.0351 76.7848 58.9739C76.7571 58.9127 76.7475 58.8447 76.7573 58.7782C76.7671 58.7117 76.7959 58.6495 76.8402 58.5989C77.2833 58.0925 77.7285 57.5383 78.1634 56.9515C78.219 56.8776 78.3015 56.8287 78.3929 56.8155C78.4844 56.8022 78.5773 56.8256 78.6516 56.8806C78.7258 56.9357 78.7753 57.0178 78.7892 57.1092C78.8031 57.2005 78.7803 57.2937 78.7258 57.3683C78.2796 57.9703 77.8224 58.5394 77.3668 59.0599C77.3339 59.0976 77.2933 59.1278 77.2477 59.1484C77.2022 59.169 77.1527 59.1795 77.1027 59.1793H77.1034ZM64.5194 58.0523C64.446 58.0523 64.3744 58.0292 64.3148 57.9863C64.2552 57.9433 64.2106 57.8827 64.1874 57.813C64.1642 57.7433 64.1635 57.6681 64.1854 57.598C64.2073 57.5279 64.2507 57.4664 64.3094 57.4223C64.921 56.9741 65.6079 56.639 66.3375 56.4328C66.4258 56.4094 66.5198 56.4215 66.5994 56.4664C66.679 56.5114 66.7378 56.5857 66.7633 56.6734C66.7888 56.7612 66.779 56.8555 66.7359 56.9361C66.6928 57.0167 66.6199 57.0772 66.5328 57.1048C65.885 57.2888 65.2748 57.5856 64.7301 57.9816C64.6692 58.0275 64.595 58.0521 64.5188 58.0518L64.5194 58.0523ZM70.3715 57.8885C70.313 57.8885 70.2554 57.8739 70.2041 57.846C70.1527 57.818 70.1092 57.7776 70.0774 57.7285C69.7035 57.1503 69.0196 56.9595 68.5118 56.9013C68.4658 56.8965 68.4212 56.8826 68.3805 56.8604C68.3399 56.8383 68.3041 56.8083 68.2751 56.7722C68.2461 56.7361 68.2246 56.6946 68.2118 56.6502C68.199 56.6057 68.1951 56.5591 68.2004 56.5132C68.2057 56.4672 68.22 56.4227 68.2426 56.3823C68.2652 56.3419 68.2955 56.3064 68.3319 56.2778C68.3683 56.2493 68.41 56.2282 68.4546 56.2158C68.4992 56.2035 68.5459 56.2001 68.5918 56.2059C69.5348 56.3141 70.2517 56.7099 70.6652 57.3484C70.6994 57.4013 70.7187 57.4624 70.7211 57.5253C70.7234 57.5882 70.7088 57.6506 70.6787 57.7059C70.6486 57.7612 70.6042 57.8073 70.55 57.8395C70.4959 57.8716 70.4341 57.8886 70.3712 57.8885H70.3715ZM79.6613 55.7465C79.5984 55.7465 79.5367 55.7295 79.4827 55.6974C79.4287 55.6653 79.3843 55.6192 79.3542 55.564C79.3241 55.5088 79.3094 55.4465 79.3118 55.3837C79.3141 55.3209 79.3332 55.2598 79.3673 55.207C79.7428 54.6242 80.112 54.0129 80.4649 53.3902C80.4874 53.3499 80.5176 53.3144 80.5539 53.2858C80.5901 53.2572 80.6317 53.236 80.6761 53.2236C80.7206 53.2111 80.7671 53.2076 80.8129 53.2131C80.8587 53.2187 80.903 53.2333 80.9432 53.2561C80.9834 53.2788 81.0186 53.3093 81.047 53.3458C81.0753 53.3822 81.0961 53.4239 81.1083 53.4685C81.1204 53.513 81.1237 53.5595 81.1178 53.6053C81.1119 53.6511 81.0969 53.6953 81.0739 53.7353C80.7145 54.3695 80.3383 54.9921 79.9559 55.586C79.9241 55.6355 79.8804 55.6762 79.8287 55.7044C79.7771 55.7326 79.7192 55.7472 79.6603 55.7471L79.6613 55.7465Z" fill="white"/>
<path d="M62.6123 71.1369C62.5431 71.1369 62.4755 71.1165 62.418 71.0781C62.3605 71.0397 62.3156 70.9852 62.289 70.9213C62.2625 70.8575 62.2554 70.7872 62.2688 70.7194C62.2821 70.6515 62.3153 70.5891 62.3641 70.5401C62.6161 70.2881 62.8609 70.04 63.0985 69.7957C63.1633 69.7292 63.2518 69.6912 63.3447 69.69C63.4375 69.6888 63.527 69.7246 63.5935 69.7894C63.6599 69.8541 63.698 69.9427 63.6992 70.0355C63.7004 70.1283 63.6646 70.2178 63.5998 70.2843C63.36 70.5304 63.1131 70.7806 62.8594 71.0347C62.8269 71.0672 62.7884 71.0929 62.746 71.1104C62.7036 71.128 62.6582 71.137 62.6123 71.1369Z" fill="white"/>
</svg>
