<svg width="20" height="15" viewBox="0 0 20 15" fill="none" xmlns="http://www.w3.org/2000/svg">
<g clip-path="url(#clip0_34_33992)">
<rect width="20" height="15" fill="white"/>
<path fill-rule="evenodd" clip-rule="evenodd" d="M0 0V15H20V0H0Z" fill="#2E42A5"/>
<mask id="mask0_34_33992" style="mask-type:luminance" maskUnits="userSpaceOnUse" x="0" y="0" width="20" height="15">
<path fill-rule="evenodd" clip-rule="evenodd" d="M0 0V15H20V0H0Z" fill="white"/>
</mask>
<g mask="url(#mask0_34_33992)">
<path d="M-2.22656 13.9283L2.17449 15.7896L20.1003 2.02354L22.4217 -0.742388L17.7154 -1.36448L10.4039 4.56768L4.51893 8.56458L-2.22656 13.9283Z" fill="white"/>
<path d="M-1.625 15.2324L0.617135 16.3125L21.5872 -0.999338H18.4389L-1.625 15.2324Z" fill="#F50100"/>
<path d="M22.2266 13.9283L17.8255 15.7896L-0.100267 2.02354L-2.42172 -0.742388L2.28457 -1.36448L9.59607 4.56768L15.4811 8.56458L22.2266 13.9283Z" fill="white"/>
<path d="M22.0762 14.8642L19.834 15.9443L10.9048 8.53224L8.25745 7.7041L-2.64532 -0.732895H0.502899L11.3995 7.50384L14.2939 8.49687L22.0762 14.8642Z" fill="#F50100"/>
<mask id="path-7-inside-1_34_33992" fill="white">
<path fill-rule="evenodd" clip-rule="evenodd" d="M12.3615 -1.25H7.63926V5H-1.23242V10H7.63926V16.25H12.3615V10H21.2676V5H12.3615V-1.25Z"/>
</mask>
<path fill-rule="evenodd" clip-rule="evenodd" d="M12.3615 -1.25H7.63926V5H-1.23242V10H7.63926V16.25H12.3615V10H21.2676V5H12.3615V-1.25Z" fill="#F50100"/>
<path d="M7.63926 -1.25V-2.5H6.38926V-1.25H7.63926ZM12.3615 -1.25H13.6115V-2.5H12.3615V-1.25ZM7.63926 5V6.25H8.88926V5H7.63926ZM-1.23242 5V3.75H-2.48242V5H-1.23242ZM-1.23242 10H-2.48242V11.25H-1.23242V10ZM7.63926 10H8.88926V8.75H7.63926V10ZM7.63926 16.25H6.38926V17.5H7.63926V16.25ZM12.3615 16.25V17.5H13.6115V16.25H12.3615ZM12.3615 10V8.75H11.1115V10H12.3615ZM21.2676 10V11.25H22.5176V10H21.2676ZM21.2676 5H22.5176V3.75H21.2676V5ZM12.3615 5H11.1115V6.25H12.3615V5ZM7.63926 0H12.3615V-2.5H7.63926V0ZM8.88926 5V-1.25H6.38926V5H8.88926ZM-1.23242 6.25H7.63926V3.75H-1.23242V6.25ZM0.0175781 10V5H-2.48242V10H0.0175781ZM7.63926 8.75H-1.23242V11.25H7.63926V8.75ZM8.88926 16.25V10H6.38926V16.25H8.88926ZM12.3615 15H7.63926V17.5H12.3615V15ZM11.1115 10V16.25H13.6115V10H11.1115ZM21.2676 8.75H12.3615V11.25H21.2676V8.75ZM20.0176 5V10H22.5176V5H20.0176ZM12.3615 6.25H21.2676V3.75H12.3615V6.25ZM11.1115 -1.25V5H13.6115V-1.25H11.1115Z" fill="white" mask="url(#path-7-inside-1_34_33992)"/>
</g>
</g>
<defs>
<clipPath id="clip0_34_33992">
<rect width="20" height="15" fill="white"/>
</clipPath>
</defs>
</svg>
