<svg width="25" height="33" viewBox="0 0 25 33" fill="none" xmlns="http://www.w3.org/2000/svg">
<path d="M7.93359 13.0153H9.43359C9.83142 13.0153 10.2129 12.8485 10.4943 12.5516C10.7756 12.2546 10.9336 11.8519 10.9336 11.432C10.9336 11.012 10.7756 10.6093 10.4943 10.3124C10.2129 10.0154 9.83142 9.84863 9.43359 9.84863H7.93359C7.53577 9.84863 7.15424 10.0154 6.87293 10.3124C6.59163 10.6093 6.43359 11.012 6.43359 11.432C6.43359 11.8519 6.59163 12.2546 6.87293 12.5516C7.15424 12.8485 7.53577 13.0153 7.93359 13.0153ZM7.93359 16.182C7.53577 16.182 7.15424 16.3488 6.87293 16.6457C6.59163 16.9426 6.43359 17.3454 6.43359 17.7653C6.43359 18.1852 6.59163 18.588 6.87293 18.8849C7.15424 19.1818 7.53577 19.3486 7.93359 19.3486H16.9336C17.3314 19.3486 17.7129 19.1818 17.9943 18.8849C18.2756 18.588 18.4336 18.1852 18.4336 17.7653C18.4336 17.3454 18.2756 16.9426 17.9943 16.6457C17.7129 16.3488 17.3314 16.182 16.9336 16.182H7.93359ZM24.4336 11.337C24.418 11.1915 24.3878 11.0482 24.3436 10.9095V10.767C24.2715 10.6042 24.1753 10.4545 24.0586 10.3236L15.0586 0.823633C14.9346 0.700475 14.7928 0.598928 14.6386 0.522799C14.5938 0.516086 14.5484 0.516086 14.5036 0.522799C14.3512 0.430556 14.1829 0.371344 14.0086 0.348633H4.93359C3.74012 0.348633 2.59553 0.849078 1.75161 1.73988C0.9077 2.63067 0.433594 3.83885 0.433594 5.09863V27.2653C0.433594 28.5251 0.9077 29.7333 1.75161 30.6241C2.59553 31.5149 3.74012 32.0153 4.93359 32.0153H19.9336C21.1271 32.0153 22.2717 31.5149 23.1156 30.6241C23.9595 29.7333 24.4336 28.5251 24.4336 27.2653V11.432C24.4336 11.432 24.4336 11.432 24.4336 11.337ZM15.4336 5.7478L19.3186 9.84863H16.9336C16.5358 9.84863 16.1542 9.68182 15.8729 9.38488C15.5916 9.08795 15.4336 8.68523 15.4336 8.2653V5.7478ZM21.4336 27.2653C21.4336 27.6852 21.2756 28.088 20.9943 28.3849C20.7129 28.6818 20.3314 28.8486 19.9336 28.8486H4.93359C4.53577 28.8486 4.15424 28.6818 3.87293 28.3849C3.59163 28.088 3.43359 27.6852 3.43359 27.2653V5.09863C3.43359 4.67871 3.59163 4.27598 3.87293 3.97905C4.15424 3.68211 4.53577 3.5153 4.93359 3.5153H12.4336V8.2653C12.4336 9.52508 12.9077 10.7333 13.7516 11.6241C14.5955 12.5149 15.7401 13.0153 16.9336 13.0153H21.4336V27.2653ZM16.9336 22.5153H7.93359C7.53577 22.5153 7.15424 22.6821 6.87293 22.979C6.59163 23.276 6.43359 23.6787 6.43359 24.0986C6.43359 24.5186 6.59163 24.9213 6.87293 25.2182C7.15424 25.5152 7.53577 25.682 7.93359 25.682H16.9336C17.3314 25.682 17.7129 25.5152 17.9943 25.2182C18.2756 24.9213 18.4336 24.5186 18.4336 24.0986C18.4336 23.6787 18.2756 23.276 17.9943 22.979C17.7129 22.6821 17.3314 22.5153 16.9336 22.5153Z" fill="#A1BBED"/>
</svg>
