<svg width="17" height="20" viewBox="0 0 17 20" fill="none" xmlns="http://www.w3.org/2000/svg">
<path d="M8.85547 19.6562C9.95547 19.6562 10.8555 18.7563 10.8555 17.6562H6.85547C6.85547 18.7563 7.75547 19.6562 8.85547 19.6562ZM14.8555 13.6562V8.65625C14.8555 5.58625 13.2255 3.01625 10.3555 2.33625V1.65625C10.3555 0.82625 9.68547 0.15625 8.85547 0.15625C8.02547 0.15625 7.35547 0.82625 7.35547 1.65625V2.33625C4.49547 3.01625 2.85547 5.57625 2.85547 8.65625V13.6562L0.855469 15.6562V16.6562H16.8555V15.6562L14.8555 13.6562ZM12.8555 14.6562H4.85547V8.65625C4.85547 6.17625 6.36547 4.15625 8.85547 4.15625C11.3455 4.15625 12.8555 6.17625 12.8555 8.65625V14.6562Z" fill="#405DB5"/>
<circle cx="8.85352" cy="9.15381" r="5.0332" fill="#405DB5"/>
<rect x="3.82031" y="8.74756" width="10.0664" height="6.62354" fill="#405DB5"/>
</svg>
