<svg width="35" height="23" viewBox="0 0 35 23" fill="none" xmlns="http://www.w3.org/2000/svg">
<mask id="mask0_1123_1840" style="mask-type:alpha" maskUnits="userSpaceOnUse" x="7" y="3" width="21" height="17">
<path d="M9.70703 19.6577C9.15703 19.6577 8.6862 19.4619 8.29453 19.0702C7.90286 18.6785 7.70703 18.2077 7.70703 17.6577V5.65771C7.70703 5.10771 7.90286 4.63688 8.29453 4.24521C8.6862 3.85355 9.15703 3.65771 9.70703 3.65771H15.707L17.707 5.65771H25.707C26.257 5.65771 26.7279 5.85355 27.1195 6.24521C27.5112 6.63688 27.707 7.10771 27.707 7.65771V17.6577C27.707 18.2077 27.5112 18.6785 27.1195 19.0702C26.7279 19.4619 26.257 19.6577 25.707 19.6577H9.70703Z" fill="#1D1B20"/>
</mask>
<g mask="url(#mask0_1123_1840)">
<path d="M7.70703 3.5542H27.7344V19.6577H7.70703V3.5542Z" fill="#405DB5"/>
</g>
</svg>
