<svg width="20" height="20" viewBox="0 0 20 20" fill="none" xmlns="http://www.w3.org/2000/svg">
<g clip-path="url(#clip0_858_14046)">
<path d="M16.6629 4.08853C16.2585 3.68399 15.7785 3.36308 15.2501 3.14414C14.7216 2.92519 14.1553 2.8125 13.5833 2.8125C13.0113 2.8125 12.445 2.92519 11.9166 3.14414C11.3882 3.36308 10.9081 3.68399 10.5037 4.08853L9.66456 4.9277L8.8254 4.08853C8.00864 3.27177 6.90088 2.81292 5.74581 2.81292C4.59075 2.81292 3.48299 3.27177 2.66623 4.08853C1.84947 4.90529 1.39063 6.01304 1.39062 7.16811C1.39062 8.32318 1.84947 9.43094 2.66623 10.2477L9.66456 17.246L16.6629 10.2477C17.0674 9.84335 17.3883 9.36326 17.6073 8.83485C17.8262 8.30645 17.9389 7.74008 17.9389 7.16811C17.9389 6.59614 17.8262 6.02978 17.6073 5.50137C17.3883 4.97297 17.0674 4.49288 16.6629 4.08853Z" fill="#405DB5" stroke="#405DB5" stroke-width="2" stroke-linecap="round" stroke-linejoin="round"/>
</g>
<defs>
<clipPath id="clip0_858_14046">
<rect width="19" height="19" fill="white" transform="translate(0.164062 0.438965)"/>
</clipPath>
</defs>
</svg>
