<svg width="32" height="23" viewBox="0 0 32 23" fill="none" xmlns="http://www.w3.org/2000/svg">
<rect x="6.58203" y="6.61475" width="15.32" height="15.32" rx="1" fill="#405DB5" stroke="#405DB5" stroke-width="2"/>
<path d="M6.84619 9.56656L10.5373 14.0478L14.18 9.82797C17.0131 6.54591 14.6815 1.45312 10.3458 1.45312C6.31178 1.72519 4.27566 6.44576 6.84619 9.56656Z" fill="#405DB5" stroke="#405DB5"/>
<path d="M10.5278 7.79416C9.77635 7.79416 9.1615 7.16313 9.1615 6.39187C9.1615 5.62061 9.77635 4.98958 10.5278 4.98958C11.2793 4.98958 11.8942 5.62061 11.8942 6.39187C11.8942 7.16313 11.2793 7.79416 10.5278 7.79416ZM14.6268 6.5321C14.6268 3.98695 12.8164 2.185 10.5278 2.185C8.23922 2.185 6.42883 3.98695 6.42883 6.5321C6.42883 8.17278 7.76101 10.3463 10.5278 12.9406C13.2947 10.3463 14.6268 8.17278 14.6268 6.5321ZM10.5278 0.782715C13.3971 0.782715 15.9932 3.0404 15.9932 6.5321C15.9932 8.8599 14.1691 11.6154 10.5278 14.8056C6.88655 11.6154 5.0625 8.8599 5.0625 6.5321C5.0625 3.0404 7.65853 0.782715 10.5278 0.782715Z" fill="white"/>
<path d="M10.6016 13.6538L11.6877 15.155C17.1975 18.3553 14.6931 6.52861 20.2307 13.1238" stroke="white" stroke-dasharray="1 1"/>
<path d="M20.6325 13.3197L29.1836 11.3567L25.0029 20.9272L20.6325 13.3197Z" fill="white"/>
</svg>
