<svg width="296" height="299" viewBox="0 0 296 299" fill="none" xmlns="http://www.w3.org/2000/svg">
<g opacity="0.75">
<path d="M148.162 295.583C229.74 295.583 295.871 229.452 295.871 147.874C295.871 66.297 229.74 0.165405 148.162 0.165405C66.5847 0.165405 0.453125 66.297 0.453125 147.874C0.453125 229.452 66.5847 295.583 148.162 295.583Z" fill="url(#paint0_linear_1540_2498)"/>
<g filter="url(#filter0_d_1540_2498)">
<mask id="mask0_1540_2498" style="mask-type:alpha" maskUnits="userSpaceOnUse" x="0" y="0" width="296" height="296">
<path d="M148.162 295.583C229.74 295.583 295.871 229.452 295.871 147.874C295.871 66.297 229.74 0.165405 148.162 0.165405C66.5847 0.165405 0.453125 66.297 0.453125 147.874C0.453125 229.452 66.5847 295.583 148.162 295.583Z" fill="#699CFF"/>
</mask>
<g mask="url(#mask0_1540_2498)">
<path d="M232.849 84.8519H63.4762C58.0377 84.8519 53.6289 89.2607 53.6289 94.6992V301.492C53.6289 306.93 58.0377 311.339 63.4762 311.339H232.849C238.288 311.339 242.696 306.93 242.696 301.492V94.6992C242.696 89.2607 238.288 84.8519 232.849 84.8519Z" fill="white"/>
</g>
</g>
<path d="M130.438 104.546H79.2326C75.9695 104.546 73.3242 107.192 73.3242 110.455C73.3242 113.718 75.9695 116.363 79.2326 116.363H130.438C133.701 116.363 136.347 113.718 136.347 110.455C136.347 107.192 133.701 104.546 130.438 104.546Z" fill="#E1EBFA"/>
<path d="M130.438 187.263H79.2326C75.9695 187.263 73.3242 189.909 73.3242 193.172C73.3242 196.435 75.9695 199.08 79.2326 199.08H130.438C133.701 199.08 136.347 196.435 136.347 193.172C136.347 189.909 133.701 187.263 130.438 187.263Z" fill="#E1EBFA"/>
<path d="M213.151 134.088H83.1669C78.8161 134.088 75.2891 137.615 75.2891 141.966V161.661C75.2891 166.011 78.8161 169.538 83.1669 169.538H213.151C217.502 169.538 221.029 166.011 221.029 161.661V141.966C221.029 137.615 217.502 134.088 213.151 134.088Z" stroke="#B4C9FC" stroke-width="2"/>
<path d="M213.155 214.836H83.1715C77.733 214.836 73.3242 219.245 73.3242 224.683V240.439C73.3242 245.877 77.733 250.286 83.1715 250.286H213.155C218.594 250.286 223.003 245.877 223.003 240.439V224.683C223.003 219.245 218.594 214.836 213.155 214.836Z" fill="#A2BDFF"/>
<path d="M104.835 63.188C109.186 63.188 112.713 59.661 112.713 55.3102C112.713 50.9594 109.186 47.4324 104.835 47.4324C100.484 47.4324 96.957 50.9594 96.957 55.3102C96.957 59.661 100.484 63.188 104.835 63.188Z" fill="white"/>
<path d="M148.163 63.188C152.514 63.188 156.041 59.661 156.041 55.3102C156.041 50.9594 152.514 47.4324 148.163 47.4324C143.812 47.4324 140.285 50.9594 140.285 55.3102C140.285 59.661 143.812 63.188 148.163 63.188Z" fill="#699CFF"/>
<path d="M191.491 63.188C195.842 63.188 199.369 59.661 199.369 55.3102C199.369 50.9594 195.842 47.4324 191.491 47.4324C187.14 47.4324 183.613 50.9594 183.613 55.3102C183.613 59.661 187.14 63.188 191.491 63.188Z" fill="white"/>
<path d="M169.824 173.477C175.262 173.477 179.671 169.068 179.671 163.63C179.671 158.191 175.262 153.783 169.824 153.783C164.385 153.783 159.977 158.191 159.977 163.63C159.977 169.068 164.385 173.477 169.824 173.477Z" fill="#A2BDFF"/>
<path d="M177.517 205.717C175.941 205.717 174.47 205.717 173.131 205.633C171.481 205.521 169.894 204.957 168.545 204.001C167.195 203.046 166.135 201.737 165.481 200.219L157.172 183.797C156.563 183.088 156.258 182.166 156.326 181.233C156.393 180.3 156.826 179.431 157.531 178.817C158.108 178.352 158.828 178.103 159.569 178.109C160.114 178.125 160.65 178.259 161.138 178.502C161.627 178.745 162.057 179.091 162.399 179.516L166.173 184.666L166.23 184.733V165.166C166.23 164.195 166.615 163.264 167.302 162.578C167.988 161.892 168.919 161.506 169.89 161.506C170.861 161.506 171.792 161.892 172.478 162.578C173.164 163.264 173.55 164.195 173.55 165.166V177.968C173.508 177.497 173.564 177.022 173.715 176.574C173.866 176.125 174.109 175.714 174.428 175.365C174.747 175.015 175.135 174.736 175.568 174.546C176.001 174.355 176.469 174.256 176.942 174.256C177.414 174.256 177.882 174.355 178.315 174.546C178.748 174.736 179.136 175.015 179.455 175.365C179.774 175.714 180.017 176.125 180.168 176.574C180.319 177.022 180.375 177.497 180.333 177.968V180.636C180.29 180.165 180.346 179.69 180.498 179.242C180.649 178.794 180.892 178.382 181.211 178.033C181.53 177.684 181.918 177.405 182.351 177.214C182.784 177.024 183.251 176.925 183.724 176.925C184.197 176.925 184.665 177.024 185.098 177.214C185.531 177.405 185.919 177.684 186.238 178.033C186.557 178.382 186.8 178.794 186.951 179.242C187.102 179.69 187.158 180.165 187.116 180.636V182.692C187.073 182.221 187.129 181.747 187.28 181.298C187.432 180.85 187.674 180.438 187.993 180.089C188.312 179.74 188.701 179.461 189.134 179.27C189.566 179.08 190.034 178.981 190.507 178.981C190.98 178.981 191.448 179.08 191.881 179.27C192.313 179.461 192.702 179.74 193.021 180.089C193.34 180.438 193.583 180.85 193.734 181.298C193.885 181.747 193.941 182.221 193.899 182.692V195.173C193.832 199.011 192.096 205.483 185.993 205.483C185.55 205.503 181.796 205.719 177.524 205.719L177.517 205.717Z" fill="#B4C9FC" stroke="white"/>
</g>
<defs>
<filter id="filter0_d_1540_2498" x="47.6289" y="75.8519" width="201.066" height="222.731" filterUnits="userSpaceOnUse" color-interpolation-filters="sRGB">
<feFlood flood-opacity="0" result="BackgroundImageFix"/>
<feColorMatrix in="SourceAlpha" type="matrix" values="0 0 0 0 0 0 0 0 0 0 0 0 0 0 0 0 0 0 127 0" result="hardAlpha"/>
<feOffset dy="-3"/>
<feGaussianBlur stdDeviation="3"/>
<feColorMatrix type="matrix" values="0 0 0 0 0.788235 0 0 0 0 0.803922 0 0 0 0 0.85098 0 0 0 0.349 0"/>
<feBlend mode="normal" in2="BackgroundImageFix" result="effect1_dropShadow_1540_2498"/>
<feBlend mode="normal" in="SourceGraphic" in2="effect1_dropShadow_1540_2498" result="shape"/>
</filter>
<linearGradient id="paint0_linear_1540_2498" x1="148.162" y1="0.165405" x2="148.162" y2="295.583" gradientUnits="userSpaceOnUse">
<stop stop-color="#699CFF"/>
<stop offset="1" stop-color="#699CFF"/>
</linearGradient>
</defs>
</svg>
