<svg width="23" height="17" viewBox="0 0 23 17" fill="none" xmlns="http://www.w3.org/2000/svg">
<path d="M11.9424 0.981445C6.92418 0.981445 2.63864 4.10277 0.902344 8.50874C2.63864 12.9147 6.92418 16.036 11.9424 16.036C16.9606 16.036 21.2461 12.9147 22.9824 8.50874C21.2461 4.10277 16.9606 0.981445 11.9424 0.981445ZM11.9424 13.5269C9.17234 13.5269 6.92418 11.2788 6.92418 8.50874C6.92418 5.7387 9.17234 3.49055 11.9424 3.49055C14.7124 3.49055 16.9606 5.7387 16.9606 8.50874C16.9606 11.2788 14.7124 13.5269 11.9424 13.5269ZM11.9424 5.49783C10.2763 5.49783 8.93146 6.8427 8.93146 8.50874C8.93146 10.1748 10.2763 11.5197 11.9424 11.5197C13.6084 11.5197 14.9533 10.1748 14.9533 8.50874C14.9533 6.8427 13.6084 5.49783 11.9424 5.49783Z" fill="#0072BC"/>
</svg>
