<svg width="23" height="16" viewBox="0 0 23 16" fill="none" xmlns="http://www.w3.org/2000/svg">
<path d="M11.9424 0.104492C6.92418 0.104492 2.63864 3.22581 0.902344 7.63179C2.63864 12.0378 6.92418 15.1591 11.9424 15.1591C16.9606 15.1591 21.2461 12.0378 22.9824 7.63179C21.2461 3.22581 16.9606 0.104492 11.9424 0.104492ZM11.9424 12.65C9.17234 12.65 6.92418 10.4018 6.92418 7.63179C6.92418 4.86175 9.17234 2.61359 11.9424 2.61359C14.7124 2.61359 16.9606 4.86175 16.9606 7.63179C16.9606 10.4018 14.7124 12.65 11.9424 12.65ZM11.9424 4.62087C10.2763 4.62087 8.93146 5.96575 8.93146 7.63179C8.93146 9.29783 10.2763 10.6427 11.9424 10.6427C13.6084 10.6427 14.9533 9.29783 14.9533 7.63179C14.9533 5.96575 13.6084 4.62087 11.9424 4.62087Z" fill="white"/>
</svg>
