<svg width="25" height="25" viewBox="0 0 25 25" fill="none" xmlns="http://www.w3.org/2000/svg">
<path d="M23.946 13.8002L24.196 13.7973L24.1932 13.5474L24.1637 10.9599L24.1608 10.71L23.9109 10.7128L13.903 10.8269L13.7889 0.81896L13.7861 0.568976L13.5361 0.571825L10.9487 0.601311L10.6987 0.604159L10.7015 0.854143L10.8156 10.862L0.80767 10.9761L0.557686 10.9789L0.560535 11.2289L0.590021 13.8163L0.59287 14.0663L0.842854 14.0635L10.8508 13.9494L10.9648 23.9573L10.9677 24.2073L11.2176 24.2045L13.805 24.175L14.055 24.1721L14.0522 23.9221L13.9381 13.9142L23.946 13.8002Z" fill="white" stroke="white" stroke-width="0.5"/>
</svg>
