<svg width="19" height="19" viewBox="0 0 19 19" fill="none" xmlns="http://www.w3.org/2000/svg">
<path d="M14.3711 0.882324H2.37109C1.26109 0.882324 0.371094 1.78232 0.371094 2.88232V16.8823C0.371094 17.9823 1.26109 18.8823 2.37109 18.8823H16.3711C17.4711 18.8823 18.3711 17.9823 18.3711 16.8823V4.88232L14.3711 0.882324ZM16.3711 16.8823H2.37109V2.88232H13.5411L16.3711 5.71232V16.8823ZM9.37109 9.88232C7.71109 9.88232 6.37109 11.2223 6.37109 12.8823C6.37109 14.5423 7.71109 15.8823 9.37109 15.8823C11.0311 15.8823 12.3711 14.5423 12.3711 12.8823C12.3711 11.2223 11.0311 9.88232 9.37109 9.88232ZM3.37109 3.88232H12.3711V7.88232H3.37109V3.88232Z" fill="white"/>
</svg>
