<svg width="17" height="20" viewBox="0 0 17 20" fill="none" xmlns="http://www.w3.org/2000/svg">
<path d="M8.85547 19.6343C9.95547 19.6343 10.8555 18.7343 10.8555 17.6343H6.85547C6.85547 18.7343 7.75547 19.6343 8.85547 19.6343ZM14.8555 13.6343V8.63428C14.8555 5.56428 13.2255 2.99428 10.3555 2.31428V1.63428C10.3555 0.804277 9.68547 0.134277 8.85547 0.134277C8.02547 0.134277 7.35547 0.804277 7.35547 1.63428V2.31428C4.49547 2.99428 2.85547 5.55428 2.85547 8.63428V13.6343L0.855469 15.6343V16.6343H16.8555V15.6343L14.8555 13.6343ZM12.8555 14.6343H4.85547V8.63428C4.85547 6.15428 6.36547 4.13428 8.85547 4.13428C9.51512 4.13428 10.6182 4.53058 10.6182 4.53058C10.6182 4.53058 10.6182 4.07491 10.9552 3.56944C11.3659 2.95357 11.6991 2.81252 11.6991 2.81252C11.6991 2.81252 12.4097 3.05916 13.8666 4.86328C14.9458 6.63151 14.8555 8.63428 14.8555 8.63428C14.8555 8.63428 14.3779 8.70465 13.8735 8.70465C13.4593 8.70465 12.8555 8.56635 12.8555 8.56635V14.6343Z" fill="#405DB5"/>
<path d="M16.856 5.34253C16.856 6.98765 15.5223 8.32129 13.8772 8.32129C12.2321 8.32129 10.8984 6.98765 10.8984 5.34253C10.8984 3.69741 12.2321 2.36377 13.8772 2.36377C15.5223 2.36377 16.856 3.69741 16.856 5.34253Z" fill="#EB5757"/>
</svg>
