<svg width="65" height="65" viewBox="0 0 65 65" fill="none" xmlns="http://www.w3.org/2000/svg">
<path d="M32.5 48.2059C31.5611 48.2059 30.7854 47.8809 30.173 47.2309C29.5577 46.5809 29.25 45.8226 29.25 44.9559V11.8059L20.9083 20.1476C20.2583 20.7254 19.5 21.033 18.6333 21.0706C17.7667 21.1053 16.9722 20.7615 16.25 20.0393C15.6 19.3893 15.2938 18.6121 15.3313 17.7079C15.366 16.8066 15.6722 16.067 16.25 15.4893L29.7917 1.94759C30.1528 1.58648 30.5688 1.31493 31.0397 1.13293C31.5077 0.953815 31.9944 0.864258 32.5 0.864258C33.0056 0.864258 33.4938 0.953815 33.9647 1.13293C34.4327 1.31493 34.8472 1.58648 35.2083 1.94759L48.75 15.4893C49.4 16.1393 49.7077 16.8976 49.673 17.7643C49.6354 18.6309 49.3278 19.3893 48.75 20.0393C48.0278 20.6893 47.2333 21.033 46.3667 21.0706C45.5 21.1053 44.7417 20.7976 44.0917 20.1476L35.75 11.8059V44.9559C35.75 45.8226 35.4438 46.5809 34.8313 47.2309C34.216 47.8809 33.4389 48.2059 32.5 48.2059ZM7.8 64.9976C5.63333 64.9976 3.79167 64.2393 2.275 62.7226C0.758334 61.2059 0 59.3643 0 57.1976V48.7476C0 47.8087 0.307666 47.0316 0.922999 46.4163C1.53544 45.8038 2.31111 45.4976 3.25 45.4976C4.18889 45.4976 4.96456 45.8038 5.577 46.4163C6.19233 47.0316 6.5 47.8087 6.5 48.7476V57.1976C6.5 57.4865 6.64444 57.7754 6.93333 58.0643C7.22222 58.3531 7.51111 58.4976 7.8 58.4976H57.2C57.4889 58.4976 57.7778 58.3531 58.0667 58.0643C58.3556 57.7754 58.5 57.4865 58.5 57.1976V48.7476C58.5 47.8087 58.8062 47.0316 59.4187 46.4163C60.034 45.8038 60.8111 45.4976 61.75 45.4976C62.6889 45.4976 63.466 45.8038 64.0813 46.4163C64.6938 47.0316 65 47.8087 65 48.7476V57.1976C65 59.3643 64.2417 61.2059 62.725 62.7226C61.2083 64.2393 59.3667 64.9976 57.2 64.9976H7.8Z" fill="#0072BC"/>
</svg>
