<svg width="17" height="15" viewBox="0 0 17 15" fill="none" xmlns="http://www.w3.org/2000/svg">
<path d="M6.22461 7.97403C6.06352 7.97403 5.93044 7.92534 5.82536 7.82796C5.71978 7.73058 5.66699 7.61696 5.66699 7.48712V2.52062L4.23577 3.77036C4.12425 3.85692 3.99414 3.90302 3.84544 3.90864C3.69674 3.91384 3.56044 3.86233 3.43652 3.75413C3.325 3.65675 3.27246 3.54032 3.2789 3.40485C3.28485 3.26981 3.33739 3.15901 3.43652 3.07245L5.75993 1.04365C5.82189 0.98955 5.89326 0.948866 5.97405 0.921599C6.05435 0.894765 6.13787 0.881348 6.22461 0.881348C6.31135 0.881348 6.39512 0.894765 6.47591 0.921599C6.55621 0.948866 6.62733 0.98955 6.68929 1.04365L9.0127 3.07245C9.12422 3.16983 9.17701 3.28345 9.17106 3.41329C9.16462 3.54313 9.11183 3.65675 9.0127 3.75413C8.88878 3.85151 8.75247 3.90302 8.60378 3.90864C8.45508 3.91384 8.32497 3.86774 8.21344 3.77036L6.78223 2.52062V7.48712C6.78223 7.61696 6.72969 7.73058 6.62461 7.82796C6.51903 7.92534 6.3857 7.97403 6.22461 7.97403ZM1.98672 10.4897C1.61497 10.4897 1.29899 10.3761 1.03877 10.1489C0.778548 9.92168 0.648438 9.64577 0.648438 9.32116V8.05519C0.648438 7.91452 0.701225 7.7981 0.806801 7.70591C0.91188 7.61415 1.04497 7.56827 1.20605 7.56827C1.36714 7.56827 1.50023 7.61415 1.60531 7.70591C1.71088 7.7981 1.76367 7.91452 1.76367 8.05519V9.32116C1.76367 9.36444 1.78845 9.40772 1.83802 9.451C1.88759 9.49428 1.93715 9.51592 1.98672 9.51592H10.4625C10.5121 9.51592 10.5616 9.49428 10.6112 9.451C10.6608 9.40772 10.6855 9.36444 10.6855 9.32116V8.05519C10.6855 7.91452 10.7381 7.7981 10.8432 7.70591C10.9487 7.61415 11.0821 7.56827 11.2432 7.56827C11.4043 7.56827 11.5376 7.61415 11.6432 7.70591C11.7482 7.7981 11.8008 7.91452 11.8008 8.05519V9.32116C11.8008 9.64577 11.6707 9.92168 11.4104 10.1489C11.1502 10.3761 10.8342 10.4897 10.4625 10.4897H1.98672Z" fill="#0072BC" stroke="#0072BC"/>
<path d="M15.8779 11.3643C15.8779 12.9874 14.5621 14.3032 12.939 14.3032C11.3158 14.3032 10 12.9874 10 11.3643C10 9.74111 11.3158 8.42529 12.939 8.42529C14.5621 8.42529 15.8779 9.74111 15.8779 11.3643Z" fill="#0072BC"/>
<path d="M15.3913 10.4339L14.7514 9.79395L12.4093 12.1403L11.1253 10.8605L10.4854 11.5004L12.4093 13.4201L15.3913 10.4339Z" fill="#0072BC"/>
<path d="M12.939 14.4532C14.645 14.4532 16.0279 13.0702 16.0279 11.3643C16.0279 9.65827 14.645 8.27529 12.939 8.27529C11.233 8.27529 9.85 9.65827 9.85 11.3643C9.85 13.0702 11.233 14.4532 12.939 14.4532Z" stroke="#FFF5F5" stroke-width="0.3"/>
<path d="M11.8779 13.2165L12.939 12.1554L14.0001 13.2165L14.1061 13.3226L14.2122 13.2165L14.8053 12.6235L14.9114 12.5174L14.8053 12.4113L13.7583 11.3643L14.8053 10.3173L14.9114 10.2113L14.8053 10.1052L14.2122 9.51213L14.1061 9.40606L14.0001 9.51213L12.939 10.5732L11.8779 9.5121L11.7718 9.40603L11.6657 9.5121L11.0726 10.1052L10.9666 10.2112L11.0726 10.3173L12.1196 11.3643L11.0726 12.4113L10.9666 12.5174L11.0726 12.6234L11.6657 13.2165L11.7718 13.3226L11.8779 13.2165Z" fill="white" stroke="#FFF5F5" stroke-width="0.3"/>
</svg>
