<svg width="17" height="15" viewBox="0 0 17 15" fill="none" xmlns="http://www.w3.org/2000/svg">
<path d="M6.42383 8.28946C6.26274 8.28946 6.12965 8.24077 6.02457 8.14339C5.919 8.04601 5.86621 7.93239 5.86621 7.80255V2.83605L4.43499 4.08579C4.32347 4.17235 4.19336 4.21845 4.04466 4.22407C3.89596 4.22927 3.75966 4.17776 3.63574 4.06956C3.52422 3.97218 3.47168 3.85575 3.47812 3.72028C3.48407 3.58524 3.53661 3.47444 3.63574 3.38788L5.95915 1.35908C6.0211 1.30498 6.09248 1.2643 6.17327 1.23703C6.25357 1.21019 6.33709 1.19678 6.42383 1.19678C6.51057 1.19678 6.59433 1.21019 6.67513 1.23703C6.75542 1.2643 6.82655 1.30498 6.88851 1.35908L9.21191 3.38788C9.32344 3.48526 9.37623 3.59888 9.37028 3.72872C9.36383 3.85856 9.31105 3.97218 9.21191 4.06956C9.088 4.16694 8.95169 4.21845 8.80299 4.22407C8.6543 4.22927 8.52419 4.18317 8.41266 4.08579L6.98144 2.83605V7.80255C6.98144 7.93239 6.92891 8.04601 6.82383 8.14339C6.71825 8.24077 6.58492 8.28946 6.42383 8.28946ZM2.18594 10.8052C1.81419 10.8052 1.49821 10.6916 1.23799 10.4643C0.977767 10.2371 0.847656 9.9612 0.847656 9.63659V8.37062C0.847656 8.22995 0.900444 8.11353 1.00602 8.02134C1.1111 7.92958 1.24418 7.8837 1.40527 7.8837C1.56636 7.8837 1.69945 7.92958 1.80453 8.02134C1.9101 8.11353 1.96289 8.22995 1.96289 8.37062V9.63659C1.96289 9.67987 1.98767 9.72315 2.03724 9.76643C2.08681 9.80971 2.13637 9.83135 2.18594 9.83135H10.6617C10.7113 9.83135 10.7609 9.80971 10.8104 9.76643C10.86 9.72315 10.8848 9.67987 10.8848 9.63659V8.37062C10.8848 8.22995 10.9373 8.11353 11.0424 8.02134C11.148 7.92958 11.2813 7.8837 11.4424 7.8837C11.6035 7.8837 11.7368 7.92958 11.8424 8.02134C11.9475 8.11353 12 8.22995 12 8.37062V9.63659C12 9.9612 11.8699 10.2371 11.6097 10.4643C11.3494 10.6916 11.0335 10.8052 10.6617 10.8052H2.18594Z" fill="#0072BC" stroke="#0072BC"/>
<path d="M15.96 11.5698C15.96 13.193 14.6441 14.5088 13.021 14.5088C11.3979 14.5088 10.082 13.193 10.082 11.5698C10.082 9.94668 11.3979 8.63086 13.021 8.63086C14.6441 8.63086 15.96 9.94668 15.96 11.5698Z" fill="#0072BC"/>
<path d="M15.4734 10.6394L14.8335 9.99951L12.4914 12.3459L11.2073 11.066L10.5674 11.7059L12.4914 13.6257L15.4734 10.6394Z" fill="white"/>
<path d="M13.021 14.6588C14.727 14.6588 16.11 13.2758 16.11 11.5698C16.11 9.86384 14.727 8.48086 13.021 8.48086C11.315 8.48086 9.93203 9.86384 9.93203 11.5698C9.93203 13.2758 11.315 14.6588 13.021 14.6588Z" stroke="white" stroke-width="0.3"/>
<path d="M15.96 11.5698C15.96 13.193 14.6441 14.5088 13.021 14.5088C11.3979 14.5088 10.082 13.193 10.082 11.5698C10.082 9.94668 11.3979 8.63086 13.021 8.63086C14.6441 8.63086 15.96 9.94668 15.96 11.5698Z" fill="#0072BC"/>
<path d="M15.4734 10.6394L14.8335 9.99951L12.4914 12.3459L11.2073 11.066L10.5674 11.7059L12.4914 13.6257L15.4734 10.6394Z" fill="white"/>
<path d="M13.021 14.6588C14.727 14.6588 16.11 13.2758 16.11 11.5698C16.11 9.86384 14.727 8.48086 13.021 8.48086C11.315 8.48086 9.93203 9.86384 9.93203 11.5698C9.93203 13.2758 11.315 14.6588 13.021 14.6588Z" stroke="white" stroke-width="0.3"/>
</svg>
