<svg width="16" height="15" viewBox="0 0 16 15" fill="none" xmlns="http://www.w3.org/2000/svg">
<path d="M6.42383 7.80655C6.26274 7.80655 6.12965 7.75786 6.02457 7.66048C5.919 7.5631 5.86621 7.44948 5.86621 7.31964V2.35314L4.43499 3.60288C4.32347 3.68944 4.19336 3.73554 4.04466 3.74116C3.89596 3.74636 3.75966 3.69485 3.63574 3.58665C3.52422 3.48927 3.47168 3.37284 3.47812 3.23737C3.48407 3.10233 3.53661 2.99153 3.63574 2.90497L5.95915 0.876171C6.0211 0.82207 6.09248 0.781386 6.17327 0.754119C6.25357 0.727284 6.33709 0.713867 6.42383 0.713867C6.51057 0.713867 6.59433 0.727284 6.67513 0.754119C6.75542 0.781386 6.82655 0.82207 6.88851 0.876171L9.21191 2.90497C9.32344 3.00235 9.37623 3.11597 9.37028 3.24581C9.36383 3.37565 9.31105 3.48927 9.21191 3.58665C9.088 3.68403 8.95169 3.73554 8.80299 3.74116C8.6543 3.74636 8.52419 3.70026 8.41266 3.60288L6.98144 2.35314V7.31964C6.98144 7.44948 6.92891 7.5631 6.82383 7.66048C6.71825 7.75786 6.58492 7.80655 6.42383 7.80655ZM2.18594 10.3223C1.81419 10.3223 1.49821 10.2087 1.23799 9.98143C0.977767 9.7542 0.847656 9.47829 0.847656 9.15368V7.8877C0.847656 7.74704 0.900444 7.63062 1.00602 7.53843C1.1111 7.44667 1.24418 7.40079 1.40527 7.40079C1.56636 7.40079 1.69945 7.44667 1.80453 7.53843C1.9101 7.63062 1.96289 7.74704 1.96289 7.8877V9.15368C1.96289 9.19696 1.98767 9.24024 2.03724 9.28352C2.08681 9.3268 2.13637 9.34844 2.18594 9.34844H10.6617C10.7113 9.34844 10.7609 9.3268 10.8104 9.28352C10.86 9.24024 10.8848 9.19696 10.8848 9.15368V7.8877C10.8848 7.74704 10.9373 7.63062 11.0424 7.53843C11.148 7.44667 11.2813 7.40079 11.4424 7.40079C11.6035 7.40079 11.7368 7.44667 11.8424 7.53843C11.9475 7.63062 12 7.74704 12 7.8877V9.15368C12 9.47829 11.8699 9.7542 11.6097 9.98143C11.3494 10.2087 11.0335 10.3223 10.6617 10.3223H2.18594Z" fill="white" stroke="white"/>
<path d="M15.96 11.0869C15.96 12.7101 14.6441 14.0259 13.021 14.0259C11.3979 14.0259 10.082 12.7101 10.082 11.0869C10.082 9.46377 11.3979 8.14795 13.021 8.14795C14.6441 8.14795 15.96 9.46377 15.96 11.0869Z" fill="#0072BC"/>
<path d="M15.4734 10.1565L14.8335 9.5166L12.4914 11.8629L11.2073 10.5831L10.5674 11.223L12.4914 13.1428L15.4734 10.1565Z" fill="white"/>
</svg>
