<svg width="16" height="14" viewBox="0 0 16 14" fill="none" xmlns="http://www.w3.org/2000/svg">
<path d="M12.4238 4.26074H0.423828V6.26074H12.4238V4.26074ZM12.4238 0.260742H0.423828V2.26074H12.4238V0.260742ZM0.423828 10.2607H8.42383V8.26074H0.423828V10.2607Z" fill="#0072BC"/>
<path d="M15.7949 10.2603C15.7949 11.8834 14.4791 13.1992 12.856 13.1992C11.2328 13.1992 9.91699 11.8834 9.91699 10.2603C9.91699 8.63711 11.2328 7.32129 12.856 7.32129C14.4791 7.32129 15.7949 8.63711 15.7949 10.2603Z" fill="#0072BC"/>
<path d="M15.3083 9.32985L14.6684 8.68994L12.3263 11.0363L11.0423 9.75646L10.4023 10.3964L12.3263 12.3161L15.3083 9.32985Z" fill="#0072BC"/>
<path d="M12.4385 11.1827H13.3452V11.9424H12.4385V11.1827ZM12.4385 8.14404H13.3452V10.423H12.4385V8.14404Z" fill="white"/>
</svg>
