<svg width="16" height="14" viewBox="0 0 16 14" fill="none" xmlns="http://www.w3.org/2000/svg">
<path d="M12.4238 4.56006H0.423828V6.56006H12.4238V4.56006ZM12.4238 0.560059H0.423828V2.56006H12.4238V0.560059ZM0.423828 10.5601H8.42383V8.56006H0.423828V10.5601Z" fill="#0072BC"/>
<path d="M15.7949 10.5601C15.7949 12.1832 14.4791 13.499 12.856 13.499C11.2328 13.499 9.91699 12.1832 9.91699 10.5601C9.91699 8.93691 11.2328 7.62109 12.856 7.62109C14.4791 7.62109 15.7949 8.93691 15.7949 10.5601Z" fill="#0072BC"/>
<path d="M15.3083 9.62966L14.6684 8.98975L12.3263 11.3361L11.0423 10.0563L10.4023 10.6962L12.3263 12.6159L15.3083 9.62966Z" fill="#0072BC"/>
<path d="M14.0231 8.81399L12.856 9.98117V11.1391L14.0231 12.3063L14.6162 11.7132L13.4631 10.5601L14.6162 9.40707L14.0231 8.81399Z" fill="white"/>
<path d="M11.6888 12.3062L12.856 11.1391V9.98117L11.6888 8.81396L11.0957 9.40704L12.2488 10.5601L11.0957 11.7132L11.6888 12.3062Z" fill="white"/>
</svg>
