<svg width="16" height="14" viewBox="0 0 16 14" fill="none" xmlns="http://www.w3.org/2000/svg">
<path d="M15.8779 10.9316C15.8779 12.5548 14.5621 13.8706 12.939 13.8706C11.3158 13.8706 10 12.5548 10 10.9316C10 9.3085 11.3158 7.99268 12.939 7.99268C14.5621 7.99268 15.8779 9.3085 15.8779 10.9316Z" fill="#0072BC"/>
<path d="M15.3913 10.0012L14.7514 9.36133L12.4093 11.7077L11.1253 10.4278L10.4854 11.0678L12.4093 12.9875L15.3913 10.0012Z" fill="white"/>
<path d="M12.4238 4.93164H0.423828V6.93164H12.4238V4.93164ZM12.4238 0.931641H0.423828V2.93164H12.4238V0.931641ZM0.423828 10.9316H8.42383V8.93164H0.423828V10.9316Z" fill="#0072BC"/>
</svg>
