<svg width="32" height="25" viewBox="0 0 32 25" fill="none" xmlns="http://www.w3.org/2000/svg">
<path d="M27.887 3.8548H22.5984V0.935547H9.28053V3.8548H3.99194C1.79093 3.8548 0 5.4773 0 7.47124V24.9996H31.8796V7.47124C31.8796 5.4773 30.0887 3.8548 27.887 3.8548ZM11.4376 2.88906H20.4424V3.8548H11.4376V2.88906ZM29.7229 23.0464H2.15674V7.47124C2.15674 6.55415 2.9798 5.80798 3.99194 5.80798H27.887C28.8995 5.80798 29.7229 6.55415 29.7229 7.47124V23.0464Z" fill="#405DB5"/>
<path d="M21.557 16.3682L21.4961 12.6305L17.7775 12.5912L17.7253 9.38249L13.6199 9.33909L13.6721 12.5478L9.95341 12.5085L10.0127 16.1534L13.7314 16.1927L13.7851 19.4943L17.8905 19.5377L17.8383 16.3289L21.557 16.3682Z" fill="#405DB5"/>
</svg>
