<svg width="92" height="92" viewBox="0 0 92 92" fill="none" xmlns="http://www.w3.org/2000/svg">
<g filter="url(#filter0_d_854_3281)">
<path d="M87.7656 42.4277C87.7656 65.3475 69.1854 83.9277 46.2656 83.9277C23.3458 83.9277 4.76562 65.3475 4.76562 42.4277C4.76562 19.5079 23.3458 0.927734 46.2656 0.927734C69.1854 0.927734 87.7656 19.5079 87.7656 42.4277Z" fill="#405DB5"/>
</g>
<path d="M22.9456 64.5095L25.161 49.7075L36.8722 59.0271L22.9456 64.5095Z" fill="white"/>
<circle cx="47.5715" cy="40.0286" r="23.7356" fill="white"/>
<path fill-rule="evenodd" clip-rule="evenodd" d="M21.0201 40.8901C21.0201 26.5724 32.625 14.9648 46.9412 14.9648C61.2574 14.9648 72.8623 26.5724 72.8623 40.8901C72.8623 55.2079 61.2574 66.8154 46.9412 66.8154C42.6576 66.8154 38.6112 65.7745 35.0469 63.9304L23.7841 66.7467C23.0644 66.9266 22.3024 66.7366 21.7515 66.2398C21.2006 65.743 20.9331 65.0046 21.038 64.2702L22.9671 50.7643C21.7117 47.7182 21.0201 44.3823 21.0201 40.8901ZM46.9412 19.4208C35.0867 19.4208 25.4761 29.0325 25.4761 40.8901C25.4761 43.9806 26.1275 46.9129 27.2985 49.562C27.4672 49.9436 27.5253 50.3648 27.4663 50.7778L25.9177 61.62L34.8037 59.3981C35.356 59.26 35.9402 59.3386 36.4364 59.6177C39.5396 61.3632 43.1207 62.3595 46.9412 62.3595C58.7957 62.3595 68.4063 52.7477 68.4063 40.8901C68.4063 29.0325 58.7957 19.4208 46.9412 19.4208Z" fill="white"/>
<path d="M43.7601 47.7346V47.2473C43.7601 45.9002 43.871 44.8265 44.0929 44.0261C44.3227 43.2258 44.6555 42.584 45.0913 42.1006C45.5272 41.6093 46.0581 41.1616 46.6841 40.7575C47.1833 40.4405 47.627 40.1196 48.0153 39.7947C48.4115 39.4619 48.7245 39.1053 48.9543 38.725C49.1841 38.3446 49.299 37.9128 49.299 37.4294C49.299 36.9619 49.1881 36.5498 48.9662 36.1932C48.7443 35.8367 48.4392 35.5633 48.051 35.3731C47.6706 35.175 47.2467 35.076 46.7792 35.076C46.3116 35.076 45.8719 35.1829 45.4598 35.3969C45.0557 35.6108 44.7229 35.9159 44.4614 36.3121C44.2078 36.7004 44.0771 37.1719 44.0691 37.7265H38.6016C38.6253 36.0625 39.0096 34.6996 39.7545 33.6377C40.5073 32.5759 41.5018 31.7914 42.7379 31.2843C43.9741 30.7692 45.337 30.5117 46.8267 30.5117C48.4591 30.5117 49.9092 30.7653 51.177 31.2724C52.4528 31.7796 53.4552 32.5284 54.1842 33.5189C54.9132 34.5094 55.2777 35.7218 55.2777 37.156C55.2777 38.099 55.1192 38.931 54.8022 39.6521C54.4853 40.3732 54.0415 41.0111 53.471 41.5657C52.9084 42.1125 52.2467 42.6117 51.486 43.0634C50.8917 43.412 50.3965 43.7765 50.0003 44.1569C49.612 44.5372 49.3188 44.9731 49.1207 45.4644C48.9226 45.9477 48.8236 46.542 48.8236 47.2473V47.7346H43.7601ZM46.3869 55.5318C45.5311 55.5318 44.7982 55.2307 44.188 54.6285C43.5858 54.0263 43.2886 53.2973 43.2965 52.4415C43.2886 51.6015 43.5858 50.8844 44.188 50.2901C44.7982 49.6879 45.5311 49.3868 46.3869 49.3868C47.2031 49.3868 47.9202 49.6879 48.5383 50.2901C49.1564 50.8844 49.4694 51.6015 49.4773 52.4415C49.4694 53.012 49.3188 53.531 49.0256 53.9985C48.7404 54.4661 48.364 54.8385 47.8964 55.1158C47.4369 55.3932 46.9337 55.5318 46.3869 55.5318Z" fill="#405DB5"/>
<defs>
<filter id="filter0_d_854_3281" x="0.765625" y="0.927734" width="91" height="91" filterUnits="userSpaceOnUse" color-interpolation-filters="sRGB">
<feFlood flood-opacity="0" result="BackgroundImageFix"/>
<feColorMatrix in="SourceAlpha" type="matrix" values="0 0 0 0 0 0 0 0 0 0 0 0 0 0 0 0 0 0 127 0" result="hardAlpha"/>
<feOffset dy="4"/>
<feGaussianBlur stdDeviation="2"/>
<feComposite in2="hardAlpha" operator="out"/>
<feColorMatrix type="matrix" values="0 0 0 0 0 0 0 0 0 0 0 0 0 0 0 0 0 0 0.25 0"/>
<feBlend mode="normal" in2="BackgroundImageFix" result="effect1_dropShadow_854_3281"/>
<feBlend mode="normal" in="SourceGraphic" in2="effect1_dropShadow_854_3281" result="shape"/>
</filter>
</defs>
</svg>
