<svg width="77" height="78" viewBox="0 0 77 78" fill="none" xmlns="http://www.w3.org/2000/svg">
<g clip-path="url(#clip0_1405_2485)">
<path d="M45.4004 13.0604L51.2539 19.4577H64.2085V57.8414H13.0301V19.4577H25.9846L31.8382 13.0604H45.4004ZM48.2152 6.66309H29.0233L23.1698 13.0604H13.0301C9.51159 13.0604 6.63281 15.9392 6.63281 19.4577V57.8414C6.63281 61.36 9.51159 64.2387 13.0301 64.2387H64.2085C67.727 64.2387 70.6058 61.36 70.6058 57.8414V19.4577C70.6058 15.9392 67.727 13.0604 64.2085 13.0604H54.0687L48.2152 6.66309ZM38.6193 29.0536C43.897 29.0536 48.2152 33.3718 48.2152 38.6496C48.2152 43.9273 43.897 48.2455 38.6193 48.2455C33.3415 48.2455 29.0233 43.9273 29.0233 38.6496C29.0233 33.3718 33.3415 29.0536 38.6193 29.0536ZM38.6193 22.6563C29.791 22.6563 22.626 29.8213 22.626 38.6496C22.626 47.4778 29.791 54.6428 38.6193 54.6428C47.4475 54.6428 54.6125 47.4778 54.6125 38.6496C54.6125 29.8213 47.4475 22.6563 38.6193 22.6563Z" fill="white"/>
</g>
<defs>
<clipPath id="clip0_1405_2485">
<rect width="76.7675" height="76.7675" fill="white" transform="translate(0.234375 0.265625)"/>
</clipPath>
</defs>
</svg>
