<svg width="38" height="40" viewBox="0 0 38 40" fill="none" xmlns="http://www.w3.org/2000/svg">
<path d="M3.74219 0.720703C1.67969 0.720703 0.0109379 2.4457 0.0109379 4.55404L-0.0078125 35.2207C-0.0078125 37.329 1.66094 39.054 3.72344 39.054H26.2422C28.3047 39.054 29.9922 37.329 29.9922 35.2207V12.2207L18.7422 0.720703H3.74219ZM16.8672 14.1374V3.5957L27.1797 14.1374H16.8672Z" fill="#405DB5"/>
<rect x="8.74609" y="20.6372" width="27.9961" height="14.6768" rx="3.25" fill="white" stroke="#405DB5" stroke-width="1.5"/>
<path d="M13.2649 30.9756H11.3814V25.1574H13.3246C13.8946 25.1574 14.3842 25.2739 14.7933 25.5068C15.2024 25.7379 15.5159 26.0703 15.7337 26.504C15.9534 26.9358 16.0632 27.4538 16.0632 28.058C16.0632 28.664 15.9524 29.1849 15.7308 29.6205C15.5111 30.0561 15.1929 30.3913 14.7763 30.6262C14.3596 30.8591 13.8558 30.9756 13.2649 30.9756ZM12.2592 30.2085H13.2166C13.6598 30.2085 14.0282 30.1252 14.3217 29.9585C14.6153 29.79 14.835 29.5466 14.9808 29.2284C15.1267 28.9084 15.1996 28.5182 15.1996 28.058C15.1996 27.6015 15.1267 27.2142 14.9808 26.896C14.8369 26.5779 14.6219 26.3364 14.3359 26.1716C14.05 26.0068 13.6948 25.9244 13.2706 25.9244H12.2592V30.2085ZM22.2088 28.0665C22.2088 28.6877 22.0952 29.2218 21.8679 29.6688C21.6406 30.1138 21.3291 30.4566 20.9332 30.6972C20.5393 30.9358 20.0914 31.0551 19.5895 31.0551C19.0857 31.0551 18.6359 30.9358 18.2401 30.6972C17.8461 30.4566 17.5355 30.1129 17.3082 29.6659C17.081 29.219 16.9673 28.6858 16.9673 28.0665C16.9673 27.4453 17.081 26.9121 17.3082 26.4671C17.5355 26.0201 17.8461 25.6773 18.2401 25.4387C18.6359 25.1981 19.0857 25.0779 19.5895 25.0779C20.0914 25.0779 20.5393 25.1981 20.9332 25.4387C21.3291 25.6773 21.6406 26.0201 21.8679 26.4671C22.0952 26.9121 22.2088 27.4453 22.2088 28.0665ZM21.3395 28.0665C21.3395 27.593 21.2628 27.1943 21.1094 26.8705C20.9579 26.5447 20.7495 26.2985 20.4844 26.1318C20.2211 25.9633 19.9228 25.879 19.5895 25.879C19.2543 25.879 18.955 25.9633 18.6918 26.1318C18.4285 26.2985 18.2202 26.5447 18.0668 26.8705C17.9152 27.1943 17.8395 27.593 17.8395 28.0665C17.8395 28.54 17.9152 28.9396 18.0668 29.2654C18.2202 29.5892 18.4285 29.8354 18.6918 30.004C18.955 30.1707 19.2543 30.254 19.5895 30.254C19.9228 30.254 20.2211 30.1707 20.4844 30.004C20.7495 29.8354 20.9579 29.5892 21.1094 29.2654C21.2628 28.9396 21.3395 28.54 21.3395 28.0665ZM28.1357 27.0494H27.2493C27.2152 26.8601 27.1518 26.6934 27.0589 26.5494C26.9661 26.4055 26.8525 26.2834 26.718 26.183C26.5836 26.0826 26.433 26.0068 26.2663 25.9557C26.1016 25.9046 25.9264 25.879 25.7408 25.879C25.4055 25.879 25.1054 25.9633 24.8402 26.1318C24.5769 26.3004 24.3686 26.5476 24.2152 26.8733C24.0637 27.1991 23.9879 27.5968 23.9879 28.0665C23.9879 28.54 24.0637 28.9396 24.2152 29.2654C24.3686 29.5911 24.5779 29.8373 24.843 30.004C25.1082 30.1707 25.4065 30.254 25.7379 30.254C25.9216 30.254 26.0959 30.2294 26.2607 30.1801C26.4273 30.129 26.5779 30.0542 26.7124 29.9557C26.8468 29.8572 26.9605 29.7369 27.0533 29.5949C27.148 29.451 27.2133 29.2862 27.2493 29.1006L28.1357 29.1034C28.0883 29.3894 27.9964 29.6527 27.8601 29.8932C27.7256 30.1318 27.5523 30.3383 27.3402 30.5125C27.13 30.6849 26.8894 30.8184 26.6186 30.9131C26.3478 31.0078 26.0523 31.0551 25.7322 31.0551C25.2285 31.0551 24.7796 30.9358 24.3857 30.6972C23.9917 30.4566 23.6811 30.1129 23.4538 29.6659C23.2285 29.219 23.1158 28.6858 23.1158 28.0665C23.1158 27.4453 23.2294 26.9121 23.4567 26.4671C23.6839 26.0201 23.9946 25.6773 24.3885 25.4387C24.7824 25.1981 25.2304 25.0779 25.7322 25.0779C26.041 25.0779 26.3288 25.1224 26.5959 25.2114C26.8648 25.2985 27.1063 25.4273 27.3203 25.5977C27.5343 25.7663 27.7114 25.9727 27.8516 26.2171C27.9917 26.4595 28.0864 26.7369 28.1357 27.0494ZM29.7266 25.1574L31.1186 27.433H31.1641L32.5561 25.1574H33.5732L31.7607 28.0665L33.5845 30.9756H32.5618L31.1641 28.7313H31.1186L29.7209 30.9756H28.6982L30.5533 28.0665L28.7095 25.1574H29.7266Z" fill="#405DB5"/>
</svg>
