<svg width="71" height="74" viewBox="0 0 71 74" fill="none" xmlns="http://www.w3.org/2000/svg">
<path d="M26.8841 30.802H29.8008C30.5743 30.802 31.3162 30.4776 31.8632 29.9003C32.4102 29.3229 32.7174 28.5398 32.7174 27.7233C32.7174 26.9068 32.4102 26.1237 31.8632 25.5463C31.3162 24.9689 30.5743 24.6446 29.8008 24.6446H26.8841C26.1106 24.6446 25.3687 24.9689 24.8217 25.5463C24.2747 26.1237 23.9674 26.9068 23.9674 27.7233C23.9674 28.5398 24.2747 29.3229 24.8217 29.9003C25.3687 30.4776 26.1106 30.802 26.8841 30.802ZM26.8841 36.9594C26.1106 36.9594 25.3687 37.2838 24.8217 37.8611C24.2747 38.4385 23.9674 39.2216 23.9674 40.0381C23.9674 40.8546 24.2747 41.6377 24.8217 42.2151C25.3687 42.7924 26.1106 43.1168 26.8841 43.1168H44.3841C45.1577 43.1168 45.8995 42.7924 46.4465 42.2151C46.9935 41.6377 47.3008 40.8546 47.3008 40.0381C47.3008 39.2216 46.9935 38.4385 46.4465 37.8611C45.8995 37.2838 45.1577 36.9594 44.3841 36.9594H26.8841ZM58.9674 27.5386C58.9371 27.2557 58.8784 26.9771 58.7924 26.7073V26.4302C58.6522 26.1137 58.4651 25.8227 58.2383 25.5682L40.7383 7.09597C40.4972 6.8565 40.2215 6.65905 39.9216 6.51102C39.8346 6.49797 39.7462 6.49797 39.6591 6.51102C39.3628 6.33166 39.0356 6.21652 38.6966 6.17236H21.0508C18.7301 6.17236 16.5045 7.14545 14.8636 8.87756C13.2227 10.6097 12.3008 12.9589 12.3008 15.4085V58.5103C12.3008 60.9599 13.2227 63.3091 14.8636 65.0412C16.5045 66.7733 18.7301 67.7464 21.0508 67.7464H50.2174C52.5381 67.7464 54.7637 66.7733 56.4046 65.0412C58.0456 63.3091 58.9674 60.9599 58.9674 58.5103V27.7233C58.9674 27.7233 58.9674 27.7233 58.9674 27.5386ZM41.4674 16.6707L49.0216 24.6446H44.3841C43.6106 24.6446 42.8687 24.3202 42.3217 23.7429C41.7747 23.1655 41.4674 22.3824 41.4674 21.5659V16.6707ZM53.1341 58.5103C53.1341 59.3268 52.8268 60.1099 52.2798 60.6873C51.7329 61.2647 50.991 61.589 50.2174 61.589H21.0508C20.2772 61.589 19.5354 61.2647 18.9884 60.6873C18.4414 60.1099 18.1341 59.3268 18.1341 58.5103V15.4085C18.1341 14.592 18.4414 13.8089 18.9884 13.2315C19.5354 12.6541 20.2772 12.3298 21.0508 12.3298H35.6341V21.5659C35.6341 24.0154 36.556 26.3647 38.1969 28.0968C39.8379 29.8289 42.0635 30.802 44.3841 30.802H53.1341V58.5103ZM44.3841 49.2742H26.8841C26.1106 49.2742 25.3687 49.5986 24.8217 50.1759C24.2747 50.7533 23.9674 51.5364 23.9674 52.3529C23.9674 53.1694 24.2747 53.9525 24.8217 54.5299C25.3687 55.1073 26.1106 55.4316 26.8841 55.4316H44.3841C45.1577 55.4316 45.8995 55.1073 46.4465 54.5299C46.9935 53.9525 47.3008 53.1694 47.3008 52.3529C47.3008 51.5364 46.9935 50.7533 46.4465 50.1759C45.8995 49.5986 45.1577 49.2742 44.3841 49.2742Z" fill="#4378DB"/>
</svg>
