<svg width="38" height="40" viewBox="0 0 38 40" fill="none" xmlns="http://www.w3.org/2000/svg">
<path d="M3.74219 0.720703C1.67969 0.720703 0.0109379 2.4457 0.0109379 4.55404L-0.0078125 35.2207C-0.0078125 37.329 1.66094 39.054 3.72344 39.054H26.2422C28.3047 39.054 29.9922 37.329 29.9922 35.2207V12.2207L18.7422 0.720703H3.74219ZM16.8672 14.1374V3.5957L27.1797 14.1374H16.8672Z" fill="#405DB5"/>
<rect x="15.1484" y="20.6372" width="21.5938" height="14.6768" rx="3.25" fill="white" stroke="#405DB5" stroke-width="1.5"/>
<path d="M18.7134 30.9756V25.1574H20.7873C21.2399 25.1574 21.6149 25.2398 21.9123 25.4046C22.2096 25.5693 22.4322 25.7947 22.5799 26.0807C22.7276 26.3648 22.8015 26.6849 22.8015 27.0409C22.8015 27.3989 22.7267 27.7209 22.5771 28.0068C22.4293 28.2909 22.2058 28.5163 21.9066 28.683C21.6093 28.8477 21.2352 28.9301 20.7844 28.9301H19.3583V28.1858H20.7049C20.9909 28.1858 21.2229 28.1366 21.4009 28.0381C21.579 27.9377 21.7096 27.8013 21.793 27.629C21.8763 27.4566 21.918 27.2606 21.918 27.0409C21.918 26.8212 21.8763 26.6262 21.793 26.4557C21.7096 26.2852 21.578 26.1517 21.3981 26.0551C21.2201 25.9585 20.9852 25.9102 20.6935 25.9102H19.5913V30.9756H18.7134ZM25.7141 30.9756H23.8306V25.1574H25.7738C26.3439 25.1574 26.8335 25.2739 27.2425 25.5068C27.6516 25.7379 27.9651 26.0703 28.1829 26.504C28.4026 26.9358 28.5124 27.4538 28.5124 28.058C28.5124 28.664 28.4016 29.1849 28.18 29.6205C27.9603 30.0561 27.6422 30.3913 27.2255 30.6262C26.8088 30.8591 26.305 30.9756 25.7141 30.9756ZM24.7085 30.2085H25.6658C26.109 30.2085 26.4774 30.1252 26.771 29.9585C27.0645 29.79 27.2842 29.5466 27.43 29.2284C27.5759 28.9084 27.6488 28.5182 27.6488 28.058C27.6488 27.6015 27.5759 27.2142 27.43 26.896C27.2861 26.5779 27.0711 26.3364 26.7852 26.1716C26.4992 26.0068 26.1441 25.9244 25.7198 25.9244H24.7085V30.2085ZM29.604 30.9756V25.1574H33.212V25.9131H30.4819V27.6858H32.9535V28.4387H30.4819V30.9756H29.604Z" fill="#405DB5"/>
</svg>
