<svg width="20" height="20" viewBox="0 0 20 20" fill="none" xmlns="http://www.w3.org/2000/svg">
<path d="M2.41667 13.25H0.25V17.5833C0.25 18.775 1.225 19.75 2.41667 19.75H6.75V17.5833H2.41667V13.25ZM2.41667 2.41667H6.75V0.25H2.41667C1.225 0.25 0.25 1.225 0.25 2.41667V6.75H2.41667V2.41667ZM10 5.66667C7.60583 5.66667 5.66667 7.60583 5.66667 10C5.66667 12.3942 7.60583 14.3333 10 14.3333C12.3942 14.3333 14.3333 12.3942 14.3333 10C14.3333 7.60583 12.3942 5.66667 10 5.66667ZM10 12.1667C8.80833 12.1667 7.83333 11.1917 7.83333 10C7.83333 8.80833 8.80833 7.83333 10 7.83333C11.1917 7.83333 12.1667 8.80833 12.1667 10C12.1667 11.1917 11.1917 12.1667 10 12.1667ZM17.5833 0.25H13.25V2.41667H17.5833V6.75H19.75V2.41667C19.75 1.225 18.775 0.25 17.5833 0.25ZM17.5833 17.5833H13.25V19.75H17.5833C18.775 19.75 19.75 18.775 19.75 17.5833V13.25H17.5833V17.5833Z" fill="#808080"/>
</svg>
