<svg width="19" height="19" viewBox="0 0 19 19" fill="none" xmlns="http://www.w3.org/2000/svg">
<path d="M13.3203 11.5835H12.5303L12.2503 11.3135C13.2303 10.1735 13.8203 8.6935 13.8203 7.0835C13.8203 3.4935 10.9103 0.583496 7.32031 0.583496C3.73031 0.583496 0.820312 3.4935 0.820312 7.0835C0.820312 10.6735 3.73031 13.5835 7.32031 13.5835C8.93031 13.5835 10.4103 12.9935 11.5503 12.0135L11.8203 12.2935V13.0835L16.8203 18.0735L18.3103 16.5835L13.3203 11.5835ZM7.32031 11.5835C4.83031 11.5835 2.82031 9.5735 2.82031 7.0835C2.82031 4.5935 4.83031 2.5835 7.32031 2.5835C9.81031 2.5835 11.8203 4.5935 11.8203 7.0835C11.8203 9.5735 9.81031 11.5835 7.32031 11.5835Z" fill="#405DB5"/>
</svg>
