<svg width="29" height="26" viewBox="0 0 29 26" fill="none" xmlns="http://www.w3.org/2000/svg">
<path d="M24.6879 8.54398L27.9289 17.45H25.4634H24.7134V18.2V25.25H21.9695V15.6C21.9695 14.5841 21.6832 13.6536 21.1098 12.8311C20.6849 12.2216 20.1665 11.7129 19.5584 11.3078L20.5791 8.54761L20.5815 8.5409L20.5839 8.53414C20.7144 8.15937 20.9506 7.85808 21.3237 7.61888C21.7028 7.37585 22.1325 7.25 22.6341 7.25C23.1358 7.25 23.5655 7.37585 23.9446 7.61888C24.3177 7.85809 24.5539 8.15937 24.6844 8.53414L24.6843 8.53416L24.6879 8.54398ZM7.03049 16.9V25.25H2.87195V16.9V16.15H2.12195H0.75V9.1C0.75 8.607 0.929933 8.19151 1.33858 7.81598C1.74914 7.43869 2.23214 7.25 2.82927 7.25H7.07317C7.6703 7.25 8.1533 7.43869 8.56386 7.81598C8.97251 8.19151 9.15244 8.607 9.15244 9.1V16.15H7.78049H7.03049V16.9ZM16.2256 20.8V25.25H13.4817V20.8V20.05H12.7317H12.0671V15.6C12.0671 15.2763 12.1794 15.0137 12.4435 14.771C12.71 14.5261 13.0269 14.4 13.439 14.4H16.2683C16.6805 14.4 16.9973 14.5261 17.2639 14.771C17.5279 15.0137 17.6402 15.2763 17.6402 15.6V20.05H16.9756H16.2256V20.8ZM22.6341 4.45C22.037 4.45 21.554 4.26131 21.1435 3.88402C20.7348 3.50848 20.5549 3.093 20.5549 2.6C20.5549 2.107 20.7348 1.69151 21.1435 1.31598C21.554 0.938689 22.037 0.75 22.6341 0.75C23.2313 0.75 23.7143 0.938689 24.1248 1.31598C24.5335 1.69152 24.7134 2.107 24.7134 2.6C24.7134 3.093 24.5335 3.50848 24.1248 3.88402C23.7143 4.26131 23.2313 4.45 22.6341 4.45ZM14.8537 11.6C14.4415 11.6 14.1246 11.4739 13.8581 11.229C13.594 10.9863 13.4817 10.7237 13.4817 10.4C13.4817 10.0763 13.594 9.81367 13.8581 9.57098C14.1246 9.32607 14.4415 9.2 14.8537 9.2C15.2658 9.2 15.5827 9.32607 15.8492 9.57098C16.1133 9.81367 16.2256 10.0763 16.2256 10.4C16.2256 10.7237 16.1133 10.9863 15.8492 11.229C15.5827 11.4739 15.2658 11.6 14.8537 11.6ZM4.95122 4.45C4.35409 4.45 3.87109 4.26131 3.46053 3.88402C3.05188 3.50848 2.87195 3.093 2.87195 2.6C2.87195 2.107 3.05188 1.69152 3.46053 1.31598C3.87109 0.938689 4.35409 0.75 4.95122 0.75C5.54834 0.75 6.03134 0.938689 6.44191 1.31598C6.85055 1.69152 7.03049 2.107 7.03049 2.6C7.03049 3.093 6.85055 3.50848 6.44191 3.88402C6.03134 4.26131 5.54835 4.45 4.95122 4.45Z" stroke="#405DB5" stroke-width="1.5"/>
</svg>
