<svg width="31" height="29" viewBox="0 0 31 29" fill="none" xmlns="http://www.w3.org/2000/svg">
<path d="M17.155 0.78087L17.33 0.944869L30.402 13.7869L29 15.2129L27.2 13.4449L27.201 26.9999C27.201 28.0539 26.385 28.9179 25.35 28.9939L25.201 28.9999H5.201C4.147 28.9999 3.283 28.1839 3.206 27.1489L3.201 26.9999L3.2 13.4459L1.402 15.2129L0 13.7869L13.058 0.95787C14.171 -0.178131 15.966 -0.241131 17.155 0.78087ZM14.569 2.28487L14.473 2.37187L5.2 11.4809L5.201 26.9999L10.2 26.9989L10.201 16.9999C10.201 15.9459 11.017 15.0819 12.052 15.0049L12.201 14.9999H18.201C19.255 14.9999 20.119 15.8159 20.196 16.8509L20.201 16.9999L20.2 26.9989L25.201 26.9999L25.2 11.4799L15.901 2.34387C15.537 1.98687 14.969 1.96487 14.569 2.28487ZM18.201 16.9999H12.201L12.2 26.9989H18.2L18.201 16.9999Z" fill="#405DB5"/>
</svg>
