<svg width="375" height="347" viewBox="0 0 375 347" fill="none" xmlns="http://www.w3.org/2000/svg">
<path d="M206.992 87.0723C206.408 86.7056 205.985 86.1347 205.813 85.4797C205.641 84.8248 205.732 84.1368 206.067 83.5605L218.267 61.5992C218.43 61.2904 218.656 61.0189 218.932 60.8009C219.207 60.5828 219.525 60.4227 219.869 60.3299C220.212 60.2372 220.572 60.2138 220.929 60.2612C221.285 60.3085 221.631 60.4256 221.944 60.6055L223.723 61.6787C224.028 61.8712 224.292 62.1212 224.499 62.4138C224.706 62.7063 224.852 63.0352 224.927 63.3808C225.003 63.7264 225.007 64.0815 224.94 64.4247C224.872 64.768 224.734 65.0923 224.533 65.3781L210.555 86.2662C210.194 86.8284 209.622 87.2261 208.958 87.3763C208.294 87.5265 207.59 87.4176 206.992 87.0723Z" fill="#418DF9"/>
<path d="M195.027 83.6458C194.587 83.5673 194.192 83.321 193.928 82.9612C193.665 82.6014 193.555 82.1575 193.622 81.7272L195.86 65.4564C195.921 64.9923 196.167 64.5758 196.545 64.2986C196.923 64.0213 197.402 63.9059 197.877 63.9775L199.224 64.208C199.454 64.2494 199.674 64.3371 199.871 64.4655C200.067 64.5938 200.235 64.76 200.365 64.9536C200.495 65.1471 200.583 65.3639 200.624 65.5901C200.665 65.8163 200.658 66.0472 200.603 66.268L197.019 82.3083C196.926 82.741 196.669 83.1188 196.3 83.3667C195.931 83.6145 195.477 83.7142 195.027 83.6458Z" fill="#418DF9"/>
<path d="M184.958 88.7493C183.667 89.3313 182.03 88.5189 181.248 86.9074L167.347 58.2961C166.517 56.5871 166.966 54.6481 168.335 54.0308L170.243 53.1704C171.613 52.553 173.351 53.5054 174.067 55.2665L186.059 84.738C186.734 86.3978 186.248 88.1671 184.958 88.7493Z" fill="#418DF9"/>
<path d="M325.588 210.906L202.908 102.058C198.361 98.0248 191.448 98.2841 187.467 102.637L121.101 175.209C117.12 179.563 117.578 186.362 122.124 190.396L244.804 299.243C249.35 303.277 256.263 303.018 260.245 298.664L326.611 226.092C330.592 221.739 330.134 214.94 325.588 210.906Z" fill="#A2BDFF"/>
<path d="M320.347 232.942L181.203 109.488L167.316 124.674L306.459 248.129L320.347 232.942Z" fill="#418DF9"/>
<path d="M259.093 284.549L231.425 260.001C231.337 259.923 231.203 259.928 231.126 260.013L224.678 267.064C224.601 267.148 224.61 267.28 224.698 267.358L252.365 291.906C252.453 291.984 252.587 291.979 252.664 291.895L259.112 284.844C259.19 284.759 259.181 284.627 259.093 284.549Z" fill="white"/>
<path d="M268.303 122.56L75.1878 87.853C69.2161 86.7797 63.6246 90.6415 62.699 96.4786L43.9837 214.499C43.0581 220.336 47.1488 225.938 53.1206 227.011L246.236 261.718C252.207 262.791 257.799 258.929 258.724 253.092L277.44 135.072C278.365 129.235 274.275 123.633 268.303 122.56Z" fill="#699CFF"/>
<path d="M257.94 133.482L235.413 129.434C231.83 128.79 228.476 131.107 227.92 134.609L224.429 156.627C223.873 160.129 226.328 163.49 229.911 164.134L252.437 168.183C256.02 168.827 259.375 166.51 259.93 163.007L263.422 140.989C263.977 137.487 261.523 134.126 257.94 133.482Z" fill="white"/>
<path d="M142.977 185.41L68.0488 171.944C67.8341 171.905 67.6332 172.044 67.5999 172.254L65.8827 183.083C65.8494 183.293 65.9964 183.494 66.211 183.533L141.139 196.999C141.354 197.037 141.555 196.899 141.588 196.689L143.305 185.86C143.338 185.65 143.191 185.449 142.977 185.41Z" fill="white"/>
<path d="M171.433 213.538L64.498 194.32C64.2834 194.281 64.0824 194.42 64.0491 194.63L62.3319 205.459C62.2987 205.669 62.4457 205.87 62.6603 205.909L169.595 225.127C169.81 225.166 170.011 225.027 170.044 224.817L171.761 213.988C171.794 213.778 171.647 213.577 171.433 213.538Z" fill="white"/>
</svg>
