<svg width="175" height="175" viewBox="0 0 175 175" fill="none" xmlns="http://www.w3.org/2000/svg">
<g opacity="1" clip-path="url(#clip0_1405_2244)">
<path d="M69.7755 25.3461L50.3393 79.6497L76.1235 27.8199L76.2044 27.6486L69.7755 25.3461ZM92.3004 33.4115L130.181 52.2369L131.853 47.5739L92.3004 33.4115ZM79.0792 31.7432L35.8169 118.715L94.836 148.072L138.096 61.0753L79.0792 31.7432ZM79.1166 44.296L128.074 68.6489L126.117 72.5601L77.1583 48.2192L79.1166 44.296ZM80.8972 66.9959L108.882 80.8994L106.926 84.8105L78.9411 70.9071L80.8972 66.9959ZM82.9541 82.2138C85.2356 82.631 87.484 83.3648 89.6665 84.4589C102.317 90.7432 107.513 106.163 101.205 118.809C94.9162 131.483 79.5009 136.655 66.8552 130.347C54.181 124.058 49.0083 108.643 55.2927 95.9929C60.5114 85.5057 71.9876 80.1587 82.9541 82.2138ZM82.1439 86.5082C76.4325 85.439 70.579 86.7759 65.931 90.0707L73.9846 94.075C76.5119 91.1122 79.5105 88.5582 82.8164 86.6312L82.1439 86.5082ZM87.2333 89.35C83.8537 90.8663 80.7417 93.2259 78.0791 96.1144L87.3593 100.74C88.0424 96.8691 88.0638 92.9517 87.2333 89.35ZM92.0529 91.2241C92.5229 95.0329 92.2765 98.9588 91.4538 102.779L99.5074 106.784C99.3278 100.844 96.6674 95.1703 92.0529 91.2241ZM62.4252 93.2269C61.1791 94.6123 60.0944 96.2009 59.2278 97.9535C58.3657 99.682 57.7634 101.483 57.41 103.28L66.2603 107.678C66.8582 105.901 67.5959 104.174 68.4252 102.49C69.2545 100.805 70.2235 99.17 71.2754 97.6251L62.4252 93.2269ZM75.2586 99.5944C74.1587 101.131 73.1896 102.765 72.3603 104.45C71.531 106.135 70.813 107.89 70.2631 109.676L81.2719 115.163C82.3478 113.623 83.3364 112.017 84.1701 110.308C84.9995 108.623 85.7175 106.868 86.2674 105.082L75.2586 99.5944ZM90.2746 107.056C89.6767 108.833 88.9346 110.583 88.1053 112.268C87.276 113.953 86.3069 115.588 85.2506 117.157L94.1009 121.555C95.323 120.165 96.4033 118.601 97.2698 116.848C98.1363 115.095 98.7387 113.295 99.1249 111.454L90.2746 107.056ZM56.999 107.97C57.1502 113.929 59.8259 119.655 64.5124 123.615C64.0228 119.777 64.2452 115.847 65.0767 111.979L56.999 107.97ZM69.1712 114.018C68.4837 117.913 68.4667 121.806 69.2928 125.432C72.6768 123.892 75.7887 121.532 78.4754 118.648L69.1712 114.018ZM82.5459 120.683C79.9901 123.665 76.9915 126.219 73.6617 128.142C79.6217 129.48 85.7723 128.148 90.6235 124.692L82.5459 120.683Z" fill="#405DB5" stroke="#405DB5" stroke-width="0.00512"/>
<circle cx="99.3711" cy="147.638" r="18" fill="white"/>
<g clip-path="url(#clip1_1405_2244)">
<path d="M100.871 140.138H97.8711V146.138H91.8711V149.138H97.8711V155.138H100.871V149.138H106.871V146.138H100.871V140.138ZM99.3711 132.638C91.0911 132.638 84.3711 139.358 84.3711 147.638C84.3711 155.918 91.0911 162.638 99.3711 162.638C107.651 162.638 114.371 155.918 114.371 147.638C114.371 139.358 107.651 132.638 99.3711 132.638ZM99.3711 159.638C92.7561 159.638 87.3711 154.253 87.3711 147.638C87.3711 141.023 92.7561 135.638 99.3711 135.638C105.986 135.638 111.371 141.023 111.371 147.638C111.371 154.253 105.986 159.638 99.3711 159.638Z" fill="#405DB5"/>
</g>
</g>
<defs>
<clipPath id="clip0_1405_2244">
<rect width="150" height="150" fill="white" transform="translate(27.0859 0.370117) rotate(10.3632)"/>
</clipPath>
<clipPath id="clip1_1405_2244">
<rect width="36" height="36" fill="white" transform="translate(81.3711 129.638)"/>
</clipPath>
</defs>
</svg>

