<svg width="46" height="47" viewBox="0 0 46 47" fill="none" xmlns="http://www.w3.org/2000/svg">
<path d="M11.7422 4.7207C9.67969 4.7207 8.01094 6.4457 8.01094 8.55404L7.99219 39.2207C7.99219 41.329 9.66094 43.054 11.7234 43.054H34.2422C36.3047 43.054 37.9922 41.329 37.9922 39.2207V16.2207L26.7422 4.7207H11.7422ZM24.8672 18.1374V7.5957L35.1797 18.1374H24.8672Z" fill="#405DB5"/>
<rect x="16.7461" y="24.6372" width="27.9961" height="14.6768" rx="3.25" fill="white" stroke="#405DB5" stroke-width="1.5"/>
<path d="M21.2649 34.9756H19.3814V29.1574H21.3246C21.8946 29.1574 22.3842 29.2739 22.7933 29.5068C23.2024 29.7379 23.5159 30.0703 23.7337 30.504C23.9534 30.9358 24.0632 31.4538 24.0632 32.058C24.0632 32.664 23.9524 33.1849 23.7308 33.6205C23.5111 34.0561 23.1929 34.3913 22.7763 34.6262C22.3596 34.8591 21.8558 34.9756 21.2649 34.9756ZM20.2592 34.2085H21.2166C21.6598 34.2085 22.0282 34.1252 22.3217 33.9585C22.6153 33.79 22.835 33.5466 22.9808 33.2284C23.1267 32.9084 23.1996 32.5182 23.1996 32.058C23.1996 31.6015 23.1267 31.2142 22.9808 30.896C22.8369 30.5779 22.6219 30.3364 22.3359 30.1716C22.05 30.0068 21.6948 29.9244 21.2706 29.9244H20.2592V34.2085ZM30.2088 32.0665C30.2088 32.6877 30.0952 33.2218 29.8679 33.6688C29.6406 34.1138 29.3291 34.4566 28.9332 34.6972C28.5393 34.9358 28.0914 35.0551 27.5895 35.0551C27.0857 35.0551 26.6359 34.9358 26.2401 34.6972C25.8461 34.4566 25.5355 34.1129 25.3082 33.6659C25.081 33.219 24.9673 32.6858 24.9673 32.0665C24.9673 31.4453 25.081 30.9121 25.3082 30.4671C25.5355 30.0201 25.8461 29.6773 26.2401 29.4387C26.6359 29.1981 27.0857 29.0779 27.5895 29.0779C28.0914 29.0779 28.5393 29.1981 28.9332 29.4387C29.3291 29.6773 29.6406 30.0201 29.8679 30.4671C30.0952 30.9121 30.2088 31.4453 30.2088 32.0665ZM29.3395 32.0665C29.3395 31.593 29.2628 31.1943 29.1094 30.8705C28.9579 30.5447 28.7495 30.2985 28.4844 30.1318C28.2211 29.9633 27.9228 29.879 27.5895 29.879C27.2543 29.879 26.955 29.9633 26.6918 30.1318C26.4285 30.2985 26.2202 30.5447 26.0668 30.8705C25.9152 31.1943 25.8395 31.593 25.8395 32.0665C25.8395 32.54 25.9152 32.9396 26.0668 33.2654C26.2202 33.5892 26.4285 33.8354 26.6918 34.004C26.955 34.1707 27.2543 34.254 27.5895 34.254C27.9228 34.254 28.2211 34.1707 28.4844 34.004C28.7495 33.8354 28.9579 33.5892 29.1094 33.2654C29.2628 32.9396 29.3395 32.54 29.3395 32.0665ZM36.1357 31.0494H35.2493C35.2152 30.8601 35.1518 30.6934 35.0589 30.5494C34.9661 30.4055 34.8525 30.2834 34.718 30.183C34.5836 30.0826 34.433 30.0068 34.2663 29.9557C34.1016 29.9046 33.9264 29.879 33.7408 29.879C33.4055 29.879 33.1054 29.9633 32.8402 30.1318C32.5769 30.3004 32.3686 30.5476 32.2152 30.8733C32.0637 31.1991 31.9879 31.5968 31.9879 32.0665C31.9879 32.54 32.0637 32.9396 32.2152 33.2654C32.3686 33.5911 32.5779 33.8373 32.843 34.004C33.1082 34.1707 33.4065 34.254 33.7379 34.254C33.9216 34.254 34.0959 34.2294 34.2607 34.1801C34.4273 34.129 34.5779 34.0542 34.7124 33.9557C34.8468 33.8572 34.9605 33.7369 35.0533 33.5949C35.148 33.451 35.2133 33.2862 35.2493 33.1006L36.1357 33.1034C36.0883 33.3894 35.9964 33.6527 35.8601 33.8932C35.7256 34.1318 35.5523 34.3383 35.3402 34.5125C35.13 34.6849 34.8894 34.8184 34.6186 34.9131C34.3478 35.0078 34.0523 35.0551 33.7322 35.0551C33.2285 35.0551 32.7796 34.9358 32.3857 34.6972C31.9917 34.4566 31.6811 34.1129 31.4538 33.6659C31.2285 33.219 31.1158 32.6858 31.1158 32.0665C31.1158 31.4453 31.2294 30.9121 31.4567 30.4671C31.6839 30.0201 31.9946 29.6773 32.3885 29.4387C32.7824 29.1981 33.2304 29.0779 33.7322 29.0779C34.041 29.0779 34.3288 29.1224 34.5959 29.2114C34.8648 29.2985 35.1063 29.4273 35.3203 29.5977C35.5343 29.7663 35.7114 29.9727 35.8516 30.2171C35.9917 30.4595 36.0864 30.7369 36.1357 31.0494ZM37.7266 29.1574L39.1186 31.433H39.1641L40.5561 29.1574H41.5732L39.7607 32.0665L41.5845 34.9756H40.5618L39.1641 32.7313H39.1186L37.7209 34.9756H36.6982L38.5533 32.0665L36.7095 29.1574H37.7266Z" fill="#405DB5"/>
</svg>
