<svg width="508" height="444" viewBox="0 0 508 444" fill="none" xmlns="http://www.w3.org/2000/svg">
<path d="M378.87 154.566C379.07 157.753 379.205 160.965 379.273 164.2L376.273 164.263C376.306 165.848 376.323 167.439 376.323 169.035C376.323 170.631 376.306 172.222 376.273 173.807L379.273 173.87C379.205 177.105 379.071 180.317 378.87 183.504L375.876 183.316C375.676 186.503 375.409 189.664 375.077 192.796L378.061 193.111C377.72 196.329 377.313 199.516 376.84 202.672L373.873 202.228C373.4 205.388 372.86 208.514 372.257 211.605L375.201 212.18C374.58 215.36 373.892 218.503 373.139 221.607L370.224 220.9C369.471 224.003 368.652 227.066 367.77 230.085L370.65 230.926C369.741 234.035 368.767 237.099 367.728 240.114L364.891 239.137C363.853 242.153 362.749 245.118 361.583 248.03L364.368 249.145C363.162 252.158 361.89 255.114 360.555 258.012L357.831 256.757C356.495 259.656 355.095 262.494 353.635 265.268L356.289 266.666C354.779 269.535 353.203 272.337 351.566 275.068L348.993 273.526C347.354 276.259 345.653 278.92 343.893 281.503L346.372 283.192C344.543 285.876 342.65 288.479 340.698 290.997L338.327 289.159C336.378 291.672 334.369 294.097 332.304 296.43L334.55 298.418C332.397 300.85 330.183 303.185 327.911 305.418L325.808 303.279C323.545 305.503 321.225 307.623 318.852 309.633L320.792 311.922C318.318 314.018 315.785 316 313.199 317.862L311.446 315.427C308.883 317.273 306.266 318.996 303.602 320.592L305.144 323.166C302.369 324.828 299.54 326.357 296.663 327.747L295.358 325.046C292.533 326.41 289.662 327.636 286.75 328.717L287.794 331.53C284.774 332.65 281.709 333.621 278.603 334.435L277.842 331.534C274.833 332.323 271.786 332.96 268.704 333.44L269.166 336.405C266.005 336.897 262.807 337.23 259.578 337.396L259.424 334.4C257.874 334.48 256.316 334.52 254.751 334.52C253.187 334.52 251.629 334.48 250.079 334.4L249.924 337.396C246.696 337.23 243.498 336.897 240.337 336.405L240.799 333.44C237.717 332.96 234.67 332.323 231.661 331.534L230.9 334.435C227.794 333.621 224.729 332.65 221.709 331.53L222.753 328.717C219.84 327.636 216.969 326.41 214.145 325.046L212.84 327.747C209.962 326.357 207.134 324.828 204.359 323.166L205.901 320.592C203.236 318.996 200.62 317.273 198.056 315.427L196.304 317.862C193.717 316 191.185 314.018 188.711 311.922L190.65 309.633C188.278 307.623 185.958 305.503 183.695 303.279L181.592 305.418C179.32 303.185 177.105 300.85 174.953 298.418L177.199 296.43C175.133 294.097 173.125 291.672 171.176 289.159L168.805 290.997C166.852 288.479 164.96 285.876 163.131 283.192L165.61 281.503C163.85 278.92 162.149 276.259 160.51 273.526L157.937 275.068C156.299 272.337 154.724 269.535 153.213 266.666L155.868 265.268C154.407 262.494 153.008 259.656 151.672 256.757L148.947 258.012C147.612 255.114 146.341 252.158 145.135 249.145L147.92 248.03C146.754 245.118 145.65 242.153 144.611 239.137L141.775 240.114C140.736 237.099 139.761 234.035 138.853 230.926L141.733 230.085C140.851 227.066 140.032 224.003 139.279 220.9L136.364 221.607C135.611 218.503 134.923 215.36 134.302 212.18L137.246 211.605C136.642 208.514 136.103 205.388 135.629 202.228L132.663 202.672C132.19 199.517 131.782 196.329 131.442 193.111L134.425 192.796C134.094 189.664 133.827 186.503 133.627 183.316L130.633 183.504C130.432 180.317 130.297 177.105 130.23 173.87L133.229 173.808C133.196 172.222 133.18 170.631 133.18 169.035C133.18 167.439 133.196 165.848 133.229 164.263L130.23 164.2C130.297 160.965 130.432 157.753 130.633 154.566L133.627 154.754C133.827 151.567 134.094 148.407 134.425 145.274L131.442 144.959C131.782 141.742 132.19 138.554 132.663 135.398L135.629 135.842C136.103 132.683 136.642 129.556 137.246 126.465L134.302 125.89C134.923 122.71 135.611 119.567 136.364 116.463L139.279 117.171C140.032 114.067 140.851 111.004 141.733 107.985L138.853 107.144C139.761 104.035 140.736 100.971 141.775 97.9559L144.611 98.9331C145.65 95.9176 146.754 92.9521 147.92 90.0399L145.135 88.9249C146.341 85.9128 147.612 82.9559 148.947 80.058L151.672 81.3132C153.008 78.4142 154.407 75.576 155.868 72.8023L153.213 71.4045C154.724 68.5357 156.299 65.7336 157.937 63.0022L160.51 64.5447C162.149 61.811 163.85 59.1506 165.61 56.5675L163.131 54.8781C164.96 52.1943 166.852 49.5911 168.805 47.0728L171.176 48.9112C173.125 46.3984 175.133 43.9734 177.199 41.6405L174.953 39.6518C177.105 37.2205 179.32 34.8855 181.592 32.652L183.695 34.7914C185.958 32.5672 188.278 30.4474 190.65 28.437L188.711 26.148C191.185 24.052 193.717 22.0703 196.304 20.2082L198.056 22.643C200.62 20.7973 203.236 19.074 205.901 17.4781L204.359 14.9045C207.134 13.2424 209.962 11.7133 212.84 10.3234L214.145 13.0246C216.969 11.66 219.84 10.4344 222.753 9.35333L221.709 6.54078C224.729 5.42022 227.794 4.44947 230.9 3.63482L231.661 6.53669C234.67 5.74767 237.717 5.11012 240.799 4.62986L240.337 1.66564C243.498 1.17296 246.695 0.840358 249.924 0.673968L250.079 3.66999C251.629 3.59011 253.187 3.5498 254.751 3.5498C256.316 3.5498 257.874 3.59011 259.424 3.66999L259.578 0.673965C262.807 0.840353 266.005 1.17296 269.166 1.66563L268.704 4.62985C271.786 5.11011 274.833 5.74766 277.842 6.53668L278.603 3.63481C281.709 4.44946 284.774 5.42021 287.793 6.54077L286.75 9.35332C289.662 10.4344 292.533 11.66 295.358 13.0246L296.663 10.3233C299.54 11.7133 302.368 13.2424 305.143 14.9045L303.602 17.4781C306.266 19.074 308.883 20.7973 311.446 22.643L313.199 20.2082C315.785 22.0703 318.318 24.052 320.792 26.148L318.852 28.437C321.225 30.4474 323.545 32.5672 325.808 34.7914L327.911 32.652C330.183 34.8855 332.397 37.2205 334.55 39.6518L332.304 41.6405C334.369 43.9734 336.378 46.3984 338.327 48.9112L340.698 47.0728C342.65 49.5911 344.543 52.1943 346.372 54.8781L343.893 56.5675C345.653 59.1506 347.354 61.811 348.993 64.5447L351.566 63.0023C353.203 65.7337 354.779 68.5357 356.289 71.4045L353.635 72.8023C355.095 75.576 356.495 78.4142 357.831 81.3132L360.555 80.058C361.89 82.9559 363.162 85.9127 364.368 88.9249L361.583 90.0399C362.749 92.9521 363.853 95.9176 364.891 98.9331L367.728 97.9559C368.767 100.971 369.741 104.035 370.65 107.144L367.77 107.985C368.652 111.004 369.471 114.067 370.224 117.171L373.139 116.463C373.892 119.567 374.58 122.71 375.201 125.89L372.257 126.465C372.86 129.556 373.4 132.683 373.873 135.842L376.84 135.398C377.313 138.554 377.72 141.742 378.061 144.959L375.077 145.274C375.409 148.407 375.676 151.567 375.876 154.754L378.87 154.566Z" stroke="#405DB5" stroke-width="6" stroke-dasharray="10 10"/>
<path d="M196.304 310.731L187.644 335.794C185.25 342.722 180.619 348.655 174.479 352.659L157.466 363.754C147.757 370.086 136.771 374.204 125.292 375.815C103.218 378.913 85.8715 381.348 64.6823 384.321C49.2959 386.481 35.4974 394.936 26.5876 407.665L2.91797 441.479" stroke="#405DB5" stroke-width="6" stroke-dasharray="10 10"/>
<path d="M313.32 310.732L320.396 334.799C322.612 342.339 327.447 348.841 334.03 353.134L350.315 363.754C360.024 370.085 371.01 374.203 382.489 375.814C404.563 378.913 421.91 381.347 443.099 384.321C458.485 386.481 472.284 394.936 481.194 407.664L504.863 441.479" stroke="#405DB5" stroke-width="6" stroke-dasharray="10 10"/>
</svg>
