<svg width="46" height="47" viewBox="0 0 46 47" fill="none" xmlns="http://www.w3.org/2000/svg">
<path d="M11.7422 4.7207C9.67969 4.7207 8.01094 6.4457 8.01094 8.55404L7.99219 39.2207C7.99219 41.329 9.66094 43.054 11.7234 43.054H34.2422C36.3047 43.054 37.9922 41.329 37.9922 39.2207V16.2207L26.7422 4.7207H11.7422ZM24.8672 18.1374V7.5957L35.1797 18.1374H24.8672Z" fill="#405DB5"/>
<rect x="23.1484" y="24.6372" width="21.5938" height="14.6768" rx="3.25" fill="white" stroke="#405DB5" stroke-width="1.5"/>
<path d="M26.7134 34.9756V29.1574H28.7873C29.2399 29.1574 29.6149 29.2398 29.9123 29.4046C30.2096 29.5693 30.4322 29.7947 30.5799 30.0807C30.7276 30.3648 30.8015 30.6849 30.8015 31.0409C30.8015 31.3989 30.7267 31.7209 30.5771 32.0068C30.4293 32.2909 30.2058 32.5163 29.9066 32.683C29.6093 32.8477 29.2352 32.9301 28.7844 32.9301H27.3583V32.1858H28.7049C28.9909 32.1858 29.2229 32.1366 29.4009 32.0381C29.579 31.9377 29.7096 31.8013 29.793 31.629C29.8763 31.4566 29.918 31.2606 29.918 31.0409C29.918 30.8212 29.8763 30.6262 29.793 30.4557C29.7096 30.2852 29.578 30.1517 29.3981 30.0551C29.2201 29.9585 28.9852 29.9102 28.6935 29.9102H27.5913V34.9756H26.7134ZM33.7141 34.9756H31.8306V29.1574H33.7738C34.3439 29.1574 34.8335 29.2739 35.2425 29.5068C35.6516 29.7379 35.9651 30.0703 36.1829 30.504C36.4026 30.9358 36.5124 31.4538 36.5124 32.058C36.5124 32.664 36.4016 33.1849 36.18 33.6205C35.9603 34.0561 35.6422 34.3913 35.2255 34.6262C34.8088 34.8591 34.305 34.9756 33.7141 34.9756ZM32.7085 34.2085H33.6658C34.109 34.2085 34.4774 34.1252 34.771 33.9585C35.0645 33.79 35.2842 33.5466 35.43 33.2284C35.5759 32.9084 35.6488 32.5182 35.6488 32.058C35.6488 31.6015 35.5759 31.2142 35.43 30.896C35.2861 30.5779 35.0711 30.3364 34.7852 30.1716C34.4992 30.0068 34.1441 29.9244 33.7198 29.9244H32.7085V34.2085ZM37.604 34.9756V29.1574H41.212V29.9131H38.4819V31.6858H40.9535V32.4387H38.4819V34.9756H37.604Z" fill="#405DB5"/>
</svg>
