<svg width="23" height="21" viewBox="0 0 23 21" fill="none" xmlns="http://www.w3.org/2000/svg">
<path d="M5.79832 5.66467L5.54858 5.65333C5.53262 6.0047 5.66731 6.30864 5.93188 6.55056C6.21116 6.80593 6.53457 6.93932 6.8939 6.92618L6.89466 6.92615C7.23176 6.91279 7.53361 6.80184 7.79098 6.59266L7.79663 6.58807L7.802 6.58315L10.1279 4.45637V13.8624C10.1279 14.1965 10.2609 14.4878 10.5075 14.7262C10.7605 14.9718 11.0805 15.0901 11.4473 15.0901C11.8141 15.0901 12.1342 14.9718 12.388 14.7266L12.3884 14.7262C12.6343 14.4876 12.7666 14.1963 12.7666 13.8624V4.45637L15.0925 6.58315C15.354 6.8222 15.6671 6.93905 16.0189 6.92618L16.0197 6.92615C16.3637 6.91252 16.6766 6.78644 16.9528 6.5591L16.9635 6.55028L16.9732 6.54032C17.2037 6.30318 17.332 6.01804 17.3474 5.69345L17.3474 5.69254C17.3624 5.34914 17.2243 5.05194 16.9626 4.81267L12.5071 0.738596L12.3403 0.920949L12.5071 0.738595C12.3633 0.607092 12.1979 0.508208 12.0129 0.442447L12.0129 0.442441L12.0113 0.441872C11.8296 0.378671 11.6412 0.347168 11.4473 0.347168C11.2534 0.347168 11.0652 0.378672 10.8842 0.442029L10.8835 0.442285C10.6976 0.507976 10.5315 0.606853 10.3875 0.738595L10.5552 0.922015L10.3875 0.738596L5.93188 4.81267C5.68982 5.03401 5.56258 5.32048 5.54854 5.65416L5.79832 5.66467ZM5.79832 5.66467C5.78596 5.93671 5.88672 6.17051 6.10059 6.36606C6.33822 6.58335 6.59961 6.68677 6.88477 6.67634L10.9668 0.677998C10.8118 0.732754 10.675 0.814452 10.5562 0.923094L6.10059 4.99717C5.91048 5.171 5.80973 5.3935 5.79832 5.66467ZM20.1359 14.1168L20.1351 14.1176C19.8802 14.3518 19.752 14.6532 19.752 15.0031V17.5439C19.7506 17.5494 19.7414 17.5752 19.6907 17.6216C19.6251 17.6815 19.5875 17.6864 19.5742 17.6864H3.32031C3.30702 17.6864 3.26941 17.6815 3.20386 17.6216C3.15313 17.5752 3.14394 17.5494 3.14258 17.5439V15.0031C3.14258 14.6528 3.01356 14.3513 2.75759 14.1172C2.50388 13.8852 2.18578 13.7753 1.82324 13.7753C1.4607 13.7753 1.14261 13.8852 0.888896 14.1172C0.632922 14.3513 0.503906 14.6528 0.503906 15.0031V17.5453C0.503906 18.2703 0.785111 18.8904 1.33374 19.3921C1.88152 19.8929 2.5487 20.142 3.32031 20.142H19.5742C20.3458 20.142 21.013 19.8929 21.5608 19.3921C22.1094 18.8904 22.3906 18.2703 22.3906 17.5453V15.0031C22.3906 14.6532 22.2624 14.3518 22.0075 14.1176L22.0066 14.1168C21.7522 13.8852 21.4339 13.7753 21.0713 13.7753C20.7087 13.7753 20.3904 13.8852 20.1359 14.1168Z" fill="white" stroke="white" stroke-width="0.5"/>
</svg>
